<?xml version="1.0" standalone="no"?>
<!DOCTYPE svg PUBLIC "-//W3C//DTD SVG 1.1//EN" "http://www.w3.org/Graphics/SVG/1.1/DTD/svg11.dtd" >
<svg>
<metadata>
Created by FontForge 20090914 at Thu Oct 19 16:21:26 2017
 By www-data
Copyright (c) 2006 The Hoefler Type Foundry, Inc., dba Hoefler &#38; Frere-Jones. All Rights Reserved.
</metadata>
<defs>
<font id="Verlag-Light" horiz-adv-x="474" >
  <font-face 
    font-family="Verlag Light"
    font-weight="300"
    font-stretch="normal"
    units-per-em="1000"
    panose-1="0 0 0 0 0 0 0 0 0 0"
    ascent="800"
    descent="-200"
    x-height="418"
    cap-height="733"
    bbox="-73 -262 1099 1093"
    underline-thickness="50"
    underline-position="-150"
    unicode-range="U+0020-U+2212"
  />
<missing-glyph horiz-adv-x="500" 
 />
    <glyph glyph-name="f_f_i" unicode="ffi" horiz-adv-x="743" 
d="M307 730l-10 -48c-14.667 5.33301 -31.334 8 -50.001 8c-33.333 0 -58 -10 -74 -30s-24 -52.667 -24 -98v-144h124v-49h-124v-369h-55v369h-70v13l70 39v134c0 60.667 12.833 106.667 38.5 138s62.167 47 109.5 47c26.667 0 48.334 -3.33301 65.001 -10zM583 730l-10 -48
c-14.667 5.33301 -31 8 -49 8c-34 0 -59 -10 -75 -30s-24 -52.667 -24 -98v-144h124v-49h-124v-369h-55v369h-69v13l69 39v134c0 60.667 12.833 106.667 38.5 138s62.5 47 110.5 47c26 0 47.333 -3.33301 64 -10zM689 573c0 -11.333 -3.83301 -20.833 -11.5 -28.5
s-17.167 -11.5 -28.5 -11.5s-20.833 3.83301 -28.5 11.5s-11.5 17.167 -11.5 28.5s3.83301 21 11.5 29s17.167 12 28.5 12c10.667 0 20 -4 28 -12s12 -17.667 12 -29zM677 0h-56v418h56v-418z" />
    <glyph glyph-name="f_f_l" unicode="ffl" horiz-adv-x="745" 
d="M307 730l-10 -48c-14.667 5.33301 -31.334 8 -50.001 8c-33.333 0 -58 -10 -74 -30s-24 -52.667 -24 -98v-144h124v-49h-124v-369h-55v369h-70v13l70 39v134c0 60.667 12.833 106.667 38.5 138s62.167 47 109.5 47c26.667 0 48.334 -3.33301 65.001 -10zM583 730l-10 -48
c-14.667 5.33301 -31 8 -49 8c-34 0 -59 -10 -75 -30s-24 -52.667 -24 -98v-144h124v-49h-124v-369h-55v369h-69v13l69 39v134c0 60.667 12.833 106.667 38.5 138s62.5 47 110.5 47c26 0 47.333 -3.33301 64 -10zM677 0h-56v733h56v-733z" />
    <glyph glyph-name="f_f" unicode="ff" horiz-adv-x="553" 
d="M307 730l-10 -48c-14.667 5.33301 -31.334 8 -50.001 8c-33.333 0 -58 -10 -74 -30s-24 -52.667 -24 -98v-144h124v-49h-124v-369h-55v369h-70v13l70 39v134c0 60.667 12.833 106.667 38.5 138s62.167 47 109.5 47c26.667 0 48.334 -3.33301 65.001 -10zM583 730l-10 -48
c-14.667 5.33301 -31 8 -49 8c-34 0 -59 -10 -75 -30s-24 -52.667 -24 -98v-144h124v-49h-124v-369h-55v369h-69v13l69 39v134c0 60.667 12.833 106.667 38.5 138s62.5 47 110.5 47c26 0 47.333 -3.33301 64 -10z" />
    <glyph glyph-name="fi" unicode="fi" horiz-adv-x="466" 
d="M412 573c0 -11.333 -3.83301 -20.833 -11.5 -28.5s-17.167 -11.5 -28.5 -11.5c-10.667 0 -20 3.83301 -28 11.5s-12 17.167 -12 28.5s4 21 12 29s17.333 12 28 12c11.333 0 20.833 -4 28.5 -12s11.5 -17.667 11.5 -29zM307 730l-10 -48
c-14.667 5.33301 -31.334 8 -50.001 8c-33.333 0 -58 -10 -74 -30s-24 -52.667 -24 -98v-144h124v-49h-124v-369h-55v369h-70v13l70 39v134c0 60.667 12.833 106.667 38.5 138s62.167 47 109.5 47c26.667 0 48.334 -3.33301 65.001 -10zM400 0h-55v418h55v-418z" />
    <glyph glyph-name="fl" unicode="fl" horiz-adv-x="468" 
d="M307 730l-10 -48c-14.667 5.33301 -31.334 8 -50.001 8c-33.333 0 -58 -10 -74 -30s-24 -52.667 -24 -98v-144h124v-49h-124v-369h-55v369h-70v13l70 39v134c0 60.667 12.833 106.667 38.5 138s62.167 47 109.5 47c26.667 0 48.334 -3.33301 65.001 -10zM400 0h-55v733
h55v-733z" />
    <glyph glyph-name=".notdef" horiz-adv-x="500" 
 />
    <glyph glyph-name="space" unicode=" " horiz-adv-x="214" 
 />
    <glyph glyph-name="exclam" unicode="!" horiz-adv-x="203" 
d="M132 733l-9 -551h-43l-8 551h60zM146 36c0 -12.667 -4.33301 -23.167 -13 -31.5s-19 -12.5 -31 -12.5s-22.333 4.16699 -31 12.5s-13 18.833 -13 31.5c0 12 4.33301 22.167 13 30.5s19 12.5 31 12.5s22.333 -4.16699 31 -12.5s13 -18.5 13 -30.5z" />
    <glyph glyph-name="quotedbl" unicode="&#x22;" horiz-adv-x="356" 
d="M195 643l-116 -168l-31 20l92 182zM328 632l-117 -168l-32 20l93 183z" />
    <glyph glyph-name="numbersign" unicode="#" horiz-adv-x="563" 
d="M542 417l-9 -45h-111l-38 -168h112l-10 -45h-112l-35 -159h-51l36 159h-142l-35 -159h-51l36 159h-111l10 45h111l37 168h-111l10 45h111l36 160h51l-36 -160h141l36 160h50l-35 -160h110zM371 372h-141l-38 -168h142z" />
    <glyph glyph-name="dollar" unicode="$" horiz-adv-x="429" 
d="M225 650l44 -3.99805l-5 -62c38 -4.66699 74.333 -18.334 109 -41.001l-25 -44c-25.333 18.667 -54.666 31 -87.999 37l-18 -223c49.333 -22.667 85.166 -45.5 107.499 -68.5s33.5 -53.5 33.5 -91.5c0 -45.333 -15.833 -83 -47.5 -113s-71.167 -46.333 -118.5 -49l-5 -66
l-44 3l5 64c-46.667 5.33301 -94.667 24 -144 56l28 45c38 -28.667 78 -46 120 -52l19 235c-46 20 -80.5 41.667 -103.5 65s-34.5 53.666 -34.5 90.999c0 41.333 15 76.5 45 105.5s69 44.833 117 47.5zM329 149.002c0 25.333 -7.83203 46.333 -23.499 63
s-38.167 32 -67.5 46l-17 -219c31.333 3.33301 57.166 14.5 77.499 33.5s30.5 44.5 30.5 76.5zM111.001 436.002c0 -40.667 29.668 -75.332 89.001 -103.999l16 205c-34.667 -3.33301 -60.834 -14.333 -78.501 -33s-26.5 -41.334 -26.5 -68.001z" />
    <glyph glyph-name="percent" unicode="%" horiz-adv-x="642" 
d="M291 440c0 -40.667 -11 -75.167 -33 -103.5s-52 -42.5 -90 -42.5c-37.333 0 -66.833 14.167 -88.5 42.5s-32.5 62.833 -32.5 103.5c0 41.333 11 76 33 104s51.667 42 89 42c38 0 67.833 -14 89.5 -42s32.5 -62.667 32.5 -104zM570 566l-466 -582l-32 27l466 582zM595 137
c0 -40.667 -11 -75.167 -33 -103.5s-51.667 -42.5 -89 -42.5c-38 0 -67.667 14 -89 42s-32 62.667 -32 104s10.833 76 32.5 104s51.5 42 89.5 42c37.333 0 66.833 -14 88.5 -42s32.5 -62.667 32.5 -104zM245 440c0 30 -6.66699 55 -20 75s-32 30 -56 30
s-42.833 -10 -56.5 -30s-20.5 -45 -20.5 -75c0 -29.333 6.83301 -54 20.5 -74s32.5 -30 56.5 -30s42.667 10 56 30s20 44.667 20 74zM550 137c0 30 -6.66699 55 -20 75s-32.333 30 -57 30c-24 0 -42.667 -10 -56 -30s-20 -45 -20 -75c0 -29.333 6.66699 -54 20 -74
s32 -30 56 -30c24.667 0 43.667 10 57 30s20 44.667 20 74z" />
    <glyph glyph-name="ampersand" unicode="&#x26;" horiz-adv-x="595" 
d="M519 280l39 -28c-48 -64 -85.333 -110.333 -112 -139l104 -90l-33 -38c-35.333 28.667 -71 59.667 -107 93c-62 -57.333 -123.667 -86 -185 -86c-51.333 0 -93.333 14 -126 42s-49 66 -49 114c0 72 46.667 128 140 168c-30 46.667 -45 87.667 -45 123
c0 40.667 14.333 75.167 43 103.5s61.667 42.5 99 42.5c40 0 71.833 -12.333 95.5 -37s35.5 -52.667 35.5 -84c0 -71.333 -50.333 -127 -151 -167c32.667 -43.333 80.667 -94 144 -152c27.333 28 63.333 73 108 135zM367 460c0 22 -7.5 41 -22.5 57s-34.5 24 -58.5 24
c-23.333 0 -43.833 -9.66699 -61.5 -29s-26.5 -43 -26.5 -71c0 -28.667 14 -65 42 -109c46.667 18.667 79.5 38.167 98.5 58.5s28.5 43.5 28.5 69.5zM375 109c-74 70.667 -127.333 127.333 -160 170c-73.333 -28 -110 -72 -110 -132c0 -32 11.333 -58 34 -78s52 -30 88 -30
c46 0 95.333 23.333 148 70z" />
    <glyph glyph-name="quotesingle" unicode="'" horiz-adv-x="223" 
d="M195 643l-116 -168l-31 20l92 182z" />
    <glyph glyph-name="parenleft" unicode="(" horiz-adv-x="335" 
d="M340 -186l-24.001 -41.999c-85.333 52 -150.833 121.667 -196.5 209s-68.5 179.666 -68.5 276.999s22.833 189.666 68.5 276.999s111.167 157.333 196.5 210l25 -41c-75.333 -46 -133.833 -109 -175.5 -189s-62.5 -165.667 -62.5 -257s20.833 -176.666 62.5 -255.999
s99.834 -142 174.501 -188z" />
    <glyph glyph-name="parenright" unicode=")" horiz-adv-x="335" 
d="M284 258c0 -97.333 -22.833 -189.667 -68.5 -277s-111.167 -157 -196.5 -209l-25 42c75.333 46 133.833 108.667 175.5 188s62.5 164.666 62.5 255.999s-20.833 177 -62.5 257s-100.167 143 -175.5 189l25 41c85.333 -52.667 150.833 -122.667 196.5 -210
s68.5 -179.666 68.5 -276.999z" />
    <glyph glyph-name="asterisk" unicode="*" horiz-adv-x="369" 
d="M336 614l-121 -37l77 -98l-35 -25l-72 102l-72 -102l-35 25l76 98l-121 37l14 41l119 -42l-4 124h45l-4 -124l120 42z" />
    <glyph glyph-name="plus" unicode="+" horiz-adv-x="460" 
d="M400 256h-144v-151h-52v151h-144v49h144v151h52v-151h144v-49z" />
    <glyph glyph-name="comma" unicode="," horiz-adv-x="182" 
d="M138 23c0 -24.667 -8.49902 -49.833 -25.499 -75.5s-38.167 -46.167 -63.5 -61.5l-11 13c31.333 28.667 50.333 60 57 94c-14 1.33301 -25.333 6.33301 -34 15s-13 18.667 -13 30s4.16699 21 12.5 29s18.166 12 29.499 12c14 0 25.5 -5.16699 34.5 -15.5
s13.5 -23.833 13.5 -40.5z" />
    <glyph glyph-name="hyphen" unicode="-" horiz-adv-x="339" 
d="M289 218h-239v49h239v-49z" />
    <glyph glyph-name="period" unicode="." horiz-adv-x="182" 
d="M48 36c0 12 4.16699 22.167 12.5 30.5s18.5 12.5 30.5 12.5c12.667 0 23.167 -4.16699 31.5 -12.5s12.5 -18.5 12.5 -30.5c0 -12.667 -4.16699 -23.167 -12.5 -31.5s-18.833 -12.5 -31.5 -12.5c-12 0 -22.167 4.16699 -30.5 12.5s-12.5 18.833 -12.5 31.5z" />
    <glyph glyph-name="slash" unicode="/" horiz-adv-x="319" 
d="M318 733l-238 -949h-52l239 949h51z" />
    <glyph glyph-name="zero" unicode="0" horiz-adv-x="522" 
d="M480 288c0 -84.667 -19.668 -155.334 -59.001 -212.001s-92.666 -85 -159.999 -85c-68 0 -121.167 28.333 -159.5 85s-57.5 127.334 -57.5 212.001s19.5 155.5 58.5 212.5s92.5 85.5 160.5 85.5c67.333 0 120.333 -28.333 159 -85s58 -127.667 58 -213zM421.999 288
c0 72 -13.833 131.667 -41.5 179s-67.167 71 -118.5 71s-91 -23.667 -119 -71s-42 -107 -42 -179c0 -71.333 14 -130.5 42 -177.5s67.667 -70.5 119 -70.5s90.833 23.5 118.5 70.5s41.5 106.167 41.5 177.5z" />
    <glyph glyph-name="one" unicode="1" horiz-adv-x="333" 
d="M213 0h-55v516l-102 -36l-17 48l165 61h9v-589z" />
    <glyph glyph-name="two" unicode="2" horiz-adv-x="436" 
d="M383 0l-363.999 0.000976562l-4 9c105.333 110.667 176.333 188.667 213 234c30 36 52.167 67.167 66.5 93.5s21.5 53.5 21.5 81.5c0 35.333 -11.333 63.666 -34 84.999s-53.334 32 -92.001 32c-46 0 -90 -14 -132 -42l-16 46c48 31.333 97 47 147 47
c56 0 100.667 -15.167 134 -45.5s50 -69.5 50 -117.5c0 -31.333 -8 -62.5 -24 -93.5s-40.667 -66.833 -74 -107.5c-48.667 -56.667 -101 -114 -157 -172h265v-50z" />
    <glyph glyph-name="three" unicode="3" horiz-adv-x="422" 
d="M387 567l-210 -240c4 0.666992 9 1 15 1c55.333 -4 99.5 -20.833 132.5 -50.5s49.5 -68.167 49.5 -115.5c0 -50 -18 -91.167 -54 -123.5s-83 -48.5 -141 -48.5c-46 0 -95 9 -147 27l16 47c50 -16.667 92.667 -25 128 -25c44.667 0 79.667 11.333 105 34s38 52.667 38 90
c0 38 -14.333 67.833 -43 89.5s-67.667 32.5 -117 32.5c-24 0 -47 -2 -69 -6l-6 9l209 238h-259v50h348z" />
    <glyph glyph-name="four" unicode="4" horiz-adv-x="476" 
d="M454 173h-96v-174h-52v174h-288v14l325 400h15v-365h96v-49zM306 222v246l-200 -246h200z" />
    <glyph glyph-name="five" unicode="5" horiz-adv-x="458" 
d="M404 176c0 -53.333 -18 -97.5 -54 -132.5s-83.667 -52.5 -143 -52.5c-46 0 -95.667 9.66699 -149 29l16 46c44 -17.333 87.333 -26 130 -26c45.333 0 80.833 12.5 106.5 37.5s38.5 57.5 38.5 97.5c0 37.333 -13 67.333 -39 90s-62.667 34 -110 34
c-40.667 0 -77.667 -4.33301 -111 -13l-7 8v283h297v-50h-244v-183c18.667 3.33301 40.667 5 66 5c64.667 0 114.667 -16 150 -48s53 -73.667 53 -125z" />
    <glyph glyph-name="six" unicode="6" horiz-adv-x="477" 
d="M428 186c0 -53.333 -17.667 -99.166 -53 -137.499s-81 -57.5 -137 -57.5s-101.667 19.167 -137 57.5s-53 87.5 -53 147.5c0 74.667 25.333 146.5 76 215.5s130 130.833 238 185.5l24 -43c-138.667 -68.667 -226.667 -152.334 -264 -251.001c32 39.333 75.667 59 131 59
c49.333 0 90.833 -16.667 124.5 -50s50.5 -75.333 50.5 -126zM374 179c0 42 -12.333 75.665 -37 100.998s-56.667 38 -96 38c-41.333 0 -74.5 -12.667 -99.5 -38s-37.5 -57.666 -37.5 -96.999c0 -41.333 12.667 -75.666 38 -102.999s57.333 -41 96 -41
c39.333 0 71.833 13.333 97.5 40s38.5 60 38.5 100z" />
    <glyph glyph-name="seven" unicode="7" horiz-adv-x="407" 
d="M388 577l-257 -577h-54l237 527h-292v50h366z" />
    <glyph glyph-name="eight" unicode="8" horiz-adv-x="464" 
d="M408 154c0 -46 -16.6689 -84.667 -50.002 -116s-75.666 -47 -126.999 -47s-93.333 15.667 -126 47s-49 70 -49 116c0 31.333 9 59.666 27 84.999s42 44 72 56c-58.667 28 -88 73 -88 135c0 44.667 15.5 81.834 46.5 111.501s70.167 44.5 117.5 44.5
c48.667 0 88.334 -14.833 119.001 -44.5s46 -66.834 46 -111.501c0 -62 -29.333 -107 -88 -135c30.667 -12 55 -30.667 73 -56s27 -53.666 27 -84.999zM342.998 429c0 31.333 -10.333 57.666 -31 78.999s-47.667 32 -81 32c-32.667 0 -59.334 -10.667 -80.001 -32
s-31 -47.666 -31 -78.999s10.333 -57.833 31 -79.5s47.334 -32.5 80.001 -32.5c33.333 0 60.333 10.833 81 32.5s31 48.167 31 79.5zM352.998 155c0 33.333 -11.667 61.166 -35 83.499s-52.333 33.5 -87 33.5s-63.334 -11.167 -86.001 -33.5s-34 -50.166 -34 -83.499
c0 -34 11.333 -62.167 34 -84.5s51.334 -33.5 86.001 -33.5c35.333 0 64.5 11.167 87.5 33.5s34.5 50.5 34.5 84.5z" />
    <glyph glyph-name="nine" unicode="9" horiz-adv-x="470" 
d="M425 382c0 -74.667 -25.165 -146.667 -75.498 -216s-129.5 -131.333 -237.5 -186l-24 43c134.667 66.667 222 149.667 262 249c-30.667 -36 -71.334 -54 -122.001 -54s-93.334 16.5 -128.001 49.5s-52 75.167 -52 126.5c0 54 18 99.5 54 136.5s81.333 55.5 136 55.5
c56.667 0 102 -19 136 -57s51 -87 51 -147zM369.002 398c0 41.333 -12.332 75.167 -36.999 101.5s-56.334 39.5 -95.001 39.5c-39.333 0 -71.5 -13 -96.5 -39s-37.5 -59 -37.5 -99c0 -42 12 -75.333 36 -100s56 -37 96 -37c40.667 0 73.167 12.5 97.5 37.5
s36.5 57.167 36.5 96.5z" />
    <glyph glyph-name="colon" unicode=":" horiz-adv-x="182" 
d="M48 36c0 12 4.16699 22.167 12.5 30.5s18.5 12.5 30.5 12.5c12.667 0 23.167 -4.16699 31.5 -12.5s12.5 -18.5 12.5 -30.5c0 -12.667 -4.16699 -23.167 -12.5 -31.5s-18.833 -12.5 -31.5 -12.5c-12 0 -22.167 4.16699 -30.5 12.5s-12.5 18.833 -12.5 31.5zM47 323
c0 12 4.33301 22.333 13 31s19 13 31 13s22.333 -4.33301 31 -13s13 -19 13 -31s-4.33301 -22.167 -13 -30.5s-19 -12.5 -31 -12.5s-22.333 4.16699 -31 12.5s-13 18.5 -13 30.5z" />
    <glyph glyph-name="semicolon" unicode=";" horiz-adv-x="182" 
d="M138 23c0 -24.667 -8.49902 -49.833 -25.499 -75.5s-38.167 -46.167 -63.5 -61.5l-11 13c31.333 28.667 50.333 60 57 94c-14 1.33301 -25.333 6.33301 -34 15s-13 18.667 -13 30s4.16699 21 12.5 29s18.166 12 29.499 12c14 0 25.5 -5.16699 34.5 -15.5
s13.5 -23.833 13.5 -40.5zM47.001 323.001c0 12 4.33301 22.333 13 31s19 13 31 13s22.333 -4.33301 31 -13s13 -19 13 -31s-4.33301 -22.167 -13 -30.5s-19 -12.5 -31 -12.5s-22.333 4.16699 -31 12.5s-13 18.5 -13 30.5z" />
    <glyph glyph-name="less" unicode="&#x3c;" horiz-adv-x="381" 
d="M342 73l-34 -35l-275 243l275 244l34 -37l-234 -208z" />
    <glyph glyph-name="equal" unicode="=" horiz-adv-x="403" 
d="M343 326h-283v50h283v-50zM343 185h-283v49h283v-49z" />
    <glyph glyph-name="greater" unicode="&#x3e;" horiz-adv-x="381" 
d="M348 282l-275 -244l-34 37l234 208l-234 207l34 35z" />
    <glyph glyph-name="question" unicode="?" horiz-adv-x="384" 
d="M359 574c0 -27.333 -6.66895 -52.4961 -20.002 -75.4961s-29.333 -42.667 -48 -59l-56 -47c-18.667 -15 -34.667 -31.833 -48 -50.5s-20 -38.334 -20 -59.001v-80h-52c-0.666992 59.333 -0.666992 89.666 0 90.999c0 23.333 6.5 45.166 19.5 65.499
s28.5 38.166 46.5 53.499l54.5 45.5c18.333 15 34 32.167 47 51.5s19.5 40 19.5 62c0 35.333 -12 63.5 -36 84.5s-58 31.5 -102 31.5c-39.333 0 -81.666 -11.333 -126.999 -34l-15 49c52.667 24.667 101.334 37 146.001 37c61.333 0 108.5 -15.5 141.5 -46.5
s49.5 -70.833 49.5 -119.5zM184.998 36.0039c0 -12.667 -4.33301 -23.167 -13 -31.5s-19 -12.5 -31 -12.5s-22.333 4.16699 -31 12.5s-13 18.833 -13 31.5c0 12 4.33301 22.167 13 30.5s19 12.5 31 12.5s22.333 -4.16699 31 -12.5s13 -18.5 13 -30.5z" />
    <glyph glyph-name="at" unicode="@" horiz-adv-x="684" 
d="M635 313c0 -64 -19.001 -112.002 -57.001 -144.002c-21.333 -18 -45 -27 -71 -27c-39.333 0 -67 16.667 -83 50c-29.333 -31.333 -61.666 -47 -96.999 -47c-26.667 0 -49 7.5 -67 22.5s-27 35.833 -27 62.5c0 23.333 8.83301 42.5 26.5 57.5s40.834 22.5 69.501 22.5
c26.667 0 52.667 -6.66699 78 -20v15c0 47.333 -24.333 71 -73 71c-20.667 0 -43.334 -4.33301 -68.001 -13l-8 38c28 10.667 55.333 16 82 16c76.667 0 115 -38 115 -114v-60c0 -21.333 5 -37 15 -47s22.667 -15 38 -15c18.667 0 33.334 5 44.001 15
c25.333 22 38 60 38 114c0 60 -21.333 113.833 -64 161.5s-104 71.5 -184 71.5c-68.667 0 -126.667 -25 -174 -75s-71 -110.667 -71 -182c0 -74 24.5 -135.167 73.5 -183.5s116.167 -72.5 201.5 -72.5c38 0 79.333 7.66699 124 23c0.666992 -2 1.33398 -4.33301 2.00098 -7
s1.83398 -7 3.50098 -13s3.16699 -11 4.5 -15l1 -5c-53.333 -16.667 -99 -25 -137 -25c-96.667 0 -174.167 28.5 -232.5 85.5s-87.5 127.833 -87.5 212.5c0 82.667 28.5 153 85.5 211s125.833 87 206.5 87c47.333 0 90.166 -8.16699 128.499 -24.5
s69.166 -37.666 92.499 -63.999s41.166 -55.166 53.499 -86.499s18.5 -63.333 18.5 -96zM406.999 215.998v37c-21.333 14.667 -45 22 -71 22c-16.667 0 -30.167 -3.83301 -40.5 -11.5s-15.5 -18.5 -15.5 -32.5c0 -15.333 5 -27.333 15 -36s23.667 -13 41 -13
c26 0 49.667 11.333 71 34z" />
    <glyph glyph-name="A" unicode="A" horiz-adv-x="696" 
d="M674 0h-60l-95 224h-344l-94 -224h-59l321 745h10zM498 272l-151 359l-151 -359h302z" />
    <glyph glyph-name="B" unicode="B" horiz-adv-x="565" 
d="M525 199c0 -57.333 -23.5 -106.001 -70.5 -146.001s-112.5 -60 -196.5 -60c-42 0 -99 4 -171 12v723c62 8 116.667 12 164 12c83.333 0 146.833 -17.667 190.5 -53s65.5 -79.666 65.5 -132.999c0 -88.667 -50.667 -146.667 -152 -174c56 -10 98.333 -31.167 127 -63.5
s43 -71.5 43 -117.5zM450 547.999c0 44 -16.5 79 -49.5 105s-81.5 39 -145.5 39c-39.333 0 -76.666 -3 -111.999 -9v-281c20 -1.33301 50.333 -2 91 -2c71.333 0 125.166 13.833 161.499 41.5s54.5 63.167 54.5 106.5zM467 201.999c0 46 -19.665 83 -58.998 111
s-96 42 -170 42c-42.667 0 -74.334 -0.666992 -95.001 -2v-302c43.333 -6 83.666 -9 120.999 -9c64 0 113.833 15 149.5 45s53.5 68.333 53.5 115z" />
    <glyph glyph-name="C" unicode="C" horiz-adv-x="740" 
d="M695 70c-80 -53.333 -164.332 -80 -252.999 -80c-108.667 0 -199.834 34.5 -273.501 103.5s-110.5 159.5 -110.5 271.5s37.167 203.333 111.5 274s165.166 106 272.499 106c92 0 177 -26.667 255 -80l-25 -47c-76 50 -153.667 75 -233 75
c-91.333 0 -167.5 -30.167 -228.5 -90.5s-91.5 -139.166 -91.5 -236.499c0 -96.667 30.833 -174.834 92.5 -234.501s138.5 -89.5 230.5 -89.5c78.667 0 156.334 24.667 233.001 74z" />
    <glyph glyph-name="D" unicode="D" horiz-adv-x="740" 
d="M682 373c0 -106.667 -36.333 -196.667 -109 -270s-174 -110 -304 -110c-61.333 0 -122 4 -182 12v723c60 8 119.333 12 178 12c66 0 126 -10.167 180 -30.5s97.833 -47.833 131.5 -82.5s59.667 -73.667 78 -117s27.5 -89 27.5 -137zM622 373
c0 91.333 -31.501 167.167 -94.501 227.5s-150.167 90.5 -261.5 90.5c-51.333 0 -92.333 -2.66699 -123 -8v-633c33.333 -5.33301 76 -8 128 -8c112.667 0 199.334 30.833 260.001 92.5s91 141.167 91 238.5z" />
    <glyph glyph-name="E" unicode="E" horiz-adv-x="563" 
d="M501 0h-414v733h414v-50h-358v-286h323v-50h-323v-296h358v-51z" />
    <glyph glyph-name="F" unicode="F" horiz-adv-x="543" 
d="M501 683h-358v-299h323v-50h-323v-334h-56v733h414v-50z" />
    <glyph glyph-name="G" unicode="G" horiz-adv-x="779" 
d="M447 349h264.996v-269c-76 -60 -164.667 -90 -266 -90c-67.333 0 -130.166 14.5 -188.499 43.5s-106.166 72.667 -143.499 131s-56 125.5 -56 201.5c0 56.667 10.833 109.167 32.5 157.5s50.334 88.5 86.001 120.5s76.334 56.833 122.001 74.5s92.5 26.5 140.5 26.5
c55.333 0 103.833 -7.5 145.5 -22.5s83.5 -37.5 125.5 -67.5l-30 -44c-76 55.333 -156.333 83.333 -241 84c-91.333 0 -167.5 -30.833 -228.5 -92.5s-91.5 -140.5 -91.5 -236.5c0 -96.667 31.833 -175.167 95.5 -235.5s141.5 -90.5 233.5 -90.5c78 0 147.333 21.333 208 64
v193h-209v52z" />
    <glyph glyph-name="H" unicode="H" horiz-adv-x="707" 
d="M620 0h-56v348h-421v-348h-56v733h56v-335h421v335h56v-733z" />
    <glyph glyph-name="I" unicode="I" horiz-adv-x="238" 
d="M147 0h-56v733h56v-733z" />
    <glyph glyph-name="J" unicode="J" horiz-adv-x="465" 
d="M382 733v-515c0 -71.333 -17.833 -127.5 -53.5 -168.5s-85.167 -61.5 -148.5 -61.5c-62 0 -116.333 18.667 -163 56l30 43c39.333 -31.333 84 -47 134 -47c46 0 81.667 15 107 45s38 74.667 38 134v514h56z" />
    <glyph glyph-name="K" unicode="K" horiz-adv-x="593" 
d="M572 0h-74l-355 362v-362h-56v733h56v-341l343 341h72l-361 -356z" />
    <glyph glyph-name="L" unicode="L" horiz-adv-x="513" 
d="M501 0h-414v733h56v-682h358v-51z" />
    <glyph glyph-name="M" unicode="M" horiz-adv-x="847" 
d="M771 0h-57l-12 586l-274 -481h-9l-274 482l-12 -587h-57l25 742l13 2l312 -555l307 555l13 -2z" />
    <glyph glyph-name="N" unicode="N" horiz-adv-x="727" 
d="M640 -9l-10 -2l-488 622v-611h-55v741l13 3l484 -615v604h56v-742z" />
    <glyph glyph-name="O" unicode="O" horiz-adv-x="842" 
d="M784 366c0 -107.333 -35.333 -196.832 -106 -268.499s-157 -107.5 -259 -107.5c-101.333 0 -186.833 35.833 -256.5 107.5s-104.5 161.167 -104.5 268.5s35.333 197.166 106 269.499s157 108.5 259 108.5c101.333 0 186.833 -36 256.5 -108s104.5 -162 104.5 -270z
M723 366.001c0 93.333 -28.5 171.166 -85.5 233.499s-129.167 93.5 -216.5 93.5s-159.5 -31.167 -216.5 -93.5s-85.5 -140.166 -85.5 -233.499c0 -92.667 28.5 -170.167 85.5 -232.5s129.167 -93.5 216.5 -93.5s159.5 31.167 216.5 93.5s85.5 139.833 85.5 232.5z" />
    <glyph glyph-name="P" unicode="P" horiz-adv-x="555" 
d="M520 505c0 -74.667 -25.666 -135 -76.999 -181s-121.333 -69 -210 -69c-26.667 0 -56.667 2 -90 6v-261h-56v728c53.333 6.66699 103.666 10 150.999 10c90 0 159.5 -22.167 208.5 -66.5s73.5 -99.833 73.5 -166.5zM460.001 502c0 52 -19 96.001 -57 132.001
s-91 54 -159 54c-32 0 -65.667 -2.33301 -101 -7v-370c40.667 -4.66699 71.334 -7 92.001 -7c71.333 0 126.666 18.167 165.999 54.5s59 84.166 59 143.499z" />
    <glyph glyph-name="Q" unicode="Q" horiz-adv-x="842" 
d="M783 24l-35 -40.998c-50 46.667 -82.667 76.667 -98 90c-67.333 -55.333 -144.333 -83 -231 -83c-102 0 -187.667 35.667 -257 107s-104 161 -104 269c0 107.333 35.333 197.166 106 269.499s156.667 108.5 258 108.5s186.833 -36 256.5 -108s104.5 -162 104.5 -270
c0 -100.667 -31.667 -186.334 -95 -257.001zM723 366.002c0 93.333 -28.5 171.166 -85.5 233.499s-129.167 93.5 -216.5 93.5s-159.5 -31.167 -216.5 -93.5s-85.5 -140.166 -85.5 -233.499c0 -92.667 28.5 -170.167 85.5 -232.5s129.167 -93.5 216.5 -93.5
c72 0 135 22.667 189 68l-38 34l-76 68l-39 35l35 40l155 -139c50.667 60 76 133.333 76 220z" />
    <glyph glyph-name="R" unicode="R" horiz-adv-x="590" 
d="M565 0h-68l-200 298c-18 -2.66699 -39.333 -4 -64 -4c-27.333 0 -57 1.33301 -89 4v-298h-57v726c62 8 114.333 12 157 12c88.667 0 157.167 -19.833 205.5 -59.5s72.5 -92.167 72.5 -157.5c0 -50.667 -14.833 -94.5 -44.5 -131.5s-71.5 -63.5 -125.5 -79.5zM462 518
c0 50.667 -18.5 91.667 -55.5 123s-89.167 47 -156.5 47c-36 0 -71.333 -3 -106 -9v-331c33.333 -4 64 -6 92 -6c72.667 0 128.5 15.667 167.5 47s58.5 74.333 58.5 129z" />
    <glyph glyph-name="S" unicode="S" horiz-adv-x="517" 
d="M464 189c0 -58.667 -21.5 -106.832 -64.5 -144.499s-96.167 -56.5 -159.5 -56.5c-72 0 -142.667 22.667 -212 68l27 49c64.667 -44 128 -66 190 -66c48 0 87 13.5 117 40.5s45 61.167 45 102.5c0 40 -12.333 71.667 -37 95s-66 48 -124 74
c-62 27.333 -107.833 56.166 -137.5 86.499s-44.5 69.166 -44.5 116.499c0 54 20.5 99.333 61.5 136s93.833 55 158.5 55c60.667 0 115.667 -16.667 165 -50l-27 -47c-43.333 30.667 -91 46 -143 46c-48 0 -86.5 -13 -115.5 -39s-43.5 -58.333 -43.5 -97
c0 -36 12.333 -65.333 37 -88s62.667 -46 114 -70c68.667 -30.667 118 -61.167 148 -91.5s45 -70.166 45 -119.499z" />
    <glyph glyph-name="T" unicode="T" horiz-adv-x="614" 
d="M584 683h-248v-683h-57v683h-249v50h554v-50z" />
    <glyph glyph-name="U" unicode="U" horiz-adv-x="708" 
d="M628 266c0 -85.333 -24.999 -152.667 -74.999 -202s-116.667 -74 -200 -74c-85.333 0 -152 24 -200 72s-72 116 -72 204v467h56v-466c0 -73.333 19.167 -129.333 57.5 -168s91.166 -58 158.499 -58c66.667 0 119.667 19.5 159 58.5s59 94.833 59 167.5v466h57v-467z" />
    <glyph glyph-name="V" unicode="V" horiz-adv-x="687" 
d="M668 733l-319 -745h-11l-319 745h62l264 -628l262 628h61z" />
    <glyph glyph-name="W" unicode="W" horiz-adv-x="952" 
d="M918 733l-192 -743l-14 -2l-237 627l-235 -627l-14 2l-192 743h56l154 -601l227 605h10l229 -603l153 599h55z" />
    <glyph glyph-name="X" unicode="X" horiz-adv-x="678" 
d="M640 0h-67l-235 329l-235 -329h-66l271 369l-267 364h68l230 -323l231 323h66l-266 -363z" />
    <glyph glyph-name="Y" unicode="Y" horiz-adv-x="626" 
d="M597 733l-256 -404v-329h-56v330l-256 403h63l223 -356l220 356h62z" />
    <glyph glyph-name="Z" unicode="Z" horiz-adv-x="631" 
d="M580 723l-446 -672h441v-51h-525l-4 10l445 673h-420v50h504z" />
    <glyph glyph-name="bracketleft" unicode="[" horiz-adv-x="295" 
d="M271 -216h-191v949h191v-46h-139v-857h139v-46z" />
    <glyph glyph-name="backslash" unicode="\" horiz-adv-x="319" 
d="M291 -216h-52l-238 949h51z" />
    <glyph glyph-name="bracketright" unicode="]" horiz-adv-x="295" 
d="M216 -216h-191v46h139v857h-139v46h191v-949z" />
    <glyph glyph-name="asciicircum" unicode="^" horiz-adv-x="440" 
d="M357 485h-59l-79 98l-75 -98h-58l121 149h30z" />
    <glyph glyph-name="underscore" unicode="_" horiz-adv-x="520" 
d="M520 0h-520v50h520v-50z" />
    <glyph glyph-name="grave" unicode="`" horiz-adv-x="440" 
d="M334 505l-19 -30l-192 99l31 54z" />
    <glyph glyph-name="a" unicode="a" horiz-adv-x="433" 
d="M376 0h-52.001v45c-35.333 -35.333 -79.333 -53 -132 -53c-44 0 -80.667 11.667 -110 35s-44 55.333 -44 96c0 38.667 14.833 70.167 44.5 94.5s66.834 36.5 111.501 36.5c39.333 0 81.666 -10.667 126.999 -32v38c0 40 -9.5 69.5 -28.5 88.5s-49.833 28.5 -92.5 28.5
c-37.333 0 -73.666 -7.66699 -108.999 -23l-11 48c43.333 16 85.333 24 126 24c113.333 0 170 -55.333 170 -166v-260zM320.999 93v82c-41.333 23.333 -81.333 35 -120 35c-32.667 0 -59.167 -7.5 -79.5 -22.5s-30.5 -36.5 -30.5 -64.5c0 -27.333 10 -48.333 30 -63
s47.333 -22 82 -22c48 0 87.333 18.333 118 55z" />
    <glyph glyph-name="b" unicode="b" horiz-adv-x="506" 
d="M463 211c0 -61.333 -20 -113.167 -60 -155.5s-88.333 -63.5 -145 -63.5s-104 19 -142 57v-49h-53v733h55v-363c40 37.333 88.333 56 145 56c57.333 0 105 -20.333 143 -61s57 -92 57 -154zM408 209.999c0 48.667 -14.167 88.833 -42.5 120.5s-65.166 47.5 -110.499 47.5
c-55.333 0 -101 -21 -137 -63v-211c35.333 -42.667 79.666 -64 132.999 -64c45.333 0 82.833 15.833 112.5 47.5s44.5 72.5 44.5 122.5z" />
    <glyph glyph-name="c" unicode="c" horiz-adv-x="424" 
d="M400 34c-44 -28 -90.334 -42 -139.001 -42c-63.333 0 -115.666 20.667 -156.999 62s-62 92.333 -62 153s20.667 112.334 62 155.001s93.666 64 156.999 64c48.667 0 95 -14 139 -42l-25 -43c-38 24 -77 36 -117 36c-47.333 0 -86.166 -15.5 -116.499 -46.5
s-45.5 -71.5 -45.5 -121.5c0 -48.667 15.833 -88.834 47.5 -120.501s70.5 -47.5 116.5 -47.5c40 0 79.333 12 118 36z" />
    <glyph glyph-name="d" unicode="d" horiz-adv-x="506" 
d="M443 0l-53 0.000976562v51c-38 -39.333 -86 -59 -144 -59c-59.333 0 -108 20.167 -146 60.5s-57 91.833 -57 154.5c0 61.333 20 113.166 60 155.499s88.333 63.5 145 63.5c55.333 0 102 -17.333 140 -52v359h55v-733zM388 105.001v210.001c-35.333 42 -81 63 -137 63
c-44 0 -80.5 -15.833 -109.5 -47.5s-43.5 -72.5 -43.5 -122.5c0 -48.667 14.333 -88.834 43 -120.501s66 -47.5 112 -47.5c54.667 0 99.667 21.667 135 65z" />
    <glyph glyph-name="e" unicode="e" horiz-adv-x="461" 
d="M422 224c0 -11.333 -0.670898 -20.333 -2.00391 -27h-323c2.66699 -47.333 18.167 -85.166 46.5 -113.499s69.833 -42.5 124.5 -42.5c37.333 0 77 8.33301 119 25c0.666992 -2 1.33398 -4.66699 2.00098 -8s1.83398 -8.5 3.50098 -15.5s2.83398 -12.5 3.50098 -16.5l2 -7
c-47.333 -18 -91.666 -27 -132.999 -27c-71.333 0 -126.333 20.167 -165 60.5s-58 92.166 -58 155.499c0 61.333 18.167 113 54.5 155s84.5 63 144.5 63c57.333 0 101.833 -18.833 133.5 -56.5s47.5 -86.167 47.5 -145.5zM98.9961 241h270
c-2.66699 40.667 -15 73.667 -37 99s-53.667 38 -95 38c-39.333 0 -71 -12.333 -95 -37s-38.333 -58 -43 -100z" />
    <glyph glyph-name="f" unicode="f" horiz-adv-x="277" 
d="M307 730l-10 -48c-14.667 5.33301 -31.334 8 -50.001 8c-33.333 0 -58 -10 -74 -30s-24 -52.667 -24 -98v-144h124v-49h-124v-369h-55v369h-70v13l70 39v134c0 60.667 12.833 106.667 38.5 138s62.167 47 109.5 47c26.667 0 48.334 -3.33301 65.001 -10z" />
    <glyph glyph-name="g" unicode="g" horiz-adv-x="506" 
d="M443 -41c0 -123.333 -58.334 -184.999 -175.001 -184.999c-43.333 0 -89.666 8 -138.999 24l10 51c41.333 -16 82.333 -24 123 -24c43.333 0 75.166 10.5 95.499 31.5s30.5 53.833 30.5 98.5v92c-39.333 -36.667 -86.666 -55 -141.999 -55
c-59.333 0 -108 20.167 -146 60.5s-57 91.833 -57 154.5c0 61.333 20 113.166 60 155.499s88.333 63.5 145 63.5c58 0 105.333 -19 142 -57v49h53v-459zM387.999 103.001v210.001c-36 43.333 -81.333 65 -136 65c-45.333 0 -82.333 -16 -111 -48s-43 -73 -43 -123
c0 -48.667 14.667 -88.834 44 -120.501s67.333 -47.5 114 -47.5c53.333 0 97.333 21.333 132 64z" />
    <glyph glyph-name="h" unicode="h" horiz-adv-x="466" 
d="M413 0h-56v269c0 72.667 -32.333 109 -97 109c-50.667 0 -99.667 -26.667 -147 -80v-298h-55v733h55v-386c49.333 52.667 102 79 158 79c46.667 0 82 -13.167 106 -39.5s36 -61.5 36 -105.5v-281z" />
    <glyph glyph-name="i" unicode="i" horiz-adv-x="188" 
d="M134 573c0 -11.333 -4 -20.833 -12 -28.5s-17.333 -11.5 -28 -11.5c-11.333 0 -20.833 3.83301 -28.5 11.5s-11.5 17.167 -11.5 28.5s3.83301 21 11.5 29s17.167 12 28.5 12c10.667 0 20 -4 28 -12s12 -17.667 12 -29zM122 0h-56v418h56v-418z" />
    <glyph glyph-name="j" unicode="j" horiz-adv-x="189" 
d="M136 573c0 -11.333 -3.83301 -20.833 -11.5 -28.5s-17.167 -11.5 -28.5 -11.5c-10.667 0 -20 3.83301 -28 11.5s-12 17.167 -12 28.5s4 21 12 29s17.333 12 28 12c11.333 0 20.833 -4 28.5 -12s11.5 -17.667 11.5 -29zM124 418v-517c0 -83.333 -35.667 -125 -107 -125
c-16.667 0 -36.667 2.33301 -60 7l7 48c16.667 -3.33301 30.667 -5 42 -5c42 0 63 24 63 72v520h55z" />
    <glyph glyph-name="k" unicode="k" horiz-adv-x="398" 
d="M396 0h-70l-208 206v-206h-55v733h55v-500l198 185h70l-217 -197z" />
    <glyph glyph-name="l" unicode="l" horiz-adv-x="187" 
d="M121 0h-55v733h55v-733z" />
    <glyph glyph-name="m" unicode="m" horiz-adv-x="748" 
d="M689 0h-55.999v274c0 68.667 -29 103 -87 103c-50.667 0 -98 -27 -142 -81v-296h-56v272c0 70.667 -29.333 106 -88 106c-48 0 -95.333 -27 -142 -81v-297h-55v418h53v-71c51.333 52.667 104.666 79 159.999 79c60 0 98.333 -28.667 115 -86c47.333 56.667 104 85 170 85
c39.333 0 70.5 -12.167 93.5 -36.5s34.5 -59.5 34.5 -105.5v-283z" />
    <glyph glyph-name="n" unicode="n" 
d="M415 0h-56v269c0 72.667 -32 109 -96 109c-48 0 -96.333 -26.667 -145 -80v-298h-55v418h53v-72c50 53.333 103.333 80 160 80c46 0 80.667 -13.167 104 -39.5s35 -61.5 35 -105.5v-281z" />
    <glyph glyph-name="o" unicode="o" horiz-adv-x="500" 
d="M458 210c0 -61.333 -19.666 -112.999 -58.999 -154.999s-89 -63 -149 -63c-60.667 0 -110.334 20.833 -149.001 62.5s-58 93.167 -58 154.5c0 60.667 19.5 112 58.5 154s88.833 63 149.5 63c60 0 109.5 -20.833 148.5 -62.5s58.5 -92.834 58.5 -153.501zM402.001 209.001
c0 50 -14 90.833 -42 122.5s-64.667 47.5 -110 47.5s-82 -16 -110 -48s-42 -72.667 -42 -122s14 -90 42 -122s64.667 -48 110 -48s82 16 110 48s42 72.667 42 122z" />
    <glyph glyph-name="p" unicode="p" horiz-adv-x="506" 
d="M463 210c0 -63.333 -19.667 -115.5 -59 -156.5s-89.333 -61.5 -150 -61.5c-48 0 -93.333 14.333 -136 43v-251h-55v634h53v-51c40.667 39.333 89.667 59 147 59c56.667 0 104.167 -20.5 142.5 -61.5s57.5 -92.5 57.5 -154.5zM408 209c0 48.667 -14.3311 89 -42.998 121
s-65.334 48 -110.001 48c-55.333 0 -101 -21 -137 -63v-220c37.333 -37.333 82.666 -56 135.999 -56c44.667 0 81.5 15.667 110.5 47s43.5 72.333 43.5 123z" />
    <glyph glyph-name="q" unicode="q" horiz-adv-x="506" 
d="M443 -216h-55v262c-39.333 -36 -85.666 -54 -138.999 -54c-59.333 0 -108.5 20 -147.5 60s-58.5 91.667 -58.5 155c0 62 20.333 114 61 156s89.667 63 147 63c55.333 0 101.666 -18 138.999 -54v46h53v-634zM388 104v211c-36 42 -81.333 63 -136 63
c-44 0 -80.667 -16 -110 -48s-44 -72.667 -44 -122c0 -50 14.5 -90.5 43.5 -121.5s67.833 -46.5 116.5 -46.5c52 0 95.333 21.333 130 64z" />
    <glyph glyph-name="r" unicode="r" horiz-adv-x="285" 
d="M268 373c-30.667 -1.33301 -59.5 -9.33301 -86.5 -24s-48.167 -35.667 -63.5 -63v-286h-55v418h53v-79c41.333 58.667 92 88 152 88v-54z" />
    <glyph glyph-name="s" unicode="s" horiz-adv-x="354" 
d="M311 116c0 -34 -12.498 -63.167 -37.498 -87.5s-57.167 -36.5 -96.5 -36.5c-50.667 0 -99.334 17.333 -146.001 52l27 40c40 -30.667 79 -46 117 -46c26.667 0 47.5 6.5 62.5 19.5s22.5 30.167 22.5 51.5c0 18 -7.16699 33.333 -21.5 46s-31.666 22.834 -51.999 30.501
s-40.5 16 -60.5 25s-37.167 21.833 -51.5 38.5s-21.5 37 -21.5 61c0 31.333 12.167 58.5 36.5 81.5s56.833 34.5 97.5 34.5c41.333 0 81.666 -13.333 120.999 -40l-25 -42c-34 24 -66.333 36 -97 36c-26.667 0 -47 -6.16699 -61 -18.5s-21 -27.833 -21 -46.5
c0 -17.333 7.16699 -32 21.5 -44s31.666 -21.833 51.999 -29.5s40.5 -15.834 60.5 -24.501s37.167 -21.5 51.5 -38.5s21.5 -37.833 21.5 -62.5z" />
    <glyph glyph-name="t" unicode="t" horiz-adv-x="293" 
d="M275 369h-132v-262c0 -44 23.333 -66 70 -66c13.333 0 28.333 1.66699 45 5l5 -47c-26 -4.66699 -47 -7 -63 -7c-74 0 -111 39.667 -111 119v258h-71v13l71 39v90l54 40v-133h132v-49z" />
    <glyph glyph-name="u" unicode="u" 
d="M411 0h-52.999v69c-20.667 -21.333 -45.167 -39.5 -73.5 -54.5s-56.5 -22.5 -84.5 -22.5c-46.667 0 -81.834 13.167 -105.501 39.5s-35.5 61.5 -35.5 105.5v281h56v-269c0 -72.667 32.333 -109 97 -109c48.667 0 96.667 26 144 78v300h55v-418z" />
    <glyph glyph-name="v" unicode="v" horiz-adv-x="433" 
d="M425 418l-206 -430h-10l-201 430h61l147 -333l150 333h59z" />
    <glyph glyph-name="w" unicode="w" horiz-adv-x="611" 
d="M593 418l-140 -430h-10l-134 324l-137 -324h-10l-141 430h60l94 -314l128 314h10l131 -314l90 314h59z" />
    <glyph glyph-name="x" unicode="x" horiz-adv-x="393" 
d="M381 0h-62l-121 169l-123 -169h-59l154 209l-153 209h63l120 -168l119 168h60l-152 -207z" />
    <glyph glyph-name="y" unicode="y" horiz-adv-x="427" 
d="M420 418l-295 -634h-56l118 244l-179 390h61l145 -334l146 334h60z" />
    <glyph glyph-name="z" unicode="z" horiz-adv-x="397" 
d="M376 408l-276 -360h270v-48h-352l-4 9l276 361h-256v48h338z" />
    <glyph glyph-name="braceleft" unicode="{" horiz-adv-x="296" 
d="M278 -223c-112 0 -168 57.665 -168 172.998v214c0 24.667 -4.83301 42.834 -14.5 54.501s-27.167 17.5 -52.5 17.5h-23v47h23c25.333 0 42.833 5.66699 52.5 17s14.5 29.666 14.5 54.999v211c0 116 56 174 168 174v-49c-38.667 0 -67.5 -9.66699 -86.5 -29
s-28.5 -50.666 -28.5 -93.999v-200c0 -31.333 -4.5 -55 -13.5 -71s-26.5 -28.667 -52.5 -38c26 -9.33301 43.5 -22 52.5 -38s13.5 -39.667 13.5 -71v-201c0 -43.333 9.5 -74.666 28.5 -93.999s47.833 -29 86.5 -29v-49z" />
    <glyph glyph-name="bar" unicode="|" horiz-adv-x="231" 
d="M140 -217h-50v949h50v-949z" />
    <glyph glyph-name="braceright" unicode="}" horiz-adv-x="296" 
d="M276 236l-23 0.00195312c-25.333 0 -42.833 -5.83301 -52.5 -17.5s-14.5 -29.834 -14.5 -54.501v-214c0 -115.333 -56 -173 -168 -173v49c39.333 0 68.5 9.66699 87.5 29s28.5 50.666 28.5 93.999v201c0 31.333 4.5 55 13.5 71s26.167 28.667 51.5 38
c-25.333 9.33301 -42.5 22 -51.5 38s-13.5 39.667 -13.5 71v200c0 43.333 -9.5 74.666 -28.5 93.999s-48.167 29 -87.5 29v49c112 0 168 -58 168 -174v-211c0 -25.333 4.83301 -43.666 14.5 -54.999s27.167 -17 52.5 -17h23v-47z" />
    <glyph glyph-name="asciitilde" unicode="~" horiz-adv-x="440" 
d="M370 378c-31.333 -37.333 -62.6641 -55.333 -93.9971 -54c-16.667 0 -37.334 7.33301 -62.001 22c-22 14 -39.333 21.333 -52 22c-20.667 0 -42.334 -13.667 -65.001 -41l-28 34c31.333 37.333 62.666 55.333 93.999 54c17.333 0 37.666 -7.33301 60.999 -22
c23.333 -14 41 -21.333 53 -22c20.667 0 42.334 13.667 65.001 41z" />
    <glyph glyph-name="uni00A0" unicode="&#xa0;" horiz-adv-x="224" 
 />
    <glyph glyph-name="exclamdown" unicode="&#xa1;" horiz-adv-x="203" 
d="M58 698c0 12.667 4.16699 23.167 12.5 31.5s18.833 12.5 31.5 12.5c12 0 22.167 -4.16699 30.5 -12.5s12.5 -18.833 12.5 -31.5c0 -12 -4.16699 -22.167 -12.5 -30.5s-18.5 -12.5 -30.5 -12.5c-12.667 0 -23.167 4.16699 -31.5 12.5s-12.5 18.5 -12.5 30.5zM72 1l8 551
h43l9 -551h-60z" />
    <glyph glyph-name="cent" unicode="&#xa2;" horiz-adv-x="438" 
d="M198 -81l6.00098 79c-49.333 10.667 -88.833 35 -118.5 73s-44.5 83 -44.5 135c0 58.667 18.833 108.667 56.5 150s84.5 64.333 140.5 69l6 75l47 -4l-6 -72c38.667 -3.33301 76.667 -16.666 114 -39.999l-25 -43c-34 19.333 -65 30.666 -93 33.999l-26 -334h4
c39.333 0 78.666 12 117.999 36l22 -43c-45.333 -28 -92.333 -42 -141 -42h-7l-6 -77zM95.001 208c0 -40 10.333 -74.168 31 -102.501s48 -47.5 82 -57.5l26 328c-41.333 -5.33301 -74.833 -23.166 -100.5 -53.499s-38.5 -68.5 -38.5 -114.5z" />
    <glyph glyph-name="sterling" unicode="&#xa3;" horiz-adv-x="435" 
d="M417 544l-27 -46c-38 25.333 -75.667 38 -113 38c-80 0 -120 -48.667 -120 -146v-80h146v-48h-146v-212h259v-50h-381v50h66v212h-63v8l63 43v82c0 57.333 15.833 103.5 47.5 138.5s76.834 52.5 135.501 52.5c43.333 0 87.666 -14 132.999 -42z" />
    <glyph glyph-name="yen" unicode="&#xa5;" horiz-adv-x="495" 
d="M468 577l-168 -266h138v-49h-162v-74h162v-48h-162v-140h-55v140h-164v48h164v74h-164v49h141l-171 266h64l159 -254l156 254h62z" />
    <glyph glyph-name="section" unicode="&#xa7;" horiz-adv-x="422" 
d="M377 286c0 -46 -25 -78.665 -75 -97.998c32.667 -20 49 -46.333 49 -79c0 -33.333 -13.667 -61.333 -41 -84s-63 -34 -107 -34c-54 0 -104 17.333 -150 52l27 40c16.667 -13.333 36.834 -24.5 60.501 -33.5s45.5 -13.5 65.5 -13.5c29.333 0 52 5.66699 68 17
s24 27.666 24 48.999c0 18 -8.33301 32.833 -25 44.5s-36.834 21 -60.501 28s-47.334 14.667 -71.001 23s-43.834 20.333 -60.501 36s-25 35.5 -25 59.5c0 22.667 7.33301 42.667 22 60s33.667 30 57 38c-34.667 19.333 -52 45.666 -52 78.999c0 32.667 14 60.167 42 82.5
s62.667 33.5 104 33.5c48.667 0 93.334 -14 134.001 -42l-25 -42c-35.333 26 -72 39 -110 39c-27.333 0 -49.333 -6.16699 -66 -18.5s-25 -28.166 -25 -47.499c0 -16 8.16699 -29.5 24.5 -40.5s36.333 -20.333 60 -28s47.334 -15.834 71.001 -24.501s43.667 -21 60 -37
s24.5 -35.667 24.5 -59zM326 279.002c0 21.333 -9.83398 37.668 -29.501 49.001s-56.834 25.333 -111.501 42c-21.333 -2.66699 -39.333 -10.5 -54 -23.5s-22 -28.167 -22 -45.5c0 -8 1.83301 -15.333 5.5 -22s8.33398 -12.334 14.001 -17.001s13.667 -9.33398 24 -14.001
s19.833 -8.5 28.5 -11.5s20.834 -7 36.501 -12s28.5 -9.5 38.5 -13.5c19.333 3.33301 35.833 11.333 49.5 24s20.5 27.334 20.5 44.001z" />
    <glyph glyph-name="dieresis" unicode="&#xa8;" horiz-adv-x="440" 
d="M348 543c0 -11.333 -4.16699 -21.166 -12.5 -29.499s-18.166 -12.5 -29.499 -12.5c-12 0 -22.167 4.16699 -30.5 12.5s-12.5 18.166 -12.5 29.499s4.16699 21.333 12.5 30s18.5 13 30.5 13c11.333 0 21.166 -4.33301 29.499 -13s12.5 -18.667 12.5 -30zM177 543
c0 -11.333 -4.16699 -21.166 -12.5 -29.499s-18.166 -12.5 -29.499 -12.5s-21.166 4.16699 -29.499 12.5s-12.5 18.166 -12.5 29.499s4.16699 21.333 12.5 30s18.166 13 29.499 13s21.166 -4.33301 29.499 -13s12.5 -18.667 12.5 -30z" />
    <glyph glyph-name="copyright" unicode="&#xa9;" horiz-adv-x="842" 
d="M792 366c0 -104.667 -36.167 -193.834 -108.5 -267.501s-159.833 -110.5 -262.5 -110.5s-190.167 36.833 -262.5 110.5s-108.5 162.834 -108.5 267.501s36.167 194 108.5 268s159.833 111 262.5 111s190.167 -37 262.5 -111s108.5 -163.333 108.5 -268zM744 366
c0 94 -31.5 173.667 -94.5 239s-139.167 98 -228.5 98s-165.333 -32.667 -228 -98s-94 -145 -94 -239c0 -93.333 31.333 -172.5 94 -237.5s138.667 -97.5 228 -97.5s165.5 32.5 228.5 97.5s94.5 144.167 94.5 237.5zM560 220c-38 -25.333 -79.332 -37.999 -123.999 -37.999
c-56 0 -102.5 17.333 -139.5 52s-55.5 80 -55.5 136c0 55.333 18.667 100.666 56 135.999s83.666 53 138.999 53c42.667 0 84 -12.333 124 -37l-17 -39c-36 22 -72 33 -108 33c-42 0 -76.5 -13.333 -103.5 -40s-40.5 -62 -40.5 -106s13.667 -79.167 41 -105.5
s62.333 -39.5 105 -39.5c36 0 71.667 11.333 107 34z" />
    <glyph glyph-name="ordfeminine" unicode="&#xaa;" horiz-adv-x="349" 
d="M297 429l-48.9971 0.000976562v33c-25.333 -25.333 -57 -38 -95 -38c-32.667 0 -59.834 8.66699 -81.501 26s-32.5 40.666 -32.5 69.999c0 28.667 11 52 33 70s49.333 27 82 27c29.333 0 60 -7.33301 92 -22v24c0 28 -6.83301 48.667 -20.5 62s-35.834 20 -66.501 20
c-26.667 0 -53.334 -5.33301 -80.001 -16l-8 42c32 11.333 63.667 17 95 17c87.333 0 131 -42 131 -126v-189zM246.003 500.001v57c-28 16 -55.667 24 -83 24c-22 0 -40 -5.16699 -54 -15.5s-21 -24.833 -21 -43.5c0 -19.333 7 -34 21 -44s32.667 -15 56 -15
c32.667 0 59.667 12.333 81 37z" />
    <glyph glyph-name="guillemotleft" unicode="&#xab;" horiz-adv-x="402" 
d="M357 9h-58l-105 164l105 163h58l-108 -163zM212 9h-58l-105 164l105 163h58l-108 -163z" />
    <glyph glyph-name="registered" unicode="&#xae;" horiz-adv-x="386" 
d="M140 489l-0.00195312 166.001c14 2 29 3 45 3c22.667 0 39.834 -5 51.501 -15s17.5 -22.333 17.5 -37c0 -24.667 -10.333 -41.334 -31 -50.001l43 -67h-33l-37 61c-3.33301 -0.666992 -7.66602 -1 -12.999 -1s-10.333 0.333008 -15 1v-61h-28zM167.998 632.001v-59
c4.66699 -0.666992 10.667 -1 18 -1c26 0 39 11 39 33c0 18.667 -12.333 28 -37 28c-10 0 -16.667 -0.333008 -20 -1zM192.998 424.001c39.333 0 72.8311 14.5 100.498 43.5s41.5 63.5 41.5 103.5c0 41.333 -13.833 76.333 -41.5 105s-61.167 43 -100.5 43
s-72.666 -14.5 -99.999 -43.5s-41 -63.833 -41 -104.5c0 -40 13.833 -74.5 41.5 -103.5s60.834 -43.5 99.501 -43.5zM192.996 400.001c-46.667 0 -86.334 16.6689 -119.001 50.002s-49 73.666 -49 120.999c0 48 16.333 88.833 49 122.5s72.334 50.5 119.001 50.5
s86.5 -17 119.5 -51s49.5 -74.667 49.5 -122c0 -46.667 -16.5 -86.834 -49.5 -120.501s-72.833 -50.5 -119.5 -50.5z" />
    <glyph glyph-name="macron" unicode="&#xaf;" horiz-adv-x="440" 
d="M364 512h-287v48h287v-48z" />
    <glyph glyph-name="degree" unicode="&#xb0;" horiz-adv-x="372" 
d="M293 583c0 -29.333 -10 -54 -30 -74s-45.667 -30 -77 -30c-30.667 0 -56 10 -76 30s-30 44.667 -30 74s10 54 30 74s45.333 30 76 30c31.333 0 57 -10 77 -30s30 -44.667 30 -74zM252 583c0 20 -6 36.5 -18 49.5s-28 19.5 -48 19.5c-19.333 0 -35.166 -6.5 -47.499 -19.5
s-18.5 -29.5 -18.5 -49.5s6.16699 -36.5 18.5 -49.5s28.166 -19.5 47.499 -19.5c20 0 36 6.5 48 19.5s18 29.5 18 49.5z" />
    <glyph glyph-name="acute" unicode="&#xb4;" horiz-adv-x="440" 
d="M322 574l-192 -99l-18 31l181 123z" />
    <glyph glyph-name="paragraph" unicode="&#xb6;" horiz-adv-x="558" 
d="M484 0h-52.001v529c-16 2 -43 3.66699 -81 5v-534h-52v164c-69.333 -4 -128.333 11.667 -177 47s-73 85 -73 149c0 68 26.167 122.667 78.5 164s123.5 62 213.5 62c40.667 0 88.334 -3.33301 143.001 -10v-576zM298.999 214v319
c-60.667 -4.66699 -107.5 -22.167 -140.5 -52.5s-49.5 -69.833 -49.5 -118.5c0 -49.333 18.833 -87.333 56.5 -114s82.167 -38 133.5 -34z" />
    <glyph glyph-name="periodcentered" unicode="&#xb7;" horiz-adv-x="222" 
d="M68 370c0 12 4.16699 22.167 12.5 30.5s18.5 12.5 30.5 12.5c12.667 0 23.167 -4.16699 31.5 -12.5s12.5 -18.5 12.5 -30.5c0 -12.667 -4.16699 -23.167 -12.5 -31.5s-18.833 -12.5 -31.5 -12.5c-12 0 -22.167 4.16699 -30.5 12.5s-12.5 18.833 -12.5 31.5z" />
    <glyph glyph-name="cedilla" unicode="&#xb8;" horiz-adv-x="440" 
d="M332 -150c0 -24.667 -9 -45.332 -27 -61.999s-43 -25 -75 -25c-30.667 0 -66 11 -106 33l18 36c34.667 -19.333 64 -29 88 -29c17.333 0 30.833 4 40.5 12s14.5 19 14.5 33c0 35.333 -33.667 56.333 -101 63l-3 6l26 97l37 -9l-16 -60
c35.333 -7.33301 61.5 -19.333 78.5 -36s25.5 -36.334 25.5 -59.001z" />
    <glyph glyph-name="ordmasculine" unicode="&#xba;" horiz-adv-x="380" 
d="M347 583c0 -45.333 -14.833 -83.5 -44.5 -114.5s-67.167 -46.5 -112.5 -46.5c-46 0 -83.5 15.5 -112.5 46.5s-43.5 69.167 -43.5 114.5s14.5 83.5 43.5 114.5s66.5 46.5 112.5 46.5s83.667 -15.5 113 -46.5s44 -69.167 44 -114.5zM296 583
c0 34.667 -9.66797 63 -29.001 85s-45 33 -77 33c-31.333 0 -56.666 -11 -75.999 -33s-29 -50.333 -29 -85s9.5 -63 28.5 -85s44.5 -33 76.5 -33c31.333 0 56.833 11.167 76.5 33.5s29.5 50.5 29.5 84.5z" />
    <glyph glyph-name="guillemotright" unicode="&#xbb;" horiz-adv-x="402" 
d="M353 173l-105 -164h-58l108 164l-108 163h58zM208 173l-105 -164h-58l108 164l-108 163h58z" />
    <glyph glyph-name="questiondown" unicode="&#xbf;" horiz-adv-x="384" 
d="M26 160c0 27.333 6.66699 52.4971 20 75.4971s29.333 42.667 48 59l56 47c18.667 15 34.667 31.833 48 50.5s20 38.334 20 59.001v80h52v-91c0 -23.333 -6.5 -45.166 -19.5 -65.499s-28.667 -38.166 -47 -53.499l-55 -45.5c-18.333 -15 -34 -32.167 -47 -51.5
s-19.5 -40 -19.5 -62c0 -35.333 12 -63.5 36 -84.5s58.333 -31.5 103 -31.5c40 0 82 11.333 126 34l16 -49c-54 -25.333 -102.667 -38 -146 -38c-61.333 0 -108.5 15.667 -141.5 47s-49.5 71.333 -49.5 120zM200 697.997c0 12.667 4.16699 23.167 12.5 31.5
s18.833 12.5 31.5 12.5c12 0 22.167 -4.16699 30.5 -12.5s12.5 -18.833 12.5 -31.5c0 -12 -4.16699 -22.167 -12.5 -30.5s-18.5 -12.5 -30.5 -12.5c-12.667 0 -23.167 4.16699 -31.5 12.5s-12.5 18.5 -12.5 30.5z" />
    <glyph glyph-name="Agrave" unicode="&#xc0;" horiz-adv-x="696" 
d="M674 0h-60l-95 224h-344l-94 -224h-59l321 745h10zM498 272l-151 359l-151 -359h302zM389 825l-19 -30l-192 99l31 54z" />
    <glyph glyph-name="Aacute" unicode="&#xc1;" horiz-adv-x="696" 
d="M674 0h-60l-95 224h-344l-94 -224h-59l321 745h10zM498 272l-151 359l-151 -359h302zM513 894l-192 -99l-18 31l181 123z" />
    <glyph glyph-name="Acircumflex" unicode="&#xc2;" horiz-adv-x="696" 
d="M674 0h-60l-95 224h-344l-94 -224h-59l321 745h10zM498 272l-151 359l-151 -359h302zM483 807h-59l-79 98l-75 -98h-58l121 149h30z" />
    <glyph glyph-name="Atilde" unicode="&#xc3;" horiz-adv-x="696" 
d="M674 0h-60l-95 224h-344l-94 -224h-59l321 745h10zM498 272l-151 359l-151 -359h302zM500 871c-31.333 -37.333 -62.6641 -55.333 -93.9971 -54c-16.667 0 -37.334 7.33301 -62.001 22c-22 14 -39.333 21.333 -52 22c-20.667 0 -42.334 -13.667 -65.001 -41l-28 34
c31.333 37.333 62.666 55.333 93.999 54c17.333 0 37.666 -7.33301 60.999 -22c23.333 -14 41 -21.333 53 -22c20.667 0 42.334 13.667 65.001 41z" />
    <glyph glyph-name="Adieresis" unicode="&#xc4;" horiz-adv-x="696" 
d="M674 0h-60l-95 224h-344l-94 -224h-59l321 745h10zM498 272l-151 359l-151 -359h302zM475 863c0 -11.333 -4.16699 -21.166 -12.5 -29.499s-18.166 -12.5 -29.499 -12.5c-12 0 -22.167 4.16699 -30.5 12.5s-12.5 18.166 -12.5 29.499s4.16699 21.333 12.5 30
s18.5 13 30.5 13c11.333 0 21.166 -4.33301 29.499 -13s12.5 -18.667 12.5 -30zM304 863c0 -11.333 -4.16699 -21.166 -12.5 -29.499s-18.166 -12.5 -29.499 -12.5s-21.166 4.16699 -29.499 12.5s-12.5 18.166 -12.5 29.499s4.16699 21.333 12.5 30s18.166 13 29.499 13
s21.166 -4.33301 29.499 -13s12.5 -18.667 12.5 -30z" />
    <glyph glyph-name="Aring" unicode="&#xc5;" horiz-adv-x="696" 
d="M451 811c0 -25.333 -7.66797 -47.168 -23.001 -65.501s-35.666 -29.833 -60.999 -34.5l307 -711h-60l-95 224h-344l-94 -224h-59l306 712c-24.667 4 -44.667 15.333 -60 34s-23 40.334 -23 65.001c0 28.667 9.66699 52.667 29 72s44 29 74 29
c30.667 0 55.5 -9.66699 74.5 -29s28.5 -43.333 28.5 -72zM497.999 271.998l-151 359l-151 -359h302zM409.999 811.998c0 18.667 -5.83301 34.167 -17.5 46.5s-26.5 18.5 -44.5 18.5c-17.333 0 -31.833 -6.16699 -43.5 -18.5s-17.5 -27.833 -17.5 -46.5
c0 -19.333 5.83301 -35.166 17.5 -47.499s26.167 -18.5 43.5 -18.5c18 0 32.833 6.16699 44.5 18.5s17.5 28.166 17.5 47.499z" />
    <glyph glyph-name="AE" unicode="&#xc6;" horiz-adv-x="1020" 
d="M958 0h-414v241h-288l-171 -241h-66l527 733h412v-50h-357v-286h322v-50h-322v-296h357v-51zM544 289v357l-254 -357h254z" />
    <glyph glyph-name="Ccedilla" unicode="&#xc7;" horiz-adv-x="740" 
d="M537 -150c0 -24.667 -9 -45.3311 -27 -61.998s-43 -25 -75 -25c-30.667 0 -66 11 -106 33l18 36c34.667 -19.333 64 -29 88 -29c17.333 0 30.833 4 40.5 12s14.5 19 14.5 33c0 35.333 -33.667 56.333 -101 63l-3 6l20 75c-100 8 -183 45.833 -249 113.5
s-99 154.167 -99 259.5c0 112 37.167 203.333 111.5 274s165.166 106 272.499 106c92 0 177 -26.667 255 -80l-25 -47c-76 50 -153.667 75 -233 75c-91.333 0 -167.5 -30.167 -228.5 -90.5s-91.5 -139.166 -91.5 -236.499c0 -96.667 30.833 -174.834 92.5 -234.501
s138.5 -89.5 230.5 -89.5c78.667 0 156.334 24.667 233.001 74l20 -46c-78.667 -52.667 -162 -79.334 -250 -80.001l-12 -45c35.333 -7.33301 61.5 -19.333 78.5 -36s25.5 -36.334 25.5 -59.001z" />
    <glyph glyph-name="Egrave" unicode="&#xc8;" horiz-adv-x="563" 
d="M501 0h-414v733h414v-50h-358v-286h323v-50h-323v-296h358v-51zM336 825l-19 -30l-192 99l31 54z" />
    <glyph glyph-name="Eacute" unicode="&#xc9;" horiz-adv-x="563" 
d="M460 894l-192 -99l-18 31l181 123zM501 0h-414v733h414v-50h-358v-286h323v-50h-323v-296h358v-51z" />
    <glyph glyph-name="Ecircumflex" unicode="&#xca;" horiz-adv-x="563" 
d="M430 807h-59l-79 98l-75 -98h-58l121 149h30zM501 0h-414v733h414v-50h-358v-286h323v-50h-323v-296h358v-51z" />
    <glyph glyph-name="Edieresis" unicode="&#xcb;" horiz-adv-x="563" 
d="M422 863c0 -11.333 -4.16699 -21.166 -12.5 -29.499s-18.166 -12.5 -29.499 -12.5c-12 0 -22.167 4.16699 -30.5 12.5s-12.5 18.166 -12.5 29.499s4.16699 21.333 12.5 30s18.5 13 30.5 13c11.333 0 21.166 -4.33301 29.499 -13s12.5 -18.667 12.5 -30zM251 863
c0 -11.333 -4.16699 -21.166 -12.5 -29.499s-18.166 -12.5 -29.499 -12.5s-21.166 4.16699 -29.499 12.5s-12.5 18.166 -12.5 29.499s4.16699 21.333 12.5 30s18.166 13 29.499 13s21.166 -4.33301 29.499 -13s12.5 -18.667 12.5 -30zM501 0h-414v733h414v-50h-358v-286h323
v-50h-323v-296h358v-51z" />
    <glyph glyph-name="Igrave" unicode="&#xcc;" horiz-adv-x="237" 
d="M147 0h-56v733h56v-733zM160 825l-19 -30l-192 99l31 54z" />
    <glyph glyph-name="Iacute" unicode="&#xcd;" horiz-adv-x="237" 
d="M147 0h-56v733h56v-733zM284 894l-192 -99l-18 31l181 123z" />
    <glyph glyph-name="Icircumflex" unicode="&#xce;" horiz-adv-x="237" 
d="M147 0h-56v733h56v-733zM254 807h-59l-79 98l-75 -98h-58l121 149h30z" />
    <glyph glyph-name="Idieresis" unicode="&#xcf;" horiz-adv-x="237" 
d="M147 0h-56v733h56v-733zM246 863c0 -11.333 -4.16699 -21.166 -12.5 -29.499s-18.166 -12.5 -29.499 -12.5c-12 0 -22.167 4.16699 -30.5 12.5s-12.5 18.166 -12.5 29.499s4.16699 21.333 12.5 30s18.5 13 30.5 13c11.333 0 21.166 -4.33301 29.499 -13
s12.5 -18.667 12.5 -30zM75 863c0 -11.333 -4.16699 -21.166 -12.5 -29.499s-18.166 -12.5 -29.499 -12.5s-21.166 4.16699 -29.499 12.5s-12.5 18.166 -12.5 29.499s4.16699 21.333 12.5 30s18.166 13 29.499 13s21.166 -4.33301 29.499 -13s12.5 -18.667 12.5 -30z" />
    <glyph glyph-name="Eth" unicode="&#xd0;" horiz-adv-x="770" 
d="M712 373c0 -106.667 -36.333 -196.667 -109 -270s-174 -110 -304 -110c-61.333 0 -122 4 -182 12v343h-87v50h87v330c60 8 119.333 12 178 12c66 0 126 -10.167 180 -30.5s97.833 -47.833 131.5 -82.5s59.667 -73.667 78 -117s27.5 -89 27.5 -137zM652 373
c0 91.333 -31.333 167.167 -94 227.5s-149.667 90.5 -261 90.5c-52 0 -93.333 -2.66699 -124 -8v-285h136v-50h-136v-298c33.333 -5.33301 76.333 -8 129 -8c112 0 198.333 30.833 259 92.5s91 141.167 91 238.5z" />
    <glyph glyph-name="Ntilde" unicode="&#xd1;" horiz-adv-x="727" 
d="M640 -9l-10 -2l-488 622v-611h-55v741l13 3l484 -615v604h56v-742zM515 858c-31.333 -37.333 -62.6641 -55.333 -93.9971 -54c-16.667 0 -37.334 7.33301 -62.001 22c-22 14 -39.333 21.333 -52 22c-20.667 0 -42.334 -13.667 -65.001 -41l-28 34
c31.333 37.333 62.666 55.333 93.999 54c17.333 0 37.666 -7.33301 60.999 -22c23.333 -14 41 -21.333 53 -22c20.667 0 42.334 13.667 65.001 41z" />
    <glyph glyph-name="Ograve" unicode="&#xd2;" horiz-adv-x="842" 
d="M784 366c0 -107.333 -35.333 -196.832 -106 -268.499s-157 -107.5 -259 -107.5c-101.333 0 -186.833 35.833 -256.5 107.5s-104.5 161.167 -104.5 268.5s35.333 197.166 106 269.499s157 108.5 259 108.5c101.333 0 186.833 -36 256.5 -108s104.5 -162 104.5 -270z
M723 366.001c0 93.333 -28.5 171.166 -85.5 233.499s-129.167 93.5 -216.5 93.5s-159.5 -31.167 -216.5 -93.5s-85.5 -140.166 -85.5 -233.499c0 -92.667 28.5 -170.167 85.5 -232.5s129.167 -93.5 216.5 -93.5s159.5 31.167 216.5 93.5s85.5 139.833 85.5 232.5z
M462 825.001l-19 -30l-192 99l31 54z" />
    <glyph glyph-name="Oacute" unicode="&#xd3;" horiz-adv-x="842" 
d="M586 894l-192 -99l-18 31l181 123zM784 366c0 -107.333 -35.333 -196.832 -106 -268.499s-157 -107.5 -259 -107.5c-101.333 0 -186.833 35.833 -256.5 107.5s-104.5 161.167 -104.5 268.5s35.333 197.166 106 269.499s157 108.5 259 108.5
c101.333 0 186.833 -36 256.5 -108s104.5 -162 104.5 -270zM723 366.001c0 93.333 -28.5 171.166 -85.5 233.499s-129.167 93.5 -216.5 93.5s-159.5 -31.167 -216.5 -93.5s-85.5 -140.166 -85.5 -233.499c0 -92.667 28.5 -170.167 85.5 -232.5s129.167 -93.5 216.5 -93.5
s159.5 31.167 216.5 93.5s85.5 139.833 85.5 232.5z" />
    <glyph glyph-name="Ocircumflex" unicode="&#xd4;" horiz-adv-x="842" 
d="M556 807h-59l-79 98l-75 -98h-58l121 149h30zM784 366c0 -107.333 -35.333 -196.832 -106 -268.499s-157 -107.5 -259 -107.5c-101.333 0 -186.833 35.833 -256.5 107.5s-104.5 161.167 -104.5 268.5s35.333 197.166 106 269.499s157 108.5 259 108.5
c101.333 0 186.833 -36 256.5 -108s104.5 -162 104.5 -270zM723 366.001c0 93.333 -28.5 171.166 -85.5 233.499s-129.167 93.5 -216.5 93.5s-159.5 -31.167 -216.5 -93.5s-85.5 -140.166 -85.5 -233.499c0 -92.667 28.5 -170.167 85.5 -232.5s129.167 -93.5 216.5 -93.5
s159.5 31.167 216.5 93.5s85.5 139.833 85.5 232.5z" />
    <glyph glyph-name="Otilde" unicode="&#xd5;" horiz-adv-x="842" 
d="M784 366c0 -107.333 -35.333 -196.832 -106 -268.499s-157 -107.5 -259 -107.5c-101.333 0 -186.833 35.833 -256.5 107.5s-104.5 161.167 -104.5 268.5s35.333 197.166 106 269.499s157 108.5 259 108.5c101.333 0 186.833 -36 256.5 -108s104.5 -162 104.5 -270z
M723 366.001c0 93.333 -28.5 171.166 -85.5 233.499s-129.167 93.5 -216.5 93.5s-159.5 -31.167 -216.5 -93.5s-85.5 -140.166 -85.5 -233.499c0 -92.667 28.5 -170.167 85.5 -232.5s129.167 -93.5 216.5 -93.5s159.5 31.167 216.5 93.5s85.5 139.833 85.5 232.5z
M573 871.001c-31.333 -37.333 -62.6641 -55.333 -93.9971 -54c-16.667 0 -37.334 7.33301 -62.001 22c-22 14 -39.333 21.333 -52 22c-20.667 0 -42.334 -13.667 -65.001 -41l-28 34c31.333 37.333 62.666 55.333 93.999 54c17.333 0 37.666 -7.33301 60.999 -22
c23.333 -14 41 -21.333 53 -22c20.667 0 42.334 13.667 65.001 41z" />
    <glyph glyph-name="Odieresis" unicode="&#xd6;" horiz-adv-x="842" 
d="M548 863c0 -11.333 -4.16699 -21.166 -12.5 -29.499s-18.166 -12.5 -29.499 -12.5c-12 0 -22.167 4.16699 -30.5 12.5s-12.5 18.166 -12.5 29.499s4.16699 21.333 12.5 30s18.5 13 30.5 13c11.333 0 21.166 -4.33301 29.499 -13s12.5 -18.667 12.5 -30zM377 863
c0 -11.333 -4.16699 -21.166 -12.5 -29.499s-18.166 -12.5 -29.499 -12.5s-21.166 4.16699 -29.499 12.5s-12.5 18.166 -12.5 29.499s4.16699 21.333 12.5 30s18.166 13 29.499 13s21.166 -4.33301 29.499 -13s12.5 -18.667 12.5 -30zM784 366
c0 -107.333 -35.333 -196.832 -106 -268.499s-157 -107.5 -259 -107.5c-101.333 0 -186.833 35.833 -256.5 107.5s-104.5 161.167 -104.5 268.5s35.333 197.166 106 269.499s157 108.5 259 108.5c101.333 0 186.833 -36 256.5 -108s104.5 -162 104.5 -270zM723 366.001
c0 93.333 -28.5 171.166 -85.5 233.499s-129.167 93.5 -216.5 93.5s-159.5 -31.167 -216.5 -93.5s-85.5 -140.166 -85.5 -233.499c0 -92.667 28.5 -170.167 85.5 -232.5s129.167 -93.5 216.5 -93.5s159.5 31.167 216.5 93.5s85.5 139.833 85.5 232.5z" />
    <glyph glyph-name="multiply" unicode="&#xd7;" horiz-adv-x="450" 
d="M70 401l34 35l121 -121l121 121l34 -35l-121 -121l121 -120l-34 -35l-121 121l-121 -121l-34 35l120 120z" />
    <glyph glyph-name="Oslash" unicode="&#xd8;" horiz-adv-x="842" 
d="M784 366c0 -107.333 -35.333 -196.834 -106 -268.501s-157 -107.5 -259 -107.5c-92 0 -172 30.333 -240 91l-83 -87l-34 35c3.33301 4 8 8.83301 14 14.5s15.167 14.834 27.5 27.501l30.5 31l12 13c-58.667 70.667 -88 154.334 -88 251.001
c0 107.333 35.333 197.166 106 269.499s157 108.5 259 108.5c92.667 0 172.667 -31 240 -93l84 88l34 -34l-85 -88c58.667 -69.333 88 -153 88 -251zM625 611.999c-56 54 -124 80.999 -204 80.999c-87.333 0 -159.5 -31.167 -216.5 -93.5s-85.5 -140.166 -85.5 -233.499
c0 -81.333 22.333 -151 67 -209zM723 365.998c0 82 -22.333 152 -67 210l-110 -114l-219 -228l-110 -114c56.667 -53.333 124.667 -80 204 -80c87.333 0 159.5 31.167 216.5 93.5s85.5 139.833 85.5 232.5z" />
    <glyph glyph-name="Ugrave" unicode="&#xd9;" horiz-adv-x="708" 
d="M628 266c0 -85.333 -24.999 -152.667 -74.999 -202s-116.667 -74 -200 -74c-85.333 0 -152 24 -200 72s-72 116 -72 204v467h56v-466c0 -73.333 19.167 -129.333 57.5 -168s91.166 -58 158.499 -58c66.667 0 119.667 19.5 159 58.5s59 94.833 59 167.5v466h57v-467z
M396.001 811.999l-19 -30l-192 99l31 54z" />
    <glyph glyph-name="Uacute" unicode="&#xda;" horiz-adv-x="708" 
d="M628 266c0 -85.333 -24.999 -152.667 -74.999 -202s-116.667 -74 -200 -74c-85.333 0 -152 24 -200 72s-72 116 -72 204v467h56v-466c0 -73.333 19.167 -129.333 57.5 -168s91.166 -58 158.499 -58c66.667 0 119.667 19.5 159 58.5s59 94.833 59 167.5v466h57v-467z
M520.001 880.999l-192 -99l-18 31l181 123z" />
    <glyph glyph-name="Ucircumflex" unicode="&#xdb;" horiz-adv-x="708" 
d="M628 266c0 -85.333 -24.999 -152.667 -74.999 -202s-116.667 -74 -200 -74c-85.333 0 -152 24 -200 72s-72 116 -72 204v467h56v-466c0 -73.333 19.167 -129.333 57.5 -168s91.166 -58 158.499 -58c66.667 0 119.667 19.5 159 58.5s59 94.833 59 167.5v466h57v-467z
M490.001 793.999h-59l-79 98l-75 -98h-58l121 149h30z" />
    <glyph glyph-name="Udieresis" unicode="&#xdc;" horiz-adv-x="708" 
d="M628 266c0 -85.333 -24.999 -152.667 -74.999 -202s-116.667 -74 -200 -74c-85.333 0 -152 24 -200 72s-72 116 -72 204v467h56v-466c0 -73.333 19.167 -129.333 57.5 -168s91.166 -58 158.499 -58c66.667 0 119.667 19.5 159 58.5s59 94.833 59 167.5v466h57v-467z
M482.001 849.999c0 -11.333 -4.16699 -21.166 -12.5 -29.499s-18.166 -12.5 -29.499 -12.5c-12 0 -22.167 4.16699 -30.5 12.5s-12.5 18.166 -12.5 29.499s4.16699 21.333 12.5 30s18.5 13 30.5 13c11.333 0 21.166 -4.33301 29.499 -13s12.5 -18.667 12.5 -30z
M311.001 849.999c0 -11.333 -4.16699 -21.166 -12.5 -29.499s-18.166 -12.5 -29.499 -12.5s-21.166 4.16699 -29.499 12.5s-12.5 18.166 -12.5 29.499s4.16699 21.333 12.5 30s18.166 13 29.499 13s21.166 -4.33301 29.499 -13s12.5 -18.667 12.5 -30z" />
    <glyph glyph-name="Yacute" unicode="&#xdd;" horiz-adv-x="626" 
d="M597 733l-256 -404v-329h-56v330l-256 403h63l223 -356l220 356h62zM478 881l-192 -99l-18 31l181 123z" />
    <glyph glyph-name="Thorn" unicode="&#xde;" horiz-adv-x="555" 
d="M520 376c0 -74.667 -25.667 -135.166 -77 -181.499s-121.333 -69.5 -210 -69.5c-26.667 0 -56.667 2 -90 6v-131h-56v733h56v-127c27.333 2.66699 59 4 95 4c90 0 159.5 -22.333 208.5 -67s73.5 -100.334 73.5 -167.001zM460 373.001c0 52 -19 96.001 -57 132.001
s-91 54 -159 54c-32 0 -65.667 -2.33301 -101 -7v-370c40.667 -4.66699 71.334 -7 92.001 -7c71.333 0 126.666 18.167 165.999 54.5s59 84.166 59 143.499z" />
    <glyph glyph-name="germandbls" unicode="&#xdf;" horiz-adv-x="468" 
d="M434 408l-149.999 -188c48.667 -2.66699 86.5 -17.5 113.5 -44.5s40.5 -60.833 40.5 -101.5c0 -52.667 -18.167 -93.834 -54.5 -123.501s-82.833 -44.5 -139.5 -44.5c-24 0 -46.333 2.33301 -67 7l7 48c20 -4 39.667 -6 59 -6c44 0 78.5 10.333 103.5 31
s37.5 49.334 37.5 86.001c0 32 -11.667 57.667 -35 77s-56.333 29 -99 29c-14.667 0 -29.334 -1 -44.001 -3l-5 12l144 182h-223v-369h-55v555c0 60.667 12.833 106.667 38.5 138s62.5 47 110.5 47c26 0 47.333 -3.33301 64 -10l-10 -48c-14.667 5.33301 -31 8 -49 8
c-34 0 -59 -10 -75 -30s-24 -52.667 -24 -98v-144h308z" />
    <glyph glyph-name="agrave" unicode="&#xe0;" horiz-adv-x="433" 
d="M376 0h-52.001v45c-35.333 -35.333 -79.333 -53 -132 -53c-44 0 -80.667 11.667 -110 35s-44 55.333 -44 96c0 38.667 14.833 70.167 44.5 94.5s66.834 36.5 111.501 36.5c39.333 0 81.666 -10.667 126.999 -32v38c0 40 -9.5 69.5 -28.5 88.5s-49.833 28.5 -92.5 28.5
c-37.333 0 -73.666 -7.66699 -108.999 -23l-11 48c43.333 16 85.333 24 126 24c113.333 0 170 -55.333 170 -166v-260zM320.999 93v82c-41.333 23.333 -81.333 35 -120 35c-32.667 0 -59.167 -7.5 -79.5 -22.5s-30.5 -36.5 -30.5 -64.5c0 -27.333 10 -48.333 30 -63
s47.333 -22 82 -22c48 0 87.333 18.333 118 55zM261.999 505l-19 -30l-192 99l31 54z" />
    <glyph glyph-name="aacute" unicode="&#xe1;" horiz-adv-x="433" 
d="M376 0h-52.001v45c-35.333 -35.333 -79.333 -53 -132 -53c-44 0 -80.667 11.667 -110 35s-44 55.333 -44 96c0 38.667 14.833 70.167 44.5 94.5s66.834 36.5 111.501 36.5c39.333 0 81.666 -10.667 126.999 -32v38c0 40 -9.5 69.5 -28.5 88.5s-49.833 28.5 -92.5 28.5
c-37.333 0 -73.666 -7.66699 -108.999 -23l-11 48c43.333 16 85.333 24 126 24c113.333 0 170 -55.333 170 -166v-260zM320.999 93v82c-41.333 23.333 -81.333 35 -120 35c-32.667 0 -59.167 -7.5 -79.5 -22.5s-30.5 -36.5 -30.5 -64.5c0 -27.333 10 -48.333 30 -63
s47.333 -22 82 -22c48 0 87.333 18.333 118 55zM384.999 574l-192 -99l-18 31l181 123z" />
    <glyph glyph-name="acircumflex" unicode="&#xe2;" horiz-adv-x="433" 
d="M376 0h-52.001v45c-35.333 -35.333 -79.333 -53 -132 -53c-44 0 -80.667 11.667 -110 35s-44 55.333 -44 96c0 38.667 14.833 70.167 44.5 94.5s66.834 36.5 111.501 36.5c39.333 0 81.666 -10.667 126.999 -32v38c0 40 -9.5 69.5 -28.5 88.5s-49.833 28.5 -92.5 28.5
c-37.333 0 -73.666 -7.66699 -108.999 -23l-11 48c43.333 16 85.333 24 126 24c113.333 0 170 -55.333 170 -166v-260zM320.999 93v82c-41.333 23.333 -81.333 35 -120 35c-32.667 0 -59.167 -7.5 -79.5 -22.5s-30.5 -36.5 -30.5 -64.5c0 -27.333 10 -48.333 30 -63
s47.333 -22 82 -22c48 0 87.333 18.333 118 55zM354.999 487h-59l-79 98l-75 -98h-58l121 149h30z" />
    <glyph glyph-name="atilde" unicode="&#xe3;" horiz-adv-x="433" 
d="M376 0h-52.001v45c-35.333 -35.333 -79.333 -53 -132 -53c-44 0 -80.667 11.667 -110 35s-44 55.333 -44 96c0 38.667 14.833 70.167 44.5 94.5s66.834 36.5 111.501 36.5c39.333 0 81.666 -10.667 126.999 -32v38c0 40 -9.5 69.5 -28.5 88.5s-49.833 28.5 -92.5 28.5
c-37.333 0 -73.666 -7.66699 -108.999 -23l-11 48c43.333 16 85.333 24 126 24c113.333 0 170 -55.333 170 -166v-260zM320.999 93v82c-41.333 23.333 -81.333 35 -120 35c-32.667 0 -59.167 -7.5 -79.5 -22.5s-30.5 -36.5 -30.5 -64.5c0 -27.333 10 -48.333 30 -63
s47.333 -22 82 -22c48 0 87.333 18.333 118 55zM371.999 551c-31.333 -37.333 -62.6641 -55.333 -93.9971 -54c-16.667 0 -37.334 7.33301 -62.001 22c-22 14 -39.333 21.333 -52 22c-20.667 0 -42.334 -13.667 -65.001 -41l-28 34c31.333 37.333 62.666 55.333 93.999 54
c17.333 0 37.666 -7.33301 60.999 -22c23.333 -14 41 -21.333 53 -22c20.667 0 42.334 13.667 65.001 41z" />
    <glyph glyph-name="adieresis" unicode="&#xe4;" horiz-adv-x="433" 
d="M376 0h-52.001v45c-35.333 -35.333 -79.333 -53 -132 -53c-44 0 -80.667 11.667 -110 35s-44 55.333 -44 96c0 38.667 14.833 70.167 44.5 94.5s66.834 36.5 111.501 36.5c39.333 0 81.666 -10.667 126.999 -32v38c0 40 -9.5 69.5 -28.5 88.5s-49.833 28.5 -92.5 28.5
c-37.333 0 -73.666 -7.66699 -108.999 -23l-11 48c43.333 16 85.333 24 126 24c113.333 0 170 -55.333 170 -166v-260zM320.999 93v82c-41.333 23.333 -81.333 35 -120 35c-32.667 0 -59.167 -7.5 -79.5 -22.5s-30.5 -36.5 -30.5 -64.5c0 -27.333 10 -48.333 30 -63
s47.333 -22 82 -22c48 0 87.333 18.333 118 55zM347.999 543c0 -11.333 -4.16699 -21.166 -12.5 -29.499s-18.166 -12.5 -29.499 -12.5c-12 0 -22.167 4.16699 -30.5 12.5s-12.5 18.166 -12.5 29.499s4.16699 21.333 12.5 30s18.5 13 30.5 13
c11.333 0 21.166 -4.33301 29.499 -13s12.5 -18.667 12.5 -30zM176.999 543c0 -11.333 -4.16699 -21.166 -12.5 -29.499s-18.166 -12.5 -29.499 -12.5s-21.166 4.16699 -29.499 12.5s-12.5 18.166 -12.5 29.499s4.16699 21.333 12.5 30s18.166 13 29.499 13
s21.166 -4.33301 29.499 -13s12.5 -18.667 12.5 -30z" />
    <glyph glyph-name="aring" unicode="&#xe5;" horiz-adv-x="433" 
d="M376 0h-52.001v45c-35.333 -35.333 -79.333 -53 -132 -53c-44 0 -80.667 11.667 -110 35s-44 55.333 -44 96c0 38.667 14.833 70.167 44.5 94.5s66.834 36.5 111.501 36.5c39.333 0 81.666 -10.667 126.999 -32v38c0 40 -9.5 69.5 -28.5 88.5s-49.833 28.5 -92.5 28.5
c-37.333 0 -73.666 -7.66699 -108.999 -23l-11 48c43.333 16 85.333 24 126 24c113.333 0 170 -55.333 170 -166v-260zM322.999 586c0 -28.667 -9.5 -52.667 -28.5 -72s-43.833 -29 -74.5 -29c-30 0 -54.667 9.66699 -74 29s-29 43.333 -29 72c0 28 9.66699 51.833 29 71.5
s44 29.5 74 29.5s54.667 -9.83301 74 -29.5s29 -43.5 29 -71.5zM320.999 93v82c-41.333 23.333 -81.333 35 -120 35c-32.667 0 -59.167 -7.5 -79.5 -22.5s-30.5 -36.5 -30.5 -64.5c0 -27.333 10 -48.333 30 -63s47.333 -22 82 -22c48 0 87.333 18.333 118 55zM281.999 586
c0 19.333 -5.83301 35.168 -17.5 47.501s-26.5 18.5 -44.5 18.5c-17.333 0 -31.833 -6.16699 -43.5 -18.5s-17.5 -28.166 -17.5 -47.499c0 -18.667 5.83301 -34.334 17.5 -47.001s26.167 -19 43.5 -19c18 0 32.833 6.16699 44.5 18.5s17.5 28.166 17.5 47.499z" />
    <glyph glyph-name="ae" unicode="&#xe6;" horiz-adv-x="738" 
d="M321 222l-0.00292969 38c0 40 -9.33301 69.5 -28 88.5s-49.667 28.5 -93 28.5c-37.333 0 -73.666 -7.66699 -108.999 -23l-11 48c43.333 16 85.666 24 126.999 24c82 0 132.333 -30 151 -90c35.333 60 89 90 161 90c56.667 0 100.834 -18.667 132.501 -56
s47.5 -85.333 47.5 -144c0 -12.667 -0.333008 -22.334 -1 -29.001h-323c2.66699 -47.333 18.167 -85.166 46.5 -113.499s69.833 -42.5 124.5 -42.5c37.333 0 76.666 8.33301 117.999 25c0.666992 -2 1.33398 -4.66699 2.00098 -8s2 -8.5 4 -15.5s3.33301 -12.5 4 -16.5l2 -7
c-47.333 -18 -91.666 -27 -132.999 -27c-94 0 -157.667 34.667 -191 104c-16 -33.333 -39 -59 -69 -77s-63.333 -27 -100 -27c-40.667 0 -75 11.833 -103 35.5s-42 55.5 -42 95.5c0 38.667 14.833 70.167 44.5 94.5s66.5 36.5 110.5 36.5
c42.667 0 85.334 -10.667 128.001 -32zM646.997 241c-2.66699 40.667 -15 73.667 -37 99s-53.667 38 -95 38c-39.333 0 -71 -12.333 -95 -37s-38.333 -58 -43 -100h270zM324.997 168c-36.667 28 -78 42 -124 42c-32.667 0 -59.167 -7.5 -79.5 -22.5s-30.5 -36.5 -30.5 -64.5
c0 -27.333 9.33301 -48.333 28 -63s43.667 -22 75 -22c32 0 60.5 10.667 85.5 32s40.167 54 45.5 98z" />
    <glyph glyph-name="ccedilla" unicode="&#xe7;" horiz-adv-x="424" 
d="M342 -150c0 -24.667 -9 -45.332 -27 -61.999s-43 -25 -75 -25c-30.667 0 -66 11 -106 33l18 36c34.667 -19.333 64 -29 88 -29c17.333 0 30.833 4 40.5 12s14.5 19 14.5 33c0 35.333 -33.667 56.333 -101 63l-3 6l21 80c-50.667 10 -91.667 34.5 -123 73.5
s-47 84.5 -47 136.5c0 60.667 20.667 112.334 62 155.001s93.666 64 156.999 64c48.667 0 95 -14 139 -42l-25 -43c-38 24 -77 36 -117 36c-47.333 0 -86.166 -15.5 -116.499 -46.5s-45.5 -71.5 -45.5 -121.5c0 -48.667 15.833 -88.834 47.5 -120.501
s70.5 -47.5 116.5 -47.5c40 0 79.333 12 118 36l22 -43c-44 -28 -90.333 -42 -139 -42h-11l-12 -47c35.333 -7.33301 61.5 -19.333 78.5 -36s25.5 -36.334 25.5 -59.001z" />
    <glyph glyph-name="egrave" unicode="&#xe8;" horiz-adv-x="461" 
d="M422 224c0 -11.333 -0.670898 -20.333 -2.00391 -27h-323c2.66699 -47.333 18.167 -85.166 46.5 -113.499s69.833 -42.5 124.5 -42.5c37.333 0 77 8.33301 119 25c0.666992 -2 1.33398 -4.66699 2.00098 -8s1.83398 -8.5 3.50098 -15.5s2.83398 -12.5 3.50098 -16.5l2 -7
c-47.333 -18 -91.666 -27 -132.999 -27c-71.333 0 -126.333 20.167 -165 60.5s-58 92.166 -58 155.499c0 61.333 18.167 113 54.5 155s84.5 63 144.5 63c57.333 0 101.833 -18.833 133.5 -56.5s47.5 -86.167 47.5 -145.5zM98.9961 241h270
c-2.66699 40.667 -15 73.667 -37 99s-53.667 38 -95 38c-39.333 0 -71 -12.333 -95 -37s-38.333 -58 -43 -100zM281.996 505l-19 -30l-192 99l31 54z" />
    <glyph glyph-name="eacute" unicode="&#xe9;" horiz-adv-x="461" 
d="M405 574l-192 -99l-18 31l181 123zM422 224c0 -11.333 -0.670898 -20.333 -2.00391 -27h-323c2.66699 -47.333 18.167 -85.166 46.5 -113.499s69.833 -42.5 124.5 -42.5c37.333 0 77 8.33301 119 25c0.666992 -2 1.33398 -4.66699 2.00098 -8s1.83398 -8.5 3.50098 -15.5
s2.83398 -12.5 3.50098 -16.5l2 -7c-47.333 -18 -91.666 -27 -132.999 -27c-71.333 0 -126.333 20.167 -165 60.5s-58 92.166 -58 155.499c0 61.333 18.167 113 54.5 155s84.5 63 144.5 63c57.333 0 101.833 -18.833 133.5 -56.5s47.5 -86.167 47.5 -145.5zM98.9961 241h270
c-2.66699 40.667 -15 73.667 -37 99s-53.667 38 -95 38c-39.333 0 -71 -12.333 -95 -37s-38.333 -58 -43 -100z" />
    <glyph glyph-name="ecircumflex" unicode="&#xea;" horiz-adv-x="461" 
d="M375 487h-59l-79 98l-75 -98h-58l121 149h30zM422 224c0 -11.333 -0.670898 -20.333 -2.00391 -27h-323c2.66699 -47.333 18.167 -85.166 46.5 -113.499s69.833 -42.5 124.5 -42.5c37.333 0 77 8.33301 119 25c0.666992 -2 1.33398 -4.66699 2.00098 -8
s1.83398 -8.5 3.50098 -15.5s2.83398 -12.5 3.50098 -16.5l2 -7c-47.333 -18 -91.666 -27 -132.999 -27c-71.333 0 -126.333 20.167 -165 60.5s-58 92.166 -58 155.499c0 61.333 18.167 113 54.5 155s84.5 63 144.5 63c57.333 0 101.833 -18.833 133.5 -56.5
s47.5 -86.167 47.5 -145.5zM98.9961 241h270c-2.66699 40.667 -15 73.667 -37 99s-53.667 38 -95 38c-39.333 0 -71 -12.333 -95 -37s-38.333 -58 -43 -100z" />
    <glyph glyph-name="edieresis" unicode="&#xeb;" horiz-adv-x="461" 
d="M367 543c0 -11.333 -4.16699 -21.166 -12.5 -29.499s-18.166 -12.5 -29.499 -12.5c-12 0 -22.167 4.16699 -30.5 12.5s-12.5 18.166 -12.5 29.499s4.16699 21.333 12.5 30s18.5 13 30.5 13c11.333 0 21.166 -4.33301 29.499 -13s12.5 -18.667 12.5 -30zM196 543
c0 -11.333 -4.16699 -21.166 -12.5 -29.499s-18.166 -12.5 -29.499 -12.5s-21.166 4.16699 -29.499 12.5s-12.5 18.166 -12.5 29.499s4.16699 21.333 12.5 30s18.166 13 29.499 13s21.166 -4.33301 29.499 -13s12.5 -18.667 12.5 -30zM422 224
c0 -11.333 -0.670898 -20.333 -2.00391 -27h-323c2.66699 -47.333 18.167 -85.166 46.5 -113.499s69.833 -42.5 124.5 -42.5c37.333 0 77 8.33301 119 25c0.666992 -2 1.33398 -4.66699 2.00098 -8s1.83398 -8.5 3.50098 -15.5s2.83398 -12.5 3.50098 -16.5l2 -7
c-47.333 -18 -91.666 -27 -132.999 -27c-71.333 0 -126.333 20.167 -165 60.5s-58 92.166 -58 155.499c0 61.333 18.167 113 54.5 155s84.5 63 144.5 63c57.333 0 101.833 -18.833 133.5 -56.5s47.5 -86.167 47.5 -145.5zM98.9961 241h270
c-2.66699 40.667 -15 73.667 -37 99s-53.667 38 -95 38c-39.333 0 -71 -12.333 -95 -37s-38.333 -58 -43 -100z" />
    <glyph glyph-name="igrave" unicode="&#xec;" horiz-adv-x="191" 
d="M124 0h-56v418h56v-418zM138 505l-19 -30l-192 99l31 54z" />
    <glyph glyph-name="iacute" unicode="&#xed;" horiz-adv-x="191" 
d="M261 574l-192 -99l-18 31l181 123zM124 0h-56v418h56v-418z" />
    <glyph glyph-name="icircumflex" unicode="&#xee;" horiz-adv-x="191" 
d="M231 487h-59l-79 98l-75 -98h-58l121 149h30zM124 0h-56v418h56v-418z" />
    <glyph glyph-name="idieresis" unicode="&#xef;" horiz-adv-x="191" 
d="M224 543c0 -11.333 -4.16699 -21.166 -12.5 -29.499s-18.166 -12.5 -29.499 -12.5c-12 0 -22.167 4.16699 -30.5 12.5s-12.5 18.166 -12.5 29.499s4.16699 21.333 12.5 30s18.5 13 30.5 13c11.333 0 21.166 -4.33301 29.499 -13s12.5 -18.667 12.5 -30zM53 543
c0 -11.333 -4.16699 -21.166 -12.5 -29.499s-18.166 -12.5 -29.499 -12.5s-21.166 4.16699 -29.499 12.5s-12.5 18.166 -12.5 29.499s4.16699 21.333 12.5 30s18.166 13 29.499 13s21.166 -4.33301 29.499 -13s12.5 -18.667 12.5 -30zM124 0h-56v418h56v-418z" />
    <glyph glyph-name="eth" unicode="&#xf0;" horiz-adv-x="499" 
d="M143 516l-29 34l82 73c-33.333 26 -72 49.333 -116 70l22 43c50 -24 94 -50.333 132 -79l70 62l30 -35l-64 -56c124.667 -110 187 -244.667 187 -404c0 -68.667 -19.5 -124.5 -58.5 -167.5s-89.167 -64.5 -150.5 -64.5c-63.333 0 -113.333 21.5 -150 64.5
s-55 96.167 -55 159.5c0 58.667 18.333 108.5 55 149.5s82.667 61.5 138 61.5c64 0 114.333 -24.333 151 -73c-21.333 88.667 -73 168.667 -155 240zM402 211c0 49.333 -13.999 89.667 -41.999 121s-66.333 47 -115 47c-44 0 -79.5 -15.667 -106.5 -47s-40.5 -71 -40.5 -119
s13.833 -89 41.5 -123s64.167 -51 109.5 -51s82.166 16.5 110.499 49.5s42.5 73.833 42.5 122.5z" />
    <glyph glyph-name="ntilde" unicode="&#xf1;" 
d="M415 0h-56v269c0 72.667 -32 109 -96 109c-48 0 -96.333 -26.667 -145 -80v-298h-55v418h53v-72c50 53.333 103.333 80 160 80c46 0 80.667 -13.167 104 -39.5s35 -61.5 35 -105.5v-281zM390 551c-31.333 -37.333 -62.6641 -55.333 -93.9971 -54
c-16.667 0 -37.334 7.33301 -62.001 22c-22 14 -39.333 21.333 -52 22c-20.667 0 -42.334 -13.667 -65.001 -41l-28 34c31.333 37.333 62.666 55.333 93.999 54c17.333 0 37.666 -7.33301 60.999 -22c23.333 -14 41 -21.333 53 -22c20.667 0 42.334 13.667 65.001 41z" />
    <glyph glyph-name="ograve" unicode="&#xf2;" horiz-adv-x="500" 
d="M458 210c0 -61.333 -19.666 -112.999 -58.999 -154.999s-89 -63 -149 -63c-60.667 0 -110.334 20.833 -149.001 62.5s-58 93.167 -58 154.5c0 60.667 19.5 112 58.5 154s88.833 63 149.5 63c60 0 109.5 -20.833 148.5 -62.5s58.5 -92.834 58.5 -153.501zM402.001 209.001
c0 50 -14 90.833 -42 122.5s-64.667 47.5 -110 47.5s-82 -16 -110 -48s-42 -72.667 -42 -122s14 -90 42 -122s64.667 -48 110 -48s82 16 110 48s42 72.667 42 122zM292.001 505.001l-19 -30l-192 99l31 54z" />
    <glyph glyph-name="oacute" unicode="&#xf3;" horiz-adv-x="500" 
d="M415 574l-192 -99l-18 31l181 123zM458 210c0 -61.333 -19.666 -112.999 -58.999 -154.999s-89 -63 -149 -63c-60.667 0 -110.334 20.833 -149.001 62.5s-58 93.167 -58 154.5c0 60.667 19.5 112 58.5 154s88.833 63 149.5 63c60 0 109.5 -20.833 148.5 -62.5
s58.5 -92.834 58.5 -153.501zM402.001 209.001c0 50 -14 90.833 -42 122.5s-64.667 47.5 -110 47.5s-82 -16 -110 -48s-42 -72.667 -42 -122s14 -90 42 -122s64.667 -48 110 -48s82 16 110 48s42 72.667 42 122z" />
    <glyph glyph-name="ocircumflex" unicode="&#xf4;" horiz-adv-x="500" 
d="M385 487h-59l-79 98l-75 -98h-58l121 149h30zM458 210c0 -61.333 -19.666 -112.999 -58.999 -154.999s-89 -63 -149 -63c-60.667 0 -110.334 20.833 -149.001 62.5s-58 93.167 -58 154.5c0 60.667 19.5 112 58.5 154s88.833 63 149.5 63c60 0 109.5 -20.833 148.5 -62.5
s58.5 -92.834 58.5 -153.501zM402.001 209.001c0 50 -14 90.833 -42 122.5s-64.667 47.5 -110 47.5s-82 -16 -110 -48s-42 -72.667 -42 -122s14 -90 42 -122s64.667 -48 110 -48s82 16 110 48s42 72.667 42 122z" />
    <glyph glyph-name="otilde" unicode="&#xf5;" horiz-adv-x="500" 
d="M458 210c0 -61.333 -19.666 -112.999 -58.999 -154.999s-89 -63 -149 -63c-60.667 0 -110.334 20.833 -149.001 62.5s-58 93.167 -58 154.5c0 60.667 19.5 112 58.5 154s88.833 63 149.5 63c60 0 109.5 -20.833 148.5 -62.5s58.5 -92.834 58.5 -153.501zM402.001 209.001
c0 50 -14 90.833 -42 122.5s-64.667 47.5 -110 47.5s-82 -16 -110 -48s-42 -72.667 -42 -122s14 -90 42 -122s64.667 -48 110 -48s82 16 110 48s42 72.667 42 122zM402.001 551.001c-31.333 -37.333 -62.6641 -55.333 -93.9971 -54c-16.667 0 -37.334 7.33301 -62.001 22
c-22 14 -39.333 21.333 -52 22c-20.667 0 -42.334 -13.667 -65.001 -41l-28 34c31.333 37.333 62.666 55.333 93.999 54c17.333 0 37.666 -7.33301 60.999 -22c23.333 -14 41 -21.333 53 -22c20.667 0 42.334 13.667 65.001 41z" />
    <glyph glyph-name="odieresis" unicode="&#xf6;" horiz-adv-x="500" 
d="M377 543c0 -11.333 -4.16699 -21.166 -12.5 -29.499s-18.166 -12.5 -29.499 -12.5c-12 0 -22.167 4.16699 -30.5 12.5s-12.5 18.166 -12.5 29.499s4.16699 21.333 12.5 30s18.5 13 30.5 13c11.333 0 21.166 -4.33301 29.499 -13s12.5 -18.667 12.5 -30zM206 543
c0 -11.333 -4.16699 -21.166 -12.5 -29.499s-18.166 -12.5 -29.499 -12.5s-21.166 4.16699 -29.499 12.5s-12.5 18.166 -12.5 29.499s4.16699 21.333 12.5 30s18.166 13 29.499 13s21.166 -4.33301 29.499 -13s12.5 -18.667 12.5 -30zM458 210
c0 -61.333 -19.666 -112.999 -58.999 -154.999s-89 -63 -149 -63c-60.667 0 -110.334 20.833 -149.001 62.5s-58 93.167 -58 154.5c0 60.667 19.5 112 58.5 154s88.833 63 149.5 63c60 0 109.5 -20.833 148.5 -62.5s58.5 -92.834 58.5 -153.501zM402.001 209.001
c0 50 -14 90.833 -42 122.5s-64.667 47.5 -110 47.5s-82 -16 -110 -48s-42 -72.667 -42 -122s14 -90 42 -122s64.667 -48 110 -48s82 16 110 48s42 72.667 42 122z" />
    <glyph glyph-name="divide" unicode="&#xf7;" horiz-adv-x="460" 
d="M60 256v49h340v-49h-340zM190 424c0 11.333 3.83301 21 11.5 29s17.167 12 28.5 12s20.833 -4 28.5 -12s11.5 -17.667 11.5 -29c0 -10.667 -3.83301 -20 -11.5 -28s-17.167 -12 -28.5 -12c-10.667 0 -20 4 -28 12s-12 17.333 -12 28zM190 135
c0 11.333 3.83301 21 11.5 29s17.167 12 28.5 12s20.833 -4 28.5 -12s11.5 -17.667 11.5 -29c0 -10.667 -3.83301 -20 -11.5 -28s-17.167 -12 -28.5 -12c-10.667 0 -20 4 -28 12s-12 17.333 -12 28z" />
    <glyph glyph-name="oslash" unicode="&#xf8;" horiz-adv-x="500" 
d="M474 394l-56 -52.999c26.667 -36.667 40 -80.334 40 -131.001c0 -62 -19.5 -113.833 -58.5 -155.5s-88.833 -62.5 -149.5 -62.5c-55.333 0 -102 18 -140 54l-56 -54l-29 29l58 55c-26.667 38 -40 82.333 -40 133c0 61.333 19.5 112.833 58.5 154.5
s88.833 62.5 149.5 62.5c56 0 103 -18.333 141 -55l54 52zM121 112.001l235 225c-26.667 28 -62 42 -106 42c-46 0 -82.833 -15.667 -110.5 -47s-41.5 -72.333 -41.5 -123c0 -36 7.66699 -68.333 23 -97zM380 304.001l-234 -224c27.333 -27.333 62 -41 104 -41
c46 0 83 15.833 111 47.5s42 72.5 42 122.5c0 36 -7.66699 67.667 -23 95z" />
    <glyph glyph-name="ugrave" unicode="&#xf9;" 
d="M411 0h-52.999v69c-20.667 -21.333 -45.167 -39.5 -73.5 -54.5s-56.5 -22.5 -84.5 -22.5c-46.667 0 -81.834 13.167 -105.501 39.5s-35.5 61.5 -35.5 105.5v281h56v-269c0 -72.667 32.333 -109 97 -109c48.667 0 96.667 26 144 78v300h55v-418zM277.001 505l-19 -30
l-192 99l31 54z" />
    <glyph glyph-name="uacute" unicode="&#xfa;" 
d="M400 574l-192 -99l-18 31l181 123zM411 0h-52.999v69c-20.667 -21.333 -45.167 -39.5 -73.5 -54.5s-56.5 -22.5 -84.5 -22.5c-46.667 0 -81.834 13.167 -105.501 39.5s-35.5 61.5 -35.5 105.5v281h56v-269c0 -72.667 32.333 -109 97 -109c48.667 0 96.667 26 144 78v300
h55v-418z" />
    <glyph glyph-name="ucircumflex" unicode="&#xfb;" 
d="M370 487h-59l-79 98l-75 -98h-58l121 149h30zM411 0h-52.999v69c-20.667 -21.333 -45.167 -39.5 -73.5 -54.5s-56.5 -22.5 -84.5 -22.5c-46.667 0 -81.834 13.167 -105.501 39.5s-35.5 61.5 -35.5 105.5v281h56v-269c0 -72.667 32.333 -109 97 -109
c48.667 0 96.667 26 144 78v300h55v-418z" />
    <glyph glyph-name="udieresis" unicode="&#xfc;" 
d="M362 543c0 -11.333 -4.16699 -21.166 -12.5 -29.499s-18.166 -12.5 -29.499 -12.5c-12 0 -22.167 4.16699 -30.5 12.5s-12.5 18.166 -12.5 29.499s4.16699 21.333 12.5 30s18.5 13 30.5 13c11.333 0 21.166 -4.33301 29.499 -13s12.5 -18.667 12.5 -30zM191 543
c0 -11.333 -4.16699 -21.166 -12.5 -29.499s-18.166 -12.5 -29.499 -12.5s-21.166 4.16699 -29.499 12.5s-12.5 18.166 -12.5 29.499s4.16699 21.333 12.5 30s18.166 13 29.499 13s21.166 -4.33301 29.499 -13s12.5 -18.667 12.5 -30zM411 0h-52.999v69
c-20.667 -21.333 -45.167 -39.5 -73.5 -54.5s-56.5 -22.5 -84.5 -22.5c-46.667 0 -81.834 13.167 -105.501 39.5s-35.5 61.5 -35.5 105.5v281h56v-269c0 -72.667 32.333 -109 97 -109c48.667 0 96.667 26 144 78v300h55v-418z" />
    <glyph glyph-name="yacute" unicode="&#xfd;" horiz-adv-x="427" 
d="M420 418l-295 -634h-56l118 244l-179 390h61l145 -334l146 334h60zM378 574l-192 -99l-18 31l181 123z" />
    <glyph glyph-name="thorn" unicode="&#xfe;" horiz-adv-x="506" 
d="M463 210c0 -63.333 -19.667 -115.5 -59 -156.5s-89.333 -61.5 -150 -61.5c-48 0 -93.333 14.333 -136 43v-251h-55v949h53v-366c40.667 39.333 89.667 59 147 59c56.667 0 104.167 -20.5 142.5 -61.5s57.5 -92.5 57.5 -154.5zM408 209c0 48.667 -14.3311 89 -42.998 121
s-65.334 48 -110.001 48c-55.333 0 -101 -21 -137 -63v-220c37.333 -37.333 82.666 -56 135.999 -56c44.667 0 81.5 15.667 110.5 47s43.5 72.333 43.5 123z" />
    <glyph glyph-name="ydieresis" unicode="&#xff;" horiz-adv-x="427" 
d="M420 418l-295 -634h-56l118 244l-179 390h61l145 -334l146 334h60zM341 543c0 -11.333 -4.16699 -21.166 -12.5 -29.499s-18.166 -12.5 -29.499 -12.5c-12 0 -22.167 4.16699 -30.5 12.5s-12.5 18.166 -12.5 29.499s4.16699 21.333 12.5 30s18.5 13 30.5 13
c11.333 0 21.166 -4.33301 29.499 -13s12.5 -18.667 12.5 -30zM170 543c0 -11.333 -4.16699 -21.166 -12.5 -29.499s-18.166 -12.5 -29.499 -12.5s-21.166 4.16699 -29.499 12.5s-12.5 18.166 -12.5 29.499s4.16699 21.333 12.5 30s18.166 13 29.499 13
s21.166 -4.33301 29.499 -13s12.5 -18.667 12.5 -30z" />
    <glyph glyph-name="Amacron" unicode="&#x100;" horiz-adv-x="696" 
d="M674 0h-60l-95 224h-344l-94 -224h-59l321 745h10zM498 272l-151 359l-151 -359h302zM492 832h-287v48h287v-48z" />
    <glyph glyph-name="amacron" unicode="&#x101;" horiz-adv-x="433" 
d="M376 0h-52.001v45c-35.333 -35.333 -79.333 -53 -132 -53c-44 0 -80.667 11.667 -110 35s-44 55.333 -44 96c0 38.667 14.833 70.167 44.5 94.5s66.834 36.5 111.501 36.5c39.333 0 81.666 -10.667 126.999 -32v38c0 40 -9.5 69.5 -28.5 88.5s-49.833 28.5 -92.5 28.5
c-37.333 0 -73.666 -7.66699 -108.999 -23l-11 48c43.333 16 85.333 24 126 24c113.333 0 170 -55.333 170 -166v-260zM320.999 93v82c-41.333 23.333 -81.333 35 -120 35c-32.667 0 -59.167 -7.5 -79.5 -22.5s-30.5 -36.5 -30.5 -64.5c0 -27.333 10 -48.333 30 -63
s47.333 -22 82 -22c48 0 87.333 18.333 118 55zM363.999 512h-287v48h287v-48z" />
    <glyph glyph-name="Abreve" unicode="&#x102;" horiz-adv-x="696" 
d="M674 0h-60l-95 224h-344l-94 -224h-59l321 745h10zM498 272l-151 359l-151 -359h302zM470 925c0 -32.667 -11 -60.5 -33 -83.5s-51.667 -34.5 -89 -34.5c-36.667 0 -66 11.5 -88 34.5s-33.333 50.833 -34 83.5l51 5c0.666992 -24.667 7.16699 -44 19.5 -58
s29.5 -21 51.5 -21s39.167 7 51.5 21s18.833 33.333 19.5 58z" />
    <glyph glyph-name="abreve" unicode="&#x103;" horiz-adv-x="433" 
d="M376 0h-52.001v45c-35.333 -35.333 -79.333 -53 -132 -53c-44 0 -80.667 11.667 -110 35s-44 55.333 -44 96c0 38.667 14.833 70.167 44.5 94.5s66.834 36.5 111.501 36.5c39.333 0 81.666 -10.667 126.999 -32v38c0 40 -9.5 69.5 -28.5 88.5s-49.833 28.5 -92.5 28.5
c-37.333 0 -73.666 -7.66699 -108.999 -23l-11 48c43.333 16 85.333 24 126 24c113.333 0 170 -55.333 170 -166v-260zM320.999 93v82c-41.333 23.333 -81.333 35 -120 35c-32.667 0 -59.167 -7.5 -79.5 -22.5s-30.5 -36.5 -30.5 -64.5c0 -27.333 10 -48.333 30 -63
s47.333 -22 82 -22c48 0 87.333 18.333 118 55zM341.999 605c0 -32.667 -11 -60.5 -33 -83.5s-51.667 -34.5 -89 -34.5c-36.667 0 -66 11.5 -88 34.5s-33.333 50.833 -34 83.5l51 5c0.666992 -24.667 7.16699 -44 19.5 -58s29.5 -21 51.5 -21s39.167 7 51.5 21
s18.833 33.333 19.5 58z" />
    <glyph glyph-name="Aogonek" unicode="&#x104;" horiz-adv-x="696" 
d="M694 -169c-24.667 -33.333 -53.668 -49.999 -87.001 -49.999c-23.333 -0.666992 -42.166 6 -56.499 20s-21.5 32.667 -21.5 56c0.666992 38.667 28.667 87 84 145l-94 222h-344l-94 -224h-59l321 745h10l321 -745h-17c-54 -58.667 -81 -104.334 -81 -137.001
c0 -13.333 3.5 -23.833 10.5 -31.5s16.167 -11.5 27.5 -11.5c20 0 38.667 11.333 56 34zM497.999 272.001l-151 359l-151 -359h302z" />
    <glyph glyph-name="aogonek" unicode="&#x105;" horiz-adv-x="433" 
d="M402 -169c-24.667 -33.333 -53.6689 -49.998 -87.002 -49.998c-23.333 -0.666992 -42.166 6 -56.499 20s-21.5 32.667 -21.5 56c0.666992 22 7.66699 44.167 21 66.5s35.333 49.166 66 80.499v41c-35.333 -35.333 -79.333 -53 -132 -53c-44 0 -80.667 11.667 -110 35
s-44 55.333 -44 96c0 38.667 14.833 70.167 44.5 94.5s66.834 36.5 111.501 36.5c39.333 0 81.666 -10.667 126.999 -32v38c0 40 -9.5 69.5 -28.5 88.5s-49.833 28.5 -92.5 28.5c-37.333 0 -73.666 -7.66699 -108.999 -23l-11 48c43.333 16 85.333 24 126 24
c113.333 0 170 -55.333 170 -166v-260h-11c-54 -58.667 -81 -104.334 -81 -137.001c0 -13.333 3.5 -23.833 10.5 -31.5s16.167 -11.5 27.5 -11.5c20 0 38.667 11.333 56 34zM320.998 93.002v82c-41.333 23.333 -81.333 35 -120 35c-32.667 0 -59.167 -7.5 -79.5 -22.5
s-30.5 -36.5 -30.5 -64.5c0 -27.333 10 -48.333 30 -63s47.333 -22 82 -22c48 0 87.333 18.333 118 55z" />
    <glyph glyph-name="Cacute" unicode="&#x106;" horiz-adv-x="740" 
d="M591 894l-192 -99l-18 31l181 123zM695 70c-80 -53.333 -164.332 -80 -252.999 -80c-108.667 0 -199.834 34.5 -273.501 103.5s-110.5 159.5 -110.5 271.5s37.167 203.333 111.5 274s165.166 106 272.499 106c92 0 177 -26.667 255 -80l-25 -47
c-76 50 -153.667 75 -233 75c-91.333 0 -167.5 -30.167 -228.5 -90.5s-91.5 -139.166 -91.5 -236.499c0 -96.667 30.833 -174.834 92.5 -234.501s138.5 -89.5 230.5 -89.5c78.667 0 156.334 24.667 233.001 74z" />
    <glyph glyph-name="cacute" unicode="&#x107;" horiz-adv-x="424" 
d="M413 574l-192 -99l-18 31l181 123zM400 34c-44 -28 -90.334 -42 -139.001 -42c-63.333 0 -115.666 20.667 -156.999 62s-62 92.333 -62 153s20.667 112.334 62 155.001s93.666 64 156.999 64c48.667 0 95 -14 139 -42l-25 -43c-38 24 -77 36 -117 36
c-47.333 0 -86.166 -15.5 -116.499 -46.5s-45.5 -71.5 -45.5 -121.5c0 -48.667 15.833 -88.834 47.5 -120.501s70.5 -47.5 116.5 -47.5c40 0 79.333 12 118 36z" />
    <glyph glyph-name="Cdotaccent" unicode="&#x10a;" horiz-adv-x="740" 
d="M695 70c-80 -53.333 -164.332 -80 -252.999 -80c-108.667 0 -199.834 34.5 -273.501 103.5s-110.5 159.5 -110.5 271.5s37.167 203.333 111.5 274s165.166 106 272.499 106c92 0 177 -26.667 255 -80l-25 -47c-76 50 -153.667 75 -233 75
c-91.333 0 -167.5 -30.167 -228.5 -90.5s-91.5 -139.166 -91.5 -236.499c0 -96.667 30.833 -174.834 92.5 -234.501s138.5 -89.5 230.5 -89.5c78.667 0 156.334 24.667 233.001 74zM383.001 863c0 11.333 4.16699 21.333 12.5 30s18.166 13 29.499 13
c12 0 22.167 -4.33301 30.5 -13s12.5 -18.667 12.5 -30s-4.16699 -21.166 -12.5 -29.499s-18.5 -12.5 -30.5 -12.5c-11.333 0 -21.166 4.16699 -29.499 12.5s-12.5 18.166 -12.5 29.499z" />
    <glyph glyph-name="cdotaccent" unicode="&#x10b;" horiz-adv-x="424" 
d="M400 34c-44 -28 -90.334 -42 -139.001 -42c-63.333 0 -115.666 20.667 -156.999 62s-62 92.333 -62 153s20.667 112.334 62 155.001s93.666 64 156.999 64c48.667 0 95 -14 139 -42l-25 -43c-38 24 -77 36 -117 36c-47.333 0 -86.166 -15.5 -116.499 -46.5
s-45.5 -71.5 -45.5 -121.5c0 -48.667 15.833 -88.834 47.5 -120.501s70.5 -47.5 116.5 -47.5c40 0 79.333 12 118 36zM205.999 543c0 11.333 4.16699 21.333 12.5 30s18.166 13 29.499 13c12 0 22.167 -4.33301 30.5 -13s12.5 -18.667 12.5 -30
s-4.16699 -21.166 -12.5 -29.499s-18.5 -12.5 -30.5 -12.5c-11.333 0 -21.166 4.16699 -29.499 12.5s-12.5 18.166 -12.5 29.499z" />
    <glyph glyph-name="Ccaron" unicode="&#x10c;" horiz-adv-x="740" 
d="M561 951l-122 -149h-29l-120 149h59l78 -98l76 98h58zM695 70c-80 -53.333 -164.332 -80 -252.999 -80c-108.667 0 -199.834 34.5 -273.501 103.5s-110.5 159.5 -110.5 271.5s37.167 203.333 111.5 274s165.166 106 272.499 106c92 0 177 -26.667 255 -80l-25 -47
c-76 50 -153.667 75 -233 75c-91.333 0 -167.5 -30.167 -228.5 -90.5s-91.5 -139.166 -91.5 -236.499c0 -96.667 30.833 -174.834 92.5 -234.501s138.5 -89.5 230.5 -89.5c78.667 0 156.334 24.667 233.001 74z" />
    <glyph glyph-name="ccaron" unicode="&#x10d;" horiz-adv-x="424" 
d="M384 631l-122 -149h-29l-120 149h59l78 -98l76 98h58zM400 34c-44 -28 -90.334 -42 -139.001 -42c-63.333 0 -115.666 20.667 -156.999 62s-62 92.333 -62 153s20.667 112.334 62 155.001s93.666 64 156.999 64c48.667 0 95 -14 139 -42l-25 -43c-38 24 -77 36 -117 36
c-47.333 0 -86.166 -15.5 -116.499 -46.5s-45.5 -71.5 -45.5 -121.5c0 -48.667 15.833 -88.834 47.5 -120.501s70.5 -47.5 116.5 -47.5c40 0 79.333 12 118 36z" />
    <glyph glyph-name="Dcaron" unicode="&#x10e;" horiz-adv-x="740" 
d="M682 373c0 -106.667 -36.333 -196.667 -109 -270s-174 -110 -304 -110c-61.333 0 -122 4 -182 12v723c60 8 119.333 12 178 12c66 0 126 -10.167 180 -30.5s97.833 -47.833 131.5 -82.5s59.667 -73.667 78 -117s27.5 -89 27.5 -137zM622 373
c0 91.333 -31.501 167.167 -94.501 227.5s-150.167 90.5 -261.5 90.5c-51.333 0 -92.333 -2.66699 -123 -8v-633c33.333 -5.33301 76 -8 128 -8c112.667 0 199.334 30.833 260.001 92.5s91 141.167 91 238.5zM488.999 951.001l-122 -149h-29l-120 149h59l78 -98l76 98h58z
" />
    <glyph glyph-name="dcaron" unicode="&#x10f;" horiz-adv-x="506" 
d="M539 733l54 -8c0 -76 -30 -137.333 -90 -184l-25 21c38.667 40.667 59 97.667 61 171zM443 0l-53 0.000976562v51c-38 -39.333 -86 -59 -144 -59c-59.333 0 -108 20.167 -146 60.5s-57 91.833 -57 154.5c0 61.333 20 113.166 60 155.499s88.333 63.5 145 63.5
c55.333 0 102 -17.333 140 -52v359h55v-733zM388 105.001v210.001c-35.333 42 -81 63 -137 63c-44 0 -80.5 -15.833 -109.5 -47.5s-43.5 -72.5 -43.5 -122.5c0 -48.667 14.333 -88.834 43 -120.501s66 -47.5 112 -47.5c54.667 0 99.667 21.667 135 65z" />
    <glyph glyph-name="Dcroat" unicode="&#x110;" horiz-adv-x="770" 
d="M712 373c0 -106.667 -36.333 -196.667 -109 -270s-174 -110 -304 -110c-61.333 0 -122 4 -182 12v343h-87v50h87v330c60 8 119.333 12 178 12c66 0 126 -10.167 180 -30.5s97.833 -47.833 131.5 -82.5s59.667 -73.667 78 -117s27.5 -89 27.5 -137zM652 373
c0 91.333 -31.333 167.167 -94 227.5s-149.667 90.5 -261 90.5c-52 0 -93.333 -2.66699 -124 -8v-285h136v-50h-136v-298c33.333 -5.33301 76.333 -8 129 -8c112 0 198.333 30.833 259 92.5s91 141.167 91 238.5z" />
    <glyph glyph-name="dcroat" unicode="&#x111;" horiz-adv-x="506" 
d="M443 0l-53 0.000976562v51c-38 -39.333 -86 -59 -144 -59c-59.333 0 -108 20.167 -146 60.5s-57 91.833 -57 154.5c0 61.333 20 113.166 60 155.499s88.333 63.5 145 63.5c55.333 0 102 -17.333 140 -52v196h-146v48h146v115h55v-115h58v-48h-58v-570zM388 105.001
v210.001c-35.333 42 -81 63 -137 63c-44 0 -80.5 -15.833 -109.5 -47.5s-43.5 -72.5 -43.5 -122.5c0 -48.667 14.333 -88.834 43 -120.501s66 -47.5 112 -47.5c54.667 0 99.667 21.667 135 65z" />
    <glyph glyph-name="Emacron" unicode="&#x112;" horiz-adv-x="563" 
d="M501 0h-414v733h414v-50h-358v-286h323v-50h-323v-296h358v-51zM439 832h-287v48h287v-48z" />
    <glyph glyph-name="emacron" unicode="&#x113;" horiz-adv-x="461" 
d="M422 224c0 -11.333 -0.670898 -20.333 -2.00391 -27h-323c2.66699 -47.333 18.167 -85.166 46.5 -113.499s69.833 -42.5 124.5 -42.5c37.333 0 77 8.33301 119 25c0.666992 -2 1.33398 -4.66699 2.00098 -8s1.83398 -8.5 3.50098 -15.5s2.83398 -12.5 3.50098 -16.5l2 -7
c-47.333 -18 -91.666 -27 -132.999 -27c-71.333 0 -126.333 20.167 -165 60.5s-58 92.166 -58 155.499c0 61.333 18.167 113 54.5 155s84.5 63 144.5 63c57.333 0 101.833 -18.833 133.5 -56.5s47.5 -86.167 47.5 -145.5zM98.9961 241h270
c-2.66699 40.667 -15 73.667 -37 99s-53.667 38 -95 38c-39.333 0 -71 -12.333 -95 -37s-38.333 -58 -43 -100zM383.996 512h-287v48h287v-48z" />
    <glyph glyph-name="Ebreve" unicode="&#x114;" horiz-adv-x="563" 
d="M501 0h-414v733h414v-50h-358v-286h323v-50h-323v-296h358v-51zM417 925c0 -32.667 -11 -60.5 -33 -83.5s-51.667 -34.5 -89 -34.5c-36.667 0 -66 11.5 -88 34.5s-33.333 50.833 -34 83.5l51 5c0.666992 -24.667 7.16699 -44 19.5 -58s29.5 -21 51.5 -21
s39.167 7 51.5 21s18.833 33.333 19.5 58z" />
    <glyph glyph-name="ebreve" unicode="&#x115;" horiz-adv-x="461" 
d="M422 224c0 -11.333 -0.670898 -20.333 -2.00391 -27h-323c2.66699 -47.333 18.167 -85.166 46.5 -113.499s69.833 -42.5 124.5 -42.5c37.333 0 77 8.33301 119 25c0.666992 -2 1.33398 -4.66699 2.00098 -8s1.83398 -8.5 3.50098 -15.5s2.83398 -12.5 3.50098 -16.5l2 -7
c-47.333 -18 -91.666 -27 -132.999 -27c-71.333 0 -126.333 20.167 -165 60.5s-58 92.166 -58 155.499c0 61.333 18.167 113 54.5 155s84.5 63 144.5 63c57.333 0 101.833 -18.833 133.5 -56.5s47.5 -86.167 47.5 -145.5zM98.9961 241h270
c-2.66699 40.667 -15 73.667 -37 99s-53.667 38 -95 38c-39.333 0 -71 -12.333 -95 -37s-38.333 -58 -43 -100zM361.996 605c0 -32.667 -11 -60.5 -33 -83.5s-51.667 -34.5 -89 -34.5c-36.667 0 -66 11.5 -88 34.5s-33.333 50.833 -34 83.5l51 5
c0.666992 -24.667 7.16699 -44 19.5 -58s29.5 -21 51.5 -21s39.167 7 51.5 21s18.833 33.333 19.5 58z" />
    <glyph glyph-name="Edotaccent" unicode="&#x116;" horiz-adv-x="563" 
d="M501 0h-414v733h414v-50h-358v-286h323v-50h-323v-296h358v-51zM252 863c0 11.333 4.16699 21.333 12.5 30s18.166 13 29.499 13c12 0 22.167 -4.33301 30.5 -13s12.5 -18.667 12.5 -30s-4.16699 -21.166 -12.5 -29.499s-18.5 -12.5 -30.5 -12.5
c-11.333 0 -21.166 4.16699 -29.499 12.5s-12.5 18.166 -12.5 29.499z" />
    <glyph glyph-name="edotaccent" unicode="&#x117;" horiz-adv-x="461" 
d="M422 224c0 -11.333 -0.670898 -20.333 -2.00391 -27h-323c2.66699 -47.333 18.167 -85.166 46.5 -113.499s69.833 -42.5 124.5 -42.5c37.333 0 77 8.33301 119 25c0.666992 -2 1.33398 -4.66699 2.00098 -8s1.83398 -8.5 3.50098 -15.5s2.83398 -12.5 3.50098 -16.5l2 -7
c-47.333 -18 -91.666 -27 -132.999 -27c-71.333 0 -126.333 20.167 -165 60.5s-58 92.166 -58 155.499c0 61.333 18.167 113 54.5 155s84.5 63 144.5 63c57.333 0 101.833 -18.833 133.5 -56.5s47.5 -86.167 47.5 -145.5zM98.9961 241h270
c-2.66699 40.667 -15 73.667 -37 99s-53.667 38 -95 38c-39.333 0 -71 -12.333 -95 -37s-38.333 -58 -43 -100zM196.996 543c0 11.333 4.16699 21.333 12.5 30s18.166 13 29.499 13c12 0 22.167 -4.33301 30.5 -13s12.5 -18.667 12.5 -30s-4.16699 -21.166 -12.5 -29.499
s-18.5 -12.5 -30.5 -12.5c-11.333 0 -21.166 4.16699 -29.499 12.5s-12.5 18.166 -12.5 29.499z" />
    <glyph glyph-name="Eogonek" unicode="&#x118;" horiz-adv-x="563" 
d="M501 0h-33.001c-54 -58.667 -81 -104.334 -81 -137.001c0 -13.333 3.5 -23.833 10.5 -31.5s16.167 -11.5 27.5 -11.5c20 0 38.667 11.333 56 34l24 -23c-24.667 -33.333 -53.667 -50 -87 -50c-23.333 -0.666992 -42.166 6 -56.499 20s-21.5 32.667 -21.5 56
c0.666992 38.667 28 86.334 82 143.001h-335v733h414v-50h-358v-286h323v-50h-323v-296h358v-51z" />
    <glyph glyph-name="eogonek" unicode="&#x119;" horiz-adv-x="461" 
d="M422 224c0 -11.333 -0.667969 -20.333 -2.00098 -27h-323c2.66699 -47.333 18.167 -85.166 46.5 -113.499s69.833 -42.5 124.5 -42.5c37.333 0 77 8.33301 119 25l11 -46c-70 -60.667 -105 -112.667 -105 -156c0 -14 3.5 -24.833 10.5 -32.5s16.167 -11.5 27.5 -11.5
c20 0 38.667 11.333 56 34l24 -23c-24.667 -33.333 -53.667 -50 -87 -50c-23.333 -0.666992 -42.166 6 -56.499 20s-21.5 32.667 -21.5 56c0 42 27.333 89.333 82 142c-25.333 -4.66699 -46.333 -7 -63 -7c-71.333 0 -126.333 20.167 -165 60.5s-58 92.166 -58 155.499
c0 61.333 18.167 113 54.5 155s84.5 63 144.5 63c57.333 0 101.833 -18.833 133.5 -56.5s47.5 -86.167 47.5 -145.5zM98.999 241h270c-2.66699 40.667 -15 73.667 -37 99s-53.667 38 -95 38c-39.333 0 -71 -12.333 -95 -37s-38.333 -58 -43 -100z" />
    <glyph glyph-name="Ecaron" unicode="&#x11a;" horiz-adv-x="563" 
d="M430 951l-122 -149h-29l-120 149h59l78 -98l76 98h58zM501 0h-414v733h414v-50h-358v-286h323v-50h-323v-296h358v-51z" />
    <glyph glyph-name="ecaron" unicode="&#x11b;" horiz-adv-x="461" 
d="M375 631l-122 -149h-29l-120 149h59l78 -98l76 98h58zM422 224c0 -11.333 -0.670898 -20.333 -2.00391 -27h-323c2.66699 -47.333 18.167 -85.166 46.5 -113.499s69.833 -42.5 124.5 -42.5c37.333 0 77 8.33301 119 25c0.666992 -2 1.33398 -4.66699 2.00098 -8
s1.83398 -8.5 3.50098 -15.5s2.83398 -12.5 3.50098 -16.5l2 -7c-47.333 -18 -91.666 -27 -132.999 -27c-71.333 0 -126.333 20.167 -165 60.5s-58 92.166 -58 155.499c0 61.333 18.167 113 54.5 155s84.5 63 144.5 63c57.333 0 101.833 -18.833 133.5 -56.5
s47.5 -86.167 47.5 -145.5zM98.9961 241h270c-2.66699 40.667 -15 73.667 -37 99s-53.667 38 -95 38c-39.333 0 -71 -12.333 -95 -37s-38.333 -58 -43 -100z" />
    <glyph glyph-name="Gbreve" unicode="&#x11e;" horiz-adv-x="779" 
d="M447 349h264.996v-269c-76 -60 -164.667 -90 -266 -90c-67.333 0 -130.166 14.5 -188.499 43.5s-106.166 72.667 -143.499 131s-56 125.5 -56 201.5c0 56.667 10.833 109.167 32.5 157.5s50.334 88.5 86.001 120.5s76.334 56.833 122.001 74.5s92.5 26.5 140.5 26.5
c55.333 0 103.833 -7.5 145.5 -22.5s83.5 -37.5 125.5 -67.5l-30 -44c-76 55.333 -156.333 83.333 -241 84c-91.333 0 -167.5 -30.833 -228.5 -92.5s-91.5 -140.5 -91.5 -236.5c0 -96.667 31.833 -175.167 95.5 -235.5s141.5 -90.5 233.5 -90.5c78 0 147.333 21.333 208 64
v193h-209v52zM548.996 925c0 -32.667 -11 -60.5 -33 -83.5s-51.667 -34.5 -89 -34.5c-36.667 0 -66 11.5 -88 34.5s-33.333 50.833 -34 83.5l51 5c0.666992 -24.667 7.16699 -44 19.5 -58s29.5 -21 51.5 -21s39.167 7 51.5 21s18.833 33.333 19.5 58z" />
    <glyph glyph-name="gbreve" unicode="&#x11f;" horiz-adv-x="506" 
d="M443 -41c0 -123.333 -58.334 -184.999 -175.001 -184.999c-43.333 0 -89.666 8 -138.999 24l10 51c41.333 -16 82.333 -24 123 -24c43.333 0 75.166 10.5 95.499 31.5s30.5 53.833 30.5 98.5v92c-39.333 -36.667 -86.666 -55 -141.999 -55
c-59.333 0 -108 20.167 -146 60.5s-57 91.833 -57 154.5c0 61.333 20 113.166 60 155.499s88.333 63.5 145 63.5c58 0 105.333 -19 142 -57v49h53v-459zM387.999 103.001v210.001c-36 43.333 -81.333 65 -136 65c-45.333 0 -82.333 -16 -111 -48s-43 -73 -43 -123
c0 -48.667 14.667 -88.834 44 -120.501s67.333 -47.5 114 -47.5c53.333 0 97.333 21.333 132 64zM387.999 605.002c0 -32.667 -11 -60.5 -33 -83.5s-51.667 -34.5 -89 -34.5c-36.667 0 -66 11.5 -88 34.5s-33.333 50.833 -34 83.5l51 5
c0.666992 -24.667 7.16699 -44 19.5 -58s29.5 -21 51.5 -21s39.167 7 51.5 21s18.833 33.333 19.5 58z" />
    <glyph glyph-name="Gdotaccent" unicode="&#x120;" horiz-adv-x="779" 
d="M447 349h264.996v-269c-76 -60 -164.667 -90 -266 -90c-67.333 0 -130.166 14.5 -188.499 43.5s-106.166 72.667 -143.499 131s-56 125.5 -56 201.5c0 56.667 10.833 109.167 32.5 157.5s50.334 88.5 86.001 120.5s76.334 56.833 122.001 74.5s92.5 26.5 140.5 26.5
c55.333 0 103.833 -7.5 145.5 -22.5s83.5 -37.5 125.5 -67.5l-30 -44c-76 55.333 -156.333 83.333 -241 84c-91.333 0 -167.5 -30.833 -228.5 -92.5s-91.5 -140.5 -91.5 -236.5c0 -96.667 31.833 -175.167 95.5 -235.5s141.5 -90.5 233.5 -90.5c78 0 147.333 21.333 208 64
v193h-209v52zM384.996 863c0 11.333 4.16699 21.333 12.5 30s18.166 13 29.499 13c12 0 22.167 -4.33301 30.5 -13s12.5 -18.667 12.5 -30s-4.16699 -21.166 -12.5 -29.499s-18.5 -12.5 -30.5 -12.5c-11.333 0 -21.166 4.16699 -29.499 12.5s-12.5 18.166 -12.5 29.499z" />
    <glyph glyph-name="gdotaccent" unicode="&#x121;" horiz-adv-x="506" 
d="M443 -41c0 -123.333 -58.334 -184.999 -175.001 -184.999c-43.333 0 -89.666 8 -138.999 24l10 51c41.333 -16 82.333 -24 123 -24c43.333 0 75.166 10.5 95.499 31.5s30.5 53.833 30.5 98.5v92c-39.333 -36.667 -86.666 -55 -141.999 -55
c-59.333 0 -108 20.167 -146 60.5s-57 91.833 -57 154.5c0 61.333 20 113.166 60 155.499s88.333 63.5 145 63.5c58 0 105.333 -19 142 -57v49h53v-459zM387.999 103.001v210.001c-36 43.333 -81.333 65 -136 65c-45.333 0 -82.333 -16 -111 -48s-43 -73 -43 -123
c0 -48.667 14.667 -88.834 44 -120.501s67.333 -47.5 114 -47.5c53.333 0 97.333 21.333 132 64zM222.999 543.002c0 11.333 4.16699 21.333 12.5 30s18.166 13 29.499 13c12 0 22.167 -4.33301 30.5 -13s12.5 -18.667 12.5 -30s-4.16699 -21.166 -12.5 -29.499
s-18.5 -12.5 -30.5 -12.5c-11.333 0 -21.166 4.16699 -29.499 12.5s-12.5 18.166 -12.5 29.499z" />
    <glyph glyph-name="Gcommaaccent" unicode="&#x122;" horiz-adv-x="779" 
d="M473 -128c0 -23.333 -8.33301 -47.832 -25 -73.499s-37.334 -45.834 -62.001 -60.501l-11 13c30.667 27.333 49.334 58 56.001 92c-14 1.33301 -25.167 6 -33.5 14s-12.5 17.667 -12.5 29s4 21 12 29s17.667 12 29 12c14 0 25.333 -5.16699 34 -15.5s13 -23.5 13 -39.5z
M447 349.001h264.996v-269c-76 -60 -164.667 -90 -266 -90c-67.333 0 -130.166 14.5 -188.499 43.5s-106.166 72.667 -143.499 131s-56 125.5 -56 201.5c0 56.667 10.833 109.167 32.5 157.5s50.334 88.5 86.001 120.5s76.334 56.833 122.001 74.5s92.5 26.5 140.5 26.5
c55.333 0 103.833 -7.5 145.5 -22.5s83.5 -37.5 125.5 -67.5l-30 -44c-76 55.333 -156.333 83.333 -241 84c-91.333 0 -167.5 -30.833 -228.5 -92.5s-91.5 -140.5 -91.5 -236.5c0 -96.667 31.833 -175.167 95.5 -235.5s141.5 -90.5 233.5 -90.5c78 0 147.333 21.333 208 64
v193h-209v52z" />
    <glyph glyph-name="gcommaaccent" unicode="&#x123;" horiz-adv-x="506" 
d="M443 -41c0 -123.333 -58.334 -184.999 -175.001 -184.999c-43.333 0 -89.666 8 -138.999 24l10 51c41.333 -16 82.333 -24 123 -24c43.333 0 75.166 10.5 95.499 31.5s30.5 53.833 30.5 98.5v92c-39.333 -36.667 -86.666 -55 -141.999 -55
c-59.333 0 -108 20.167 -146 60.5s-57 91.833 -57 154.5c0 61.333 20 113.166 60 155.499s88.333 63.5 145 63.5c58 0 105.333 -19 142 -57v49h53v-459zM387.999 103.001v210.001c-36 43.333 -81.333 65 -136 65c-45.333 0 -82.333 -16 -111 -48s-43 -73 -43 -123
c0 -48.667 14.667 -88.834 44 -120.501s67.333 -47.5 114 -47.5c53.333 0 97.333 21.333 132 64zM218.999 568.002c0 23.333 8.33301 47.832 25 73.499s37.334 45.834 62.001 60.501l11 -13c-30.667 -27.333 -49.334 -58 -56.001 -92c14 -1.33301 25.167 -6 33.5 -14
s12.5 -17.667 12.5 -29s-4 -21 -12 -29s-17.667 -12 -29 -12c-14 0 -25.333 5.16699 -34 15.5s-13 23.5 -13 39.5z" />
    <glyph glyph-name="Hbar" unicode="&#x126;" horiz-adv-x="707" 
d="M620 0h-56v348h-421v-348h-56v554h-79v48h79v131h56v-131h421v131h56v-131h80v-48h-80v-554zM143 398h421v156h-421v-156z" />
    <glyph glyph-name="hbar" unicode="&#x127;" horiz-adv-x="466" 
d="M413 0h-56v269c0 72.667 -32.333 109 -97 109c-50.667 0 -99.667 -26.667 -147 -80v-298h-55v570h-59v48h59v115h55v-115h146v-48h-146v-223c49.333 52.667 102 79 158 79c46.667 0 82 -13.167 106 -39.5s36 -61.5 36 -105.5v-281z" />
    <glyph glyph-name="Imacron" unicode="&#x12a;" horiz-adv-x="237" 
d="M147 0h-56v733h56v-733zM263 832h-287v48h287v-48z" />
    <glyph glyph-name="imacron" unicode="&#x12b;" horiz-adv-x="191" 
d="M124 0h-56v418h56v-418zM240 512h-287v48h287v-48z" />
    <glyph glyph-name="Ibreve" unicode="&#x12c;" horiz-adv-x="237" 
d="M147 0h-56v733h56v-733zM241 925c0 -32.667 -11 -60.5 -33 -83.5s-51.667 -34.5 -89 -34.5c-36.667 0 -66 11.5 -88 34.5s-33.333 50.833 -34 83.5l51 5c0.666992 -24.667 7.16699 -44 19.5 -58s29.5 -21 51.5 -21s39.167 7 51.5 21s18.833 33.333 19.5 58z" />
    <glyph glyph-name="ibreve" unicode="&#x12d;" horiz-adv-x="191" 
d="M124 0h-56v418h56v-418zM218 605c0 -32.667 -11 -60.5 -33 -83.5s-51.667 -34.5 -89 -34.5c-36.667 0 -66 11.5 -88 34.5s-33.333 50.833 -34 83.5l51 5c0.666992 -24.667 7.16699 -44 19.5 -58s29.5 -21 51.5 -21s39.167 7 51.5 21s18.833 33.333 19.5 58z" />
    <glyph glyph-name="Iogonek" unicode="&#x12e;" horiz-adv-x="237" 
d="M190 -168c-25.333 -34 -55.001 -51 -89.001 -51c-22.667 -0.666992 -41.167 6.33301 -55.5 21s-21.166 33.667 -20.499 57c0 21.333 5.5 42.5 16.5 63.5s29.5 46.833 55.5 77.5h-6v733h56v-733h-5c-47.333 -56.667 -71 -102 -71 -136c0 -13.333 3.66699 -24 11 -32
s16.333 -12 27 -12c20 0 38.667 11.333 56 34z" />
    <glyph glyph-name="iogonek" unicode="&#x12f;" horiz-adv-x="187" 
d="M165 -168c-25.333 -34 -54.6689 -51.001 -88.002 -51.001c-23.333 -0.666992 -42.166 6.33301 -56.499 21s-21.166 33.667 -20.499 57c0.666992 38 25 85 73 141h-7v418h56v-418h-5c-46.667 -57.333 -70 -102.666 -70 -135.999c0 -13.333 3.5 -24 10.5 -32
s15.833 -12 26.5 -12c19.333 0 38.333 11.333 57 34zM133.997 572.999c0 -11.333 -4 -20.833 -12 -28.5s-17.333 -11.5 -28 -11.5c-11.333 0 -20.833 3.83301 -28.5 11.5s-11.5 17.167 -11.5 28.5s3.83301 21 11.5 29s17.167 12 28.5 12c10.667 0 20 -4 28 -12
s12 -17.667 12 -29z" />
    <glyph glyph-name="Idotaccent" unicode="&#x130;" horiz-adv-x="237" 
d="M147 0h-56v733h56v-733zM76 863c0 11.333 4.16699 21.333 12.5 30s18.166 13 29.499 13c12 0 22.167 -4.33301 30.5 -13s12.5 -18.667 12.5 -30s-4.16699 -21.166 -12.5 -29.499s-18.5 -12.5 -30.5 -12.5c-11.333 0 -21.166 4.16699 -29.499 12.5
s-12.5 18.166 -12.5 29.499z" />
    <glyph glyph-name="dotlessi" unicode="&#x131;" horiz-adv-x="191" 
d="M124 0h-56v418h56v-418z" />
    <glyph glyph-name="Kcommaaccent" unicode="&#x136;" horiz-adv-x="593" 
d="M353 -116c0 -23.333 -8.33301 -47.832 -25 -73.499s-37.334 -45.834 -62.001 -60.501l-11 13c30.667 27.333 49.334 58 56.001 92c-14 1.33301 -25.167 6 -33.5 14s-12.5 17.667 -12.5 29s4 21 12 29s17.667 12 29 12c14 0 25.333 -5.16699 34 -15.5s13 -23.5 13 -39.5z
M572 0.000976562h-74l-355 362v-362h-56v733h56v-341l343 341h72l-361 -356z" />
    <glyph glyph-name="kcommaaccent" unicode="&#x137;" horiz-adv-x="398" 
d="M258 -128c0 -23.333 -8.33301 -47.832 -25 -73.499s-37.334 -45.834 -62.001 -60.501l-11 13c30.667 27.333 49.334 58 56.001 92c-14 1.33301 -25.167 6 -33.5 14s-12.5 17.667 -12.5 29s4 21 12 29s17.667 12 29 12c14 0 25.333 -5.16699 34 -15.5s13 -23.5 13 -39.5z
M396 0.000976562h-70l-208 206v-206h-55v733h55v-500l198 185h70l-217 -197z" />
    <glyph glyph-name="Lacute" unicode="&#x139;" horiz-adv-x="513" 
d="M311 894l-192 -99l-18 31l181 123zM501 0h-414v733h56v-682h358v-51z" />
    <glyph glyph-name="lacute" unicode="&#x13a;" horiz-adv-x="187" 
d="M275 889l-192 -99l-18 31l181 123zM121 0h-55v733h55v-733z" />
    <glyph glyph-name="Lcommaaccent" unicode="&#x13b;" horiz-adv-x="513" 
d="M335 -128c0 -23.333 -8.33301 -47.832 -25 -73.499s-37.334 -45.834 -62.001 -60.501l-11 13c30.667 27.333 49.334 58 56.001 92c-14 1.33301 -25.167 6 -33.5 14s-12.5 17.667 -12.5 29s4 21 12 29s17.667 12 29 12c14 0 25.333 -5.16699 34 -15.5s13 -23.5 13 -39.5z
M501 0.000976562h-414v733h56v-682h358v-51z" />
    <glyph glyph-name="lcommaaccent" unicode="&#x13c;" horiz-adv-x="187" 
d="M140 -128c0 -23.333 -8.33301 -47.832 -25 -73.499s-37.334 -45.834 -62.001 -60.501l-11 13c30.667 27.333 49.334 58 56.001 92c-14 1.33301 -25.167 6 -33.5 14s-12.5 17.667 -12.5 29s4 21 12 29s17.667 12 29 12c14 0 25.333 -5.16699 34 -15.5s13 -23.5 13 -39.5z
M121 0.000976562h-55v733h55v-733z" />
    <glyph glyph-name="Lcaron" unicode="&#x13d;" horiz-adv-x="513" 
d="M289 733l54 -8c0 -76 -30 -137.333 -90 -184l-25 21c38.667 40.667 59 97.667 61 171zM501 0h-414v733h56v-682h358v-51z" />
    <glyph glyph-name="lcaron" unicode="&#x13e;" horiz-adv-x="187" 
d="M218 733l54 -8c0 -76 -30 -137.333 -90 -184l-25 21c38.667 40.667 59 97.667 61 171zM121 0h-55v733h55v-733z" />
    <glyph glyph-name="Ldot" unicode="&#x13f;" horiz-adv-x="513" 
d="M501 0h-414v733h56v-682h358v-51zM336 369c0 -11.333 4.16699 -21.166 12.5 -29.499s18.166 -12.5 29.499 -12.5c12 0 22.167 4.16699 30.5 12.5s12.5 18.166 12.5 29.499s-4.16699 21.333 -12.5 30s-18.5 13 -30.5 13c-11.333 0 -21.166 -4.33301 -29.499 -13
s-12.5 -18.667 -12.5 -30z" />
    <glyph glyph-name="ldot" unicode="&#x140;" horiz-adv-x="261" 
d="M121 0h-55v733h55v-733zM181 367c0 -11.333 4.16699 -21.166 12.5 -29.499s18.166 -12.5 29.499 -12.5c12 0 22.167 4.16699 30.5 12.5s12.5 18.166 12.5 29.499s-4.16699 21.333 -12.5 30s-18.5 13 -30.5 13c-11.333 0 -21.166 -4.33301 -29.499 -13
s-12.5 -18.667 -12.5 -30z" />
    <glyph glyph-name="Lslash" unicode="&#x141;" horiz-adv-x="533" 
d="M521 0h-414v326l-65 -29v54l65 29v353h56v-328l104 48v-54c-69.333 -31.333 -104 -47.333 -104 -48v-300h358v-51z" />
    <glyph glyph-name="lslash" unicode="&#x142;" horiz-adv-x="212" 
d="M185 371l-51 -23v-348h-56v320l-51 -23v54l51 23v359h56v-331l51 23v-54z" />
    <glyph glyph-name="Nacute" unicode="&#x143;" horiz-adv-x="727" 
d="M528 881l-192 -99l-18 31l181 123zM640 -9l-10 -2l-488 622v-611h-55v741l13 3l484 -615v604h56v-742z" />
    <glyph glyph-name="nacute" unicode="&#x144;" 
d="M403 574l-192 -99l-18 31l181 123zM415 0h-56v269c0 72.667 -32 109 -96 109c-48 0 -96.333 -26.667 -145 -80v-298h-55v418h53v-72c50 53.333 103.333 80 160 80c46 0 80.667 -13.167 104 -39.5s35 -61.5 35 -105.5v-281z" />
    <glyph glyph-name="Ncommaaccent" unicode="&#x145;" horiz-adv-x="727" 
d="M409 -116c0 -23.333 -8.33301 -47.832 -25 -73.499s-37.334 -45.834 -62.001 -60.501l-11 13c30.667 27.333 49.334 58 56.001 92c-14 1.33301 -25.167 6 -33.5 14s-12.5 17.667 -12.5 29s4 21 12 29s17.667 12 29 12c14 0 25.333 -5.16699 34 -15.5s13 -23.5 13 -39.5z
M640 -8.99902l-10 -2l-488 622v-611h-55v741l13 3l484 -615v604h56v-742z" />
    <glyph glyph-name="ncommaaccent" unicode="&#x146;" 
d="M284 -128c0 -23.333 -8.33301 -47.832 -25 -73.499s-37.334 -45.834 -62.001 -60.501l-11 13c30.667 27.333 49.334 58 56.001 92c-14 1.33301 -25.167 6 -33.5 14s-12.5 17.667 -12.5 29s4 21 12 29s17.667 12 29 12c14 0 25.333 -5.16699 34 -15.5s13 -23.5 13 -39.5z
M415 0.000976562h-56v269c0 72.667 -32 109 -96 109c-48 0 -96.333 -26.667 -145 -80v-298h-55v418h53v-72c50 53.333 103.333 80 160 80c46 0 80.667 -13.167 104 -39.5s35 -61.5 35 -105.5v-281z" />
    <glyph glyph-name="Ncaron" unicode="&#x147;" horiz-adv-x="727" 
d="M499 938l-122 -149h-29l-120 149h59l78 -98l76 98h58zM640 -9l-10 -2l-488 622v-611h-55v741l13 3l484 -615v604h56v-742z" />
    <glyph glyph-name="ncaron" unicode="&#x148;" 
d="M374 631l-122 -149h-29l-120 149h59l78 -98l76 98h58zM415 0h-56v269c0 72.667 -32 109 -96 109c-48 0 -96.333 -26.667 -145 -80v-298h-55v418h53v-72c50 53.333 103.333 80 160 80c46 0 80.667 -13.167 104 -39.5s35 -61.5 35 -105.5v-281z" />
    <glyph glyph-name="Omacron" unicode="&#x14c;" horiz-adv-x="842" 
d="M565 832h-287v48h287v-48zM784 366c0 -107.333 -35.333 -196.832 -106 -268.499s-157 -107.5 -259 -107.5c-101.333 0 -186.833 35.833 -256.5 107.5s-104.5 161.167 -104.5 268.5s35.333 197.166 106 269.499s157 108.5 259 108.5c101.333 0 186.833 -36 256.5 -108
s104.5 -162 104.5 -270zM723 366.001c0 93.333 -28.5 171.166 -85.5 233.499s-129.167 93.5 -216.5 93.5s-159.5 -31.167 -216.5 -93.5s-85.5 -140.166 -85.5 -233.499c0 -92.667 28.5 -170.167 85.5 -232.5s129.167 -93.5 216.5 -93.5s159.5 31.167 216.5 93.5
s85.5 139.833 85.5 232.5z" />
    <glyph glyph-name="omacron" unicode="&#x14d;" horiz-adv-x="500" 
d="M394 512h-287v48h287v-48zM458 210c0 -61.333 -19.666 -112.999 -58.999 -154.999s-89 -63 -149 -63c-60.667 0 -110.334 20.833 -149.001 62.5s-58 93.167 -58 154.5c0 60.667 19.5 112 58.5 154s88.833 63 149.5 63c60 0 109.5 -20.833 148.5 -62.5
s58.5 -92.834 58.5 -153.501zM402.001 209.001c0 50 -14 90.833 -42 122.5s-64.667 47.5 -110 47.5s-82 -16 -110 -48s-42 -72.667 -42 -122s14 -90 42 -122s64.667 -48 110 -48s82 16 110 48s42 72.667 42 122z" />
    <glyph glyph-name="Obreve" unicode="&#x14e;" horiz-adv-x="842" 
d="M784 366c0 -107.333 -35.333 -196.832 -106 -268.499s-157 -107.5 -259 -107.5c-101.333 0 -186.833 35.833 -256.5 107.5s-104.5 161.167 -104.5 268.5s35.333 197.166 106 269.499s157 108.5 259 108.5c101.333 0 186.833 -36 256.5 -108s104.5 -162 104.5 -270z
M723 366.001c0 93.333 -28.5 171.166 -85.5 233.499s-129.167 93.5 -216.5 93.5s-159.5 -31.167 -216.5 -93.5s-85.5 -140.166 -85.5 -233.499c0 -92.667 28.5 -170.167 85.5 -232.5s129.167 -93.5 216.5 -93.5s159.5 31.167 216.5 93.5s85.5 139.833 85.5 232.5z
M543 925.001c0 -32.667 -11 -60.5 -33 -83.5s-51.667 -34.5 -89 -34.5c-36.667 0 -66 11.5 -88 34.5s-33.333 50.833 -34 83.5l51 5c0.666992 -24.667 7.16699 -44 19.5 -58s29.5 -21 51.5 -21s39.167 7 51.5 21s18.833 33.333 19.5 58z" />
    <glyph glyph-name="obreve" unicode="&#x14f;" horiz-adv-x="500" 
d="M458 210c0 -61.333 -19.666 -112.999 -58.999 -154.999s-89 -63 -149 -63c-60.667 0 -110.334 20.833 -149.001 62.5s-58 93.167 -58 154.5c0 60.667 19.5 112 58.5 154s88.833 63 149.5 63c60 0 109.5 -20.833 148.5 -62.5s58.5 -92.834 58.5 -153.501zM402.001 209.001
c0 50 -14 90.833 -42 122.5s-64.667 47.5 -110 47.5s-82 -16 -110 -48s-42 -72.667 -42 -122s14 -90 42 -122s64.667 -48 110 -48s82 16 110 48s42 72.667 42 122zM372.001 605.001c0 -32.667 -11 -60.5 -33 -83.5s-51.667 -34.5 -89 -34.5c-36.667 0 -66 11.5 -88 34.5
s-33.333 50.833 -34 83.5l51 5c0.666992 -24.667 7.16699 -44 19.5 -58s29.5 -21 51.5 -21s39.167 7 51.5 21s18.833 33.333 19.5 58z" />
    <glyph glyph-name="Ohungarumlaut" unicode="&#x150;" horiz-adv-x="842" 
d="M472 961l-110 -160l-28 18l88 173zM602 947l-108 -157l-28 18l86 170zM784 366c0 -107.333 -35.333 -196.832 -106 -268.499s-157 -107.5 -259 -107.5c-101.333 0 -186.833 35.833 -256.5 107.5s-104.5 161.167 -104.5 268.5s35.333 197.166 106 269.499
s157 108.5 259 108.5c101.333 0 186.833 -36 256.5 -108s104.5 -162 104.5 -270zM723 366.001c0 93.333 -28.5 171.166 -85.5 233.499s-129.167 93.5 -216.5 93.5s-159.5 -31.167 -216.5 -93.5s-85.5 -140.166 -85.5 -233.499c0 -92.667 28.5 -170.167 85.5 -232.5
s129.167 -93.5 216.5 -93.5s159.5 31.167 216.5 93.5s85.5 139.833 85.5 232.5z" />
    <glyph glyph-name="ohungarumlaut" unicode="&#x151;" horiz-adv-x="500" 
d="M301 641l-110 -160l-28 18l88 173zM431 627l-108 -157l-28 18l86 170zM458 210c0 -61.333 -19.666 -112.999 -58.999 -154.999s-89 -63 -149 -63c-60.667 0 -110.334 20.833 -149.001 62.5s-58 93.167 -58 154.5c0 60.667 19.5 112 58.5 154s88.833 63 149.5 63
c60 0 109.5 -20.833 148.5 -62.5s58.5 -92.834 58.5 -153.501zM402.001 209.001c0 50 -14 90.833 -42 122.5s-64.667 47.5 -110 47.5s-82 -16 -110 -48s-42 -72.667 -42 -122s14 -90 42 -122s64.667 -48 110 -48s82 16 110 48s42 72.667 42 122z" />
    <glyph glyph-name="OE" unicode="&#x152;" horiz-adv-x="1068" 
d="M1006 0l-401 0.00292969c-44.667 -4.66699 -88 -7 -130 -7c-66 0 -125.833 10.333 -179.5 31s-97.5 48.167 -131.5 82.5s-60.167 73.333 -78.5 117s-27.5 89.167 -27.5 136.5c0 51.333 9 99.666 27 144.999s43.833 85.666 77.5 120.999s77.167 63.166 130.5 83.499
s113 30.5 179 30.5c48 0 94 -2.33301 138 -7h396v-50h-358v-286h323v-50h-323v-296h358v-51zM592 50.0029v634c-33.333 5.33301 -74.333 8 -123 8c-112.667 0 -199.167 -30.833 -259.5 -92.5s-90.5 -141.5 -90.5 -239.5c0 -90.667 31.333 -166.167 94 -226.5
s149.667 -90.5 261 -90.5c46 0 85.333 2.33301 118 7z" />
    <glyph glyph-name="oe" unicode="&#x153;" horiz-adv-x="818" 
d="M780 224c0 -11.333 -0.335938 -20.335 -1.00293 -27.002h-323c2 -47.333 17.167 -85.166 45.5 -113.499s69.833 -42.5 124.5 -42.5c37.333 0 77 8.33301 119 25c0.666992 -2 1.33398 -4.66699 2.00098 -8s1.83398 -8.5 3.50098 -15.5s2.83398 -12.5 3.50098 -16.5l2 -7
c-47.333 -18 -91.666 -27 -132.999 -27c-95.333 0 -160.666 36 -195.999 108c-16.667 -33.333 -40.5 -59.666 -71.5 -78.999s-66.167 -29 -105.5 -29c-60.667 0 -110.334 20.833 -149.001 62.5s-58 93.167 -58 154.5c0 60.667 19.5 112 58.5 154s88.833 63 149.5 63
c39.333 0 74.5 -9.66699 105.5 -29s54.833 -45.333 71.5 -78c16 32.667 38.667 58.667 68 78s63.666 29 102.999 29c57.333 0 101.833 -18.833 133.5 -56.5s47.5 -86.167 47.5 -145.5zM726.997 240.998c-2 40.667 -14.167 73.667 -36.5 99s-54.166 38 -95.499 38
c-39.333 0 -70.833 -12.333 -94.5 -37s-37.834 -58 -42.501 -100h269zM401.997 208.998c0 50 -14 90.833 -42 122.5s-64.667 47.5 -110 47.5s-82 -16 -110 -48s-42 -72.667 -42 -122s14 -90 42 -122s64.667 -48 110 -48s82 16 110 48s42 72.667 42 122z" />
    <glyph glyph-name="Racute" unicode="&#x154;" horiz-adv-x="590" 
d="M565 0h-68l-200 298c-18 -2.66699 -39.333 -4 -64 -4c-27.333 0 -57 1.33301 -89 4v-298h-57v726c62 8 114.333 12 157 12c88.667 0 157.167 -19.833 205.5 -59.5s72.5 -92.167 72.5 -157.5c0 -50.667 -14.833 -94.5 -44.5 -131.5s-71.5 -63.5 -125.5 -79.5zM462 518
c0 50.667 -18.5 91.667 -55.5 123s-89.167 47 -156.5 47c-36 0 -71.333 -3 -106 -9v-331c33.333 -4 64 -6 92 -6c72.667 0 128.5 15.667 167.5 47s58.5 74.333 58.5 129zM446 894l-192 -99l-18 31l181 123z" />
    <glyph glyph-name="racute" unicode="&#x155;" horiz-adv-x="285" 
d="M268 373c-30.667 -1.33301 -59.5 -9.33301 -86.5 -24s-48.167 -35.667 -63.5 -63v-286h-55v418h53v-79c41.333 58.667 92 88 152 88v-54zM325 574l-192 -99l-18 31l181 123z" />
    <glyph glyph-name="Rcommaaccent" unicode="&#x156;" horiz-adv-x="590" 
d="M565 0h-68l-200 298c-18 -2.66699 -39.333 -4 -64 -4c-27.333 0 -57 1.33301 -89 4v-298h-57v726c62 8 114.333 12 157 12c88.667 0 157.167 -19.833 205.5 -59.5s72.5 -92.167 72.5 -157.5c0 -50.667 -14.833 -94.5 -44.5 -131.5s-71.5 -63.5 -125.5 -79.5zM462 518
c0 50.667 -18.5 91.667 -55.5 123s-89.167 47 -156.5 47c-36 0 -71.333 -3 -106 -9v-331c33.333 -4 64 -6 92 -6c72.667 0 128.5 15.667 167.5 47s58.5 74.333 58.5 129zM331 -121c0 -23.333 -8.33301 -47.832 -25 -73.499s-37.334 -45.834 -62.001 -60.501l-11 13
c30.667 27.333 49.334 58 56.001 92c-14 1.33301 -25.167 6 -33.5 14s-12.5 17.667 -12.5 29s4 21 12 29s17.667 12 29 12c14 0 25.333 -5.16699 34 -15.5s13 -23.5 13 -39.5z" />
    <glyph glyph-name="rcommaaccent" unicode="&#x157;" horiz-adv-x="285" 
d="M268 373c-30.667 -1.33301 -59.5 -9.33301 -86.5 -24s-48.167 -35.667 -63.5 -63v-286h-55v418h53v-79c41.333 58.667 92 88 152 88v-54zM138 -127c0 -23.333 -8.33301 -47.832 -25 -73.499s-37.334 -45.834 -62.001 -60.501l-11 13c30.667 27.333 49.334 58 56.001 92
c-14 1.33301 -25.167 6 -33.5 14s-12.5 17.667 -12.5 29s4 21 12 29s17.667 12 29 12c14 0 25.333 -5.16699 34 -15.5s13 -23.5 13 -39.5z" />
    <glyph glyph-name="Rcaron" unicode="&#x158;" horiz-adv-x="590" 
d="M565 0h-68l-200 298c-18 -2.66699 -39.333 -4 -64 -4c-27.333 0 -57 1.33301 -89 4v-298h-57v726c62 8 114.333 12 157 12c88.667 0 157.167 -19.833 205.5 -59.5s72.5 -92.167 72.5 -157.5c0 -50.667 -14.833 -94.5 -44.5 -131.5s-71.5 -63.5 -125.5 -79.5zM462 518
c0 50.667 -18.5 91.667 -55.5 123s-89.167 47 -156.5 47c-36 0 -71.333 -3 -106 -9v-331c33.333 -4 64 -6 92 -6c72.667 0 128.5 15.667 167.5 47s58.5 74.333 58.5 129zM417 951l-122 -149h-29l-120 149h59l78 -98l76 98h58z" />
    <glyph glyph-name="rcaron" unicode="&#x159;" horiz-adv-x="285" 
d="M268 373c-30.667 -1.33301 -59.5 -9.33301 -86.5 -24s-48.167 -35.667 -63.5 -63v-286h-55v418h53v-79c41.333 58.667 92 88 152 88v-54zM296 631l-122 -149h-29l-120 149h59l78 -98l76 98h58z" />
    <glyph glyph-name="Sacute" unicode="&#x15a;" horiz-adv-x="517" 
d="M432 894l-192 -99l-18 31l181 123zM464 189c0 -58.667 -21.5 -106.832 -64.5 -144.499s-96.167 -56.5 -159.5 -56.5c-72 0 -142.667 22.667 -212 68l27 49c64.667 -44 128 -66 190 -66c48 0 87 13.5 117 40.5s45 61.167 45 102.5c0 40 -12.333 71.667 -37 95
s-66 48 -124 74c-62 27.333 -107.833 56.166 -137.5 86.499s-44.5 69.166 -44.5 116.499c0 54 20.5 99.333 61.5 136s93.833 55 158.5 55c60.667 0 115.667 -16.667 165 -50l-27 -47c-43.333 30.667 -91 46 -143 46c-48 0 -86.5 -13 -115.5 -39s-43.5 -58.333 -43.5 -97
c0 -36 12.333 -65.333 37 -88s62.667 -46 114 -70c68.667 -30.667 118 -61.167 148 -91.5s45 -70.166 45 -119.499z" />
    <glyph glyph-name="sacute" unicode="&#x15b;" horiz-adv-x="356" 
d="M346 574l-192 -99l-18 31l181 123zM311 116c0 -34 -12.498 -63.167 -37.498 -87.5s-57.167 -36.5 -96.5 -36.5c-50.667 0 -99.334 17.333 -146.001 52l27 40c40 -30.667 79 -46 117 -46c26.667 0 47.5 6.5 62.5 19.5s22.5 30.167 22.5 51.5
c0 18 -7.16699 33.333 -21.5 46s-31.666 22.834 -51.999 30.501s-40.5 16 -60.5 25s-37.167 21.833 -51.5 38.5s-21.5 37 -21.5 61c0 31.333 12.167 58.5 36.5 81.5s56.833 34.5 97.5 34.5c41.333 0 81.666 -13.333 120.999 -40l-25 -42c-34 24 -66.333 36 -97 36
c-26.667 0 -47 -6.16699 -61 -18.5s-21 -27.833 -21 -46.5c0 -17.333 7.16699 -32 21.5 -44s31.666 -21.833 51.999 -29.5s40.5 -15.834 60.5 -24.501s37.167 -21.5 51.5 -38.5s21.5 -37.833 21.5 -62.5z" />
    <glyph glyph-name="Scedilla" unicode="&#x15e;" horiz-adv-x="517" 
d="M341 -150c0 -24.667 -9.00098 -45.3311 -27.001 -61.998s-43 -25 -75 -25c-30.667 0 -66 11 -106 33l18 36c34.667 -19.333 64 -29 88 -29c17.333 0 30.833 4 40.5 12s14.5 19 14.5 33c0 35.333 -33.667 56.333 -101 63l-3 6l19 72c-62.667 6 -123 28.333 -181 67l27 49
c64.667 -44 128 -66 190 -66c48 0 87 13.5 117 40.5s45 61.167 45 102.5c0 40 -12.333 71.667 -37 95s-66 48 -124 74c-62 27.333 -107.833 56.166 -137.5 86.499s-44.5 69.166 -44.5 116.499c0 54 20.5 99.333 61.5 136s93.833 55 158.5 55
c60.667 0 115.667 -16.667 165 -50l-27 -47c-43.333 30.667 -91 46 -143 46c-48 0 -86.5 -13 -115.5 -39s-43.5 -58.333 -43.5 -97c0 -36 12.333 -65.333 37 -88s62.667 -46 114 -70c68.667 -30.667 118 -61.167 148 -91.5s45 -70.166 45 -119.499
c0 -58 -20.667 -105.5 -62 -142.5s-92.666 -56.5 -153.999 -58.5l-11 -43c35.333 -7.33301 61.5 -19.333 78.5 -36s25.5 -36.334 25.5 -59.001z" />
    <glyph glyph-name="scedilla" unicode="&#x15f;" horiz-adv-x="356" 
d="M270 -150c0 -24.667 -8.99902 -45.333 -26.999 -62s-43 -25 -75 -25c-30.667 0 -66 11 -106 33l18 36c34.667 -19.333 64 -29 88 -29c17.333 0 30.833 4 40.5 12s14.5 19 14.5 33c0 35.333 -33.667 56.333 -101 63l-3 6l21 78c-38 6.66699 -74.333 23 -109 49l27 40
c40 -30.667 79 -46 117 -46c26.667 0 47.5 6.5 62.5 19.5s22.5 30.167 22.5 51.5c0 18 -7.16699 33.333 -21.5 46s-31.666 22.834 -51.999 30.501s-40.5 16 -60.5 25s-37.167 21.833 -51.5 38.5s-21.5 37 -21.5 61c0 31.333 12.167 58.5 36.5 81.5s56.833 34.5 97.5 34.5
c41.333 0 81.666 -13.333 120.999 -40l-25 -42c-34 24 -66.333 36 -97 36c-26.667 0 -47 -6.16699 -61 -18.5s-21 -27.833 -21 -46.5c0 -17.333 7.16699 -32 21.5 -44s31.666 -21.833 51.999 -29.5s40.5 -15.834 60.5 -24.501s37.167 -21.5 51.5 -38.5
s21.5 -37.833 21.5 -62.5c0 -33.333 -12.5 -62.166 -37.5 -86.499s-56.833 -36.833 -95.5 -37.5l-12 -47c35.333 -7.33301 61.5 -19.333 78.5 -36s25.5 -36.334 25.5 -59.001z" />
    <glyph glyph-name="Scaron" unicode="&#x160;" horiz-adv-x="517" 
d="M402 951l-122 -149h-29l-120 149h59l78 -98l76 98h58zM464 189c0 -58.667 -21.5 -106.832 -64.5 -144.499s-96.167 -56.5 -159.5 -56.5c-72 0 -142.667 22.667 -212 68l27 49c64.667 -44 128 -66 190 -66c48 0 87 13.5 117 40.5s45 61.167 45 102.5
c0 40 -12.333 71.667 -37 95s-66 48 -124 74c-62 27.333 -107.833 56.166 -137.5 86.499s-44.5 69.166 -44.5 116.499c0 54 20.5 99.333 61.5 136s93.833 55 158.5 55c60.667 0 115.667 -16.667 165 -50l-27 -47c-43.333 30.667 -91 46 -143 46c-48 0 -86.5 -13 -115.5 -39
s-43.5 -58.333 -43.5 -97c0 -36 12.333 -65.333 37 -88s62.667 -46 114 -70c68.667 -30.667 118 -61.167 148 -91.5s45 -70.166 45 -119.499z" />
    <glyph glyph-name="scaron" unicode="&#x161;" horiz-adv-x="356" 
d="M317 631l-122 -149h-29l-120 149h59l78 -98l76 98h58zM311 116c0 -34 -12.498 -63.167 -37.498 -87.5s-57.167 -36.5 -96.5 -36.5c-50.667 0 -99.334 17.333 -146.001 52l27 40c40 -30.667 79 -46 117 -46c26.667 0 47.5 6.5 62.5 19.5s22.5 30.167 22.5 51.5
c0 18 -7.16699 33.333 -21.5 46s-31.666 22.834 -51.999 30.501s-40.5 16 -60.5 25s-37.167 21.833 -51.5 38.5s-21.5 37 -21.5 61c0 31.333 12.167 58.5 36.5 81.5s56.833 34.5 97.5 34.5c41.333 0 81.666 -13.333 120.999 -40l-25 -42c-34 24 -66.333 36 -97 36
c-26.667 0 -47 -6.16699 -61 -18.5s-21 -27.833 -21 -46.5c0 -17.333 7.16699 -32 21.5 -44s31.666 -21.833 51.999 -29.5s40.5 -15.834 60.5 -24.501s37.167 -21.5 51.5 -38.5s21.5 -37.833 21.5 -62.5z" />
    <glyph glyph-name="Tcommaaccent" unicode="&#x162;" horiz-adv-x="614" 
d="M353 -128c0 -23.333 -8.33301 -47.832 -25 -73.499s-37.334 -45.834 -62.001 -60.501l-11 13c30.667 27.333 49.334 58 56.001 92c-14 1.33301 -25.167 6 -33.5 14s-12.5 17.667 -12.5 29s4 21 12 29s17.667 12 29 12c14 0 25.333 -5.16699 34 -15.5s13 -23.5 13 -39.5z
M584 683.001h-248v-683h-57v683h-249v50h554v-50z" />
    <glyph glyph-name="tcommaaccent" unicode="&#x163;" horiz-adv-x="293" 
d="M214 -128c0 -23.333 -8.33301 -47.832 -25 -73.499s-37.334 -45.834 -62.001 -60.501l-11 13c30.667 27.333 49.334 58 56.001 92c-14 1.33301 -25.167 6 -33.5 14s-12.5 17.667 -12.5 29s4 21 12 29s17.667 12 29 12c14 0 25.333 -5.16699 34 -15.5s13 -23.5 13 -39.5z
M275 369.001h-132v-262c0 -44 23.333 -66 70 -66c13.333 0 28.333 1.66699 45 5l5 -47c-26 -4.66699 -47 -7 -63 -7c-74 0 -111 39.667 -111 119v258h-71v13l71 39v90l54 40v-133h132v-49z" />
    <glyph glyph-name="Tcaron" unicode="&#x164;" horiz-adv-x="614" 
d="M442 951l-122 -149h-29l-120 149h59l78 -98l76 98h58zM584 683h-248v-683h-57v683h-249v50h554v-50z" />
    <glyph glyph-name="tcaron" unicode="&#x165;" horiz-adv-x="293" 
d="M246 671l54 -8c0 -76 -30 -137.333 -90 -184l-25 21c38.667 40.667 59 97.667 61 171zM275 369h-132v-262c0 -44 23.333 -66 70 -66c13.333 0 28.333 1.66699 45 5l5 -47c-26 -4.66699 -47 -7 -63 -7c-74 0 -111 39.667 -111 119v258h-71v13l71 39v90l54 40v-133h132v-49
z" />
    <glyph glyph-name="Umacron" unicode="&#x16a;" horiz-adv-x="708" 
d="M628 266c0 -85.333 -24.999 -152.667 -74.999 -202s-116.667 -74 -200 -74c-85.333 0 -152 24 -200 72s-72 116 -72 204v467h56v-466c0 -73.333 19.167 -129.333 57.5 -168s91.166 -58 158.499 -58c66.667 0 119.667 19.5 159 58.5s59 94.833 59 167.5v466h57v-467z
M499.001 818.999h-287v48h287v-48z" />
    <glyph glyph-name="umacron" unicode="&#x16b;" 
d="M411 0h-52.999v69c-20.667 -21.333 -45.167 -39.5 -73.5 -54.5s-56.5 -22.5 -84.5 -22.5c-46.667 0 -81.834 13.167 -105.501 39.5s-35.5 61.5 -35.5 105.5v281h56v-269c0 -72.667 32.333 -109 97 -109c48.667 0 96.667 26 144 78v300h55v-418zM379.001 512h-287v48h287
v-48z" />
    <glyph glyph-name="Ubreve" unicode="&#x16c;" horiz-adv-x="708" 
d="M628 266c0 -85.333 -24.999 -152.667 -74.999 -202s-116.667 -74 -200 -74c-85.333 0 -152 24 -200 72s-72 116 -72 204v467h56v-466c0 -73.333 19.167 -129.333 57.5 -168s91.166 -58 158.499 -58c66.667 0 119.667 19.5 159 58.5s59 94.833 59 167.5v466h57v-467z
M477.001 911.999c0 -32.667 -11 -60.5 -33 -83.5s-51.667 -34.5 -89 -34.5c-36.667 0 -66 11.5 -88 34.5s-33.333 50.833 -34 83.5l51 5c0.666992 -24.667 7.16699 -44 19.5 -58s29.5 -21 51.5 -21s39.167 7 51.5 21s18.833 33.333 19.5 58z" />
    <glyph glyph-name="ubreve" unicode="&#x16d;" 
d="M411 0h-52.999v69c-20.667 -21.333 -45.167 -39.5 -73.5 -54.5s-56.5 -22.5 -84.5 -22.5c-46.667 0 -81.834 13.167 -105.501 39.5s-35.5 61.5 -35.5 105.5v281h56v-269c0 -72.667 32.333 -109 97 -109c48.667 0 96.667 26 144 78v300h55v-418zM357.001 605
c0 -32.667 -11 -60.5 -33 -83.5s-51.667 -34.5 -89 -34.5c-36.667 0 -66 11.5 -88 34.5s-33.333 50.833 -34 83.5l51 5c0.666992 -24.667 7.16699 -44 19.5 -58s29.5 -21 51.5 -21s39.167 7 51.5 21s18.833 33.333 19.5 58z" />
    <glyph glyph-name="Uring" unicode="&#x16e;" horiz-adv-x="708" 
d="M628 266c0 -85.333 -24.999 -152.667 -74.999 -202s-116.667 -74 -200 -74c-85.333 0 -152 24 -200 72s-72 116 -72 204v467h56v-466c0 -73.333 19.167 -129.333 57.5 -168s91.166 -58 158.499 -58c66.667 0 119.667 19.5 159 58.5s59 94.833 59 167.5v466h57v-467z
M457.001 892.999c0 -28.667 -9.5 -52.667 -28.5 -72s-43.833 -29 -74.5 -29c-30 0 -54.667 9.66699 -74 29s-29 43.333 -29 72c0 28 9.66699 51.833 29 71.5s44 29.5 74 29.5s54.667 -9.83301 74 -29.5s29 -43.5 29 -71.5zM416.001 892.999
c0 19.333 -5.83301 35.168 -17.5 47.501s-26.5 18.5 -44.5 18.5c-17.333 0 -31.833 -6.16699 -43.5 -18.5s-17.5 -28.166 -17.5 -47.499c0 -18.667 5.83301 -34.334 17.5 -47.001s26.167 -19 43.5 -19c18 0 32.833 6.16699 44.5 18.5s17.5 28.166 17.5 47.499z" />
    <glyph glyph-name="uring" unicode="&#x16f;" 
d="M337 586c0 -28.667 -9.5 -52.667 -28.5 -72s-43.833 -29 -74.5 -29c-30 0 -54.667 9.66699 -74 29s-29 43.333 -29 72c0 28 9.66699 51.833 29 71.5s44 29.5 74 29.5s54.667 -9.83301 74 -29.5s29 -43.5 29 -71.5zM296 586c0 19.333 -5.83301 35.168 -17.5 47.501
s-26.5 18.5 -44.5 18.5c-17.333 0 -31.833 -6.16699 -43.5 -18.5s-17.5 -28.166 -17.5 -47.499c0 -18.667 5.83301 -34.334 17.5 -47.001s26.167 -19 43.5 -19c18 0 32.833 6.16699 44.5 18.5s17.5 28.166 17.5 47.499zM411 0.00195312h-52.999v69
c-20.667 -21.333 -45.167 -39.5 -73.5 -54.5s-56.5 -22.5 -84.5 -22.5c-46.667 0 -81.834 13.167 -105.501 39.5s-35.5 61.5 -35.5 105.5v281h56v-269c0 -72.667 32.333 -109 97 -109c48.667 0 96.667 26 144 78v300h55v-418z" />
    <glyph glyph-name="Uhungarumlaut" unicode="&#x170;" horiz-adv-x="708" 
d="M628 266c0 -85.333 -24.999 -152.667 -74.999 -202s-116.667 -74 -200 -74c-85.333 0 -152 24 -200 72s-72 116 -72 204v467h56v-466c0 -73.333 19.167 -129.333 57.5 -168s91.166 -58 158.499 -58c66.667 0 119.667 19.5 159 58.5s59 94.833 59 167.5v466h57v-467z
M406.001 947.999l-110 -160l-28 18l88 173zM536.001 933.999l-108 -157l-28 18l86 170z" />
    <glyph glyph-name="uhungarumlaut" unicode="&#x171;" 
d="M411 0h-52.999v69c-20.667 -21.333 -45.167 -39.5 -73.5 -54.5s-56.5 -22.5 -84.5 -22.5c-46.667 0 -81.834 13.167 -105.501 39.5s-35.5 61.5 -35.5 105.5v281h56v-269c0 -72.667 32.333 -109 97 -109c48.667 0 96.667 26 144 78v300h55v-418zM286.001 641l-110 -160
l-28 18l88 173zM416.001 627l-108 -157l-28 18l86 170z" />
    <glyph glyph-name="Uogonek" unicode="&#x172;" horiz-adv-x="708" 
d="M628 266c0 -79.333 -21.667 -143.168 -65 -191.501s-102 -75.833 -176 -82.5c-48.667 -55.333 -73 -98.333 -73 -129c0 -13.333 3.5 -23.833 10.5 -31.5s16.167 -11.5 27.5 -11.5c20 0 38.667 11.333 56 34l24 -23c-24.667 -33.333 -53.667 -50 -87 -50
c-23.333 -0.666992 -42.166 6 -56.499 20s-21.5 32.667 -21.5 56c0.666992 38 25 82.333 73 133c-81.333 2.66699 -144.833 27.834 -190.5 75.501s-68.5 114.5 -68.5 200.5v467h56v-466c0 -73.333 19.167 -129.333 57.5 -168s91.166 -58 158.499 -58
c66.667 0 119.667 19.5 159 58.5s59 94.833 59 167.5v466h57v-467z" />
    <glyph glyph-name="uogonek" unicode="&#x173;" 
d="M411 0l-10 0.000976562c-54 -58.667 -81 -104.334 -81 -137.001c0 -13.333 3.5 -23.833 10.5 -31.5s16.167 -11.5 27.5 -11.5c20 0 38.667 11.333 56 34l24 -23c-24.667 -33.333 -53.667 -50 -87 -50c-23.333 -0.666992 -42.166 6 -56.499 20s-21.5 32.667 -21.5 56
c0.666992 22 7.5 44 20.5 66s34.5 48.333 64.5 79v67c-20.667 -21.333 -45.167 -39.5 -73.5 -54.5s-56.5 -22.5 -84.5 -22.5c-46.667 0 -81.834 13.167 -105.501 39.5s-35.5 61.5 -35.5 105.5v281h56v-269c0 -72.667 32.333 -109 97 -109c48.667 0 96.667 26 144 78v300h55
v-418z" />
    <glyph glyph-name="Wcircumflex" unicode="&#x174;" horiz-adv-x="952" 
d="M611 807h-59l-79 98l-75 -98h-58l121 149h30zM918 733l-192 -743l-14 -2l-237 627l-235 -627l-14 2l-192 743h56l154 -601l227 605h10l229 -603l153 599h55z" />
    <glyph glyph-name="wcircumflex" unicode="&#x175;" horiz-adv-x="611" 
d="M442 487h-59l-79 98l-75 -98h-58l121 149h30zM593 418l-140 -430h-10l-134 324l-137 -324h-10l-141 430h60l94 -314l128 314h10l131 -314l90 314h59z" />
    <glyph glyph-name="Ycircumflex" unicode="&#x176;" horiz-adv-x="626" 
d="M597 733l-256 -404v-329h-56v330l-256 403h63l223 -356l220 356h62zM448 794h-59l-79 98l-75 -98h-58l121 149h30z" />
    <glyph glyph-name="ycircumflex" unicode="&#x177;" horiz-adv-x="427" 
d="M420 418l-295 -634h-56l118 244l-179 390h61l145 -334l146 334h60zM349 487h-59l-79 98l-75 -98h-58l121 149h30z" />
    <glyph glyph-name="Ydieresis" unicode="&#x178;" horiz-adv-x="626" 
d="M597 733l-256 -404v-329h-56v330l-256 403h63l223 -356l220 356h62zM440 850c0 -11.333 -4.16699 -21.166 -12.5 -29.499s-18.166 -12.5 -29.499 -12.5c-12 0 -22.167 4.16699 -30.5 12.5s-12.5 18.166 -12.5 29.499s4.16699 21.333 12.5 30s18.5 13 30.5 13
c11.333 0 21.166 -4.33301 29.499 -13s12.5 -18.667 12.5 -30zM269 850c0 -11.333 -4.16699 -21.166 -12.5 -29.499s-18.166 -12.5 -29.499 -12.5s-21.166 4.16699 -29.499 12.5s-12.5 18.166 -12.5 29.499s4.16699 21.333 12.5 30s18.166 13 29.499 13
s21.166 -4.33301 29.499 -13s12.5 -18.667 12.5 -30z" />
    <glyph glyph-name="Zacute" unicode="&#x179;" horiz-adv-x="631" 
d="M480 894l-192 -99l-18 31l181 123zM580 723l-446 -672h441v-51h-525l-4 10l445 673h-420v50h504z" />
    <glyph glyph-name="zacute" unicode="&#x17a;" horiz-adv-x="397" 
d="M362 574l-192 -99l-18 31l181 123zM376 408l-276 -360h270v-48h-352l-4 9l276 361h-256v48h338z" />
    <glyph glyph-name="Zdotaccent" unicode="&#x17b;" horiz-adv-x="631" 
d="M580 723l-446 -672h441v-51h-525l-4 10l445 673h-420v50h504zM272 863c0 11.333 4.16699 21.333 12.5 30s18.166 13 29.499 13c12 0 22.167 -4.33301 30.5 -13s12.5 -18.667 12.5 -30s-4.16699 -21.166 -12.5 -29.499s-18.5 -12.5 -30.5 -12.5
c-11.333 0 -21.166 4.16699 -29.499 12.5s-12.5 18.166 -12.5 29.499z" />
    <glyph glyph-name="zdotaccent" unicode="&#x17c;" horiz-adv-x="397" 
d="M376 408l-276 -360h270v-48h-352l-4 9l276 361h-256v48h338zM155 543c0 11.333 4.16699 21.333 12.5 30s18.166 13 29.499 13c12 0 22.167 -4.33301 30.5 -13s12.5 -18.667 12.5 -30s-4.16699 -21.166 -12.5 -29.499s-18.5 -12.5 -30.5 -12.5
c-11.333 0 -21.166 4.16699 -29.499 12.5s-12.5 18.166 -12.5 29.499z" />
    <glyph glyph-name="Zcaron" unicode="&#x17d;" horiz-adv-x="631" 
d="M450 951l-122 -149h-29l-120 149h59l78 -98l76 98h58zM580 723l-446 -672h441v-51h-525l-4 10l445 673h-420v50h504z" />
    <glyph glyph-name="zcaron" unicode="&#x17e;" horiz-adv-x="397" 
d="M333 631l-122 -149h-29l-120 149h59l78 -98l76 98h58zM376 408l-276 -360h270v-48h-352l-4 9l276 361h-256v48h338z" />
    <glyph glyph-name="florin" unicode="&#x192;" horiz-adv-x="375" 
d="M367 576l-10.999 -48c-15.333 4.66699 -31.333 7 -48 7c-36 0 -63 -10.833 -81 -32.5s-30 -57.167 -36 -106.5l-7 -60h100l-2 -48h-103l-33 -288h-56l33 288h-62l3 11l65 40l6 53c14 129.333 71 194 171 194c21.333 0 41.666 -3.33301 60.999 -10z" />
    <glyph glyph-name="Aringacute" unicode="&#x1fa;" horiz-adv-x="696" 
d="M503 1038l-192 -99l-18 31l181 123zM451 811c0 -25.333 -7.66797 -47.168 -23.001 -65.501s-35.666 -29.833 -60.999 -34.5l307 -711h-60l-95 224h-344l-94 -224h-59l306 712c-24.667 4 -44.667 15.333 -60 34s-23 40.334 -23 65.001c0 28.667 9.66699 52.667 29 72
s44 29 74 29c30.667 0 55.5 -9.66699 74.5 -29s28.5 -43.333 28.5 -72zM497.999 271.998l-151 359l-151 -359h302zM409.999 811.998c0 18.667 -5.83301 34.167 -17.5 46.5s-26.5 18.5 -44.5 18.5c-17.333 0 -31.833 -6.16699 -43.5 -18.5s-17.5 -27.833 -17.5 -46.5
c0 -19.333 5.83301 -35.166 17.5 -47.499s26.167 -18.5 43.5 -18.5c18 0 32.833 6.16699 44.5 18.5s17.5 28.166 17.5 47.499z" />
    <glyph glyph-name="aringacute" unicode="&#x1fb;" horiz-adv-x="433" 
d="M376 0h-52.001v45c-35.333 -35.333 -79.333 -53 -132 -53c-44 0 -80.667 11.667 -110 35s-44 55.333 -44 96c0 38.667 14.833 70.167 44.5 94.5s66.834 36.5 111.501 36.5c39.333 0 81.666 -10.667 126.999 -32v38c0 40 -9.5 69.5 -28.5 88.5s-49.833 28.5 -92.5 28.5
c-37.333 0 -73.666 -7.66699 -108.999 -23l-11 48c43.333 16 85.333 24 126 24c113.333 0 170 -55.333 170 -166v-260zM320.999 586c0 -28.667 -9.5 -52.667 -28.5 -72s-43.833 -29 -74.5 -29c-30 0 -54.667 9.66699 -74 29s-29 43.333 -29 72c0 28 9.66699 51.833 29 71.5
s44 29.5 74 29.5s54.667 -9.83301 74 -29.5s29 -43.5 29 -71.5zM320.999 93v82c-41.333 23.333 -81.333 35 -120 35c-32.667 0 -59.167 -7.5 -79.5 -22.5s-30.5 -36.5 -30.5 -64.5c0 -27.333 10 -48.333 30 -63s47.333 -22 82 -22c48 0 87.333 18.333 118 55zM279.999 586
c0 19.333 -5.83301 35.168 -17.5 47.501s-26.5 18.5 -44.5 18.5c-17.333 0 -31.833 -6.16699 -43.5 -18.5s-17.5 -28.166 -17.5 -47.499c0 -18.667 5.83301 -34.334 17.5 -47.001s26.167 -19 43.5 -19c18 0 32.833 6.16699 44.5 18.5s17.5 28.166 17.5 47.499z
M382.999 829.002l-192 -99l-18 31l181 123z" />
    <glyph glyph-name="AEacute" unicode="&#x1fc;" horiz-adv-x="1020" 
d="M958 0h-414v241h-288l-171 -241h-66l527 733h412v-50h-357v-286h322v-50h-322v-296h357v-51zM544 289v357l-254 -357h254zM811 894l-192 -99l-18 31l181 123z" />
    <glyph glyph-name="aeacute" unicode="&#x1fd;" horiz-adv-x="738" 
d="M534 574l-192 -99l-18 31l181 123zM321 222l-0.00292969 38c0 40 -9.33301 69.5 -28 88.5s-49.667 28.5 -93 28.5c-37.333 0 -73.666 -7.66699 -108.999 -23l-11 48c43.333 16 85.666 24 126.999 24c82 0 132.333 -30 151 -90c35.333 60 89 90 161 90
c56.667 0 100.834 -18.667 132.501 -56s47.5 -85.333 47.5 -144c0 -12.667 -0.333008 -22.334 -1 -29.001h-323c2.66699 -47.333 18.167 -85.166 46.5 -113.499s69.833 -42.5 124.5 -42.5c37.333 0 76.666 8.33301 117.999 25c0.666992 -2 1.33398 -4.66699 2.00098 -8
s2 -8.5 4 -15.5s3.33301 -12.5 4 -16.5l2 -7c-47.333 -18 -91.666 -27 -132.999 -27c-94 0 -157.667 34.667 -191 104c-16 -33.333 -39 -59 -69 -77s-63.333 -27 -100 -27c-40.667 0 -75 11.833 -103 35.5s-42 55.5 -42 95.5c0 38.667 14.833 70.167 44.5 94.5
s66.5 36.5 110.5 36.5c42.667 0 85.334 -10.667 128.001 -32zM646.997 241c-2.66699 40.667 -15 73.667 -37 99s-53.667 38 -95 38c-39.333 0 -71 -12.333 -95 -37s-38.333 -58 -43 -100h270zM324.997 168c-36.667 28 -78 42 -124 42c-32.667 0 -59.167 -7.5 -79.5 -22.5
s-30.5 -36.5 -30.5 -64.5c0 -27.333 9.33301 -48.333 28 -63s43.667 -22 75 -22c32 0 60.5 10.667 85.5 32s40.167 54 45.5 98z" />
    <glyph glyph-name="Oslashacute" unicode="&#x1fe;" horiz-adv-x="842" 
d="M784 366c0 -107.333 -35.333 -196.834 -106 -268.501s-157 -107.5 -259 -107.5c-92 0 -172 30.333 -240 91l-83 -87l-34 35c3.33301 4 8 8.83301 14 14.5s15.167 14.834 27.5 27.501l30.5 31l12 13c-58.667 70.667 -88 154.334 -88 251.001
c0 107.333 35.333 197.166 106 269.499s157 108.5 259 108.5c92.667 0 172.667 -31 240 -93l84 88l34 -34l-85 -88c58.667 -69.333 88 -153 88 -251zM625 611.999c-56 54 -124 80.999 -204 80.999c-87.333 0 -159.5 -31.167 -216.5 -93.5s-85.5 -140.166 -85.5 -233.499
c0 -81.333 22.333 -151 67 -209zM723 365.998c0 82 -22.333 152 -67 210l-110 -114l-219 -228l-110 -114c56.667 -53.333 124.667 -80 204 -80c87.333 0 159.5 31.167 216.5 93.5s85.5 139.833 85.5 232.5zM586 893.998l-192 -99l-18 31l181 123z" />
    <glyph glyph-name="oslashacute" unicode="&#x1ff;" horiz-adv-x="500" 
d="M474 394l-56 -52.999c26.667 -36.667 40 -80.334 40 -131.001c0 -62 -19.5 -113.833 -58.5 -155.5s-88.833 -62.5 -149.5 -62.5c-55.333 0 -102 18 -140 54l-56 -54l-29 29l58 55c-26.667 38 -40 82.333 -40 133c0 61.333 19.5 112.833 58.5 154.5
s88.833 62.5 149.5 62.5c56 0 103 -18.333 141 -55l54 52zM121 112.001l235 225c-26.667 28 -62 42 -106 42c-46 0 -82.833 -15.667 -110.5 -47s-41.5 -72.333 -41.5 -123c0 -36 7.66699 -68.333 23 -97zM380 304.001l-234 -224c27.333 -27.333 62 -41 104 -41
c46 0 83 15.833 111 47.5s42 72.5 42 122.5c0 36 -7.66699 67.667 -23 95zM414 574.001l-192 -99l-18 31l181 123z" />
    <glyph glyph-name="Scommaaccent" unicode="&#x218;" horiz-adv-x="517" 
d="M298 -128c0 -23.333 -8.33301 -47.832 -25 -73.499s-37.334 -45.834 -62.001 -60.501l-11 13c30.667 27.333 49.334 58 56.001 92c-14 1.33301 -25.167 6 -33.5 14s-12.5 17.667 -12.5 29s4 21 12 29s17.667 12 29 12c14 0 25.333 -5.16699 34 -15.5s13 -23.5 13 -39.5z
M464 189.001c0 -58.667 -21.5 -106.832 -64.5 -144.499s-96.167 -56.5 -159.5 -56.5c-72 0 -142.667 22.667 -212 68l27 49c64.667 -44 128 -66 190 -66c48 0 87 13.5 117 40.5s45 61.167 45 102.5c0 40 -12.333 71.667 -37 95s-66 48 -124 74
c-62 27.333 -107.833 56.166 -137.5 86.499s-44.5 69.166 -44.5 116.499c0 54 20.5 99.333 61.5 136s93.833 55 158.5 55c60.667 0 115.667 -16.667 165 -50l-27 -47c-43.333 30.667 -91 46 -143 46c-48 0 -86.5 -13 -115.5 -39s-43.5 -58.333 -43.5 -97
c0 -36 12.333 -65.333 37 -88s62.667 -46 114 -70c68.667 -30.667 118 -61.167 148 -91.5s45 -70.166 45 -119.499z" />
    <glyph glyph-name="scommaaccent" unicode="&#x219;" horiz-adv-x="356" 
d="M220 -128c0 -23.333 -8.33301 -47.832 -25 -73.499s-37.334 -45.834 -62.001 -60.501l-11 13c30.667 27.333 49.334 58 56.001 92c-14 1.33301 -25.167 6 -33.5 14s-12.5 17.667 -12.5 29s4 21 12 29s17.667 12 29 12c14 0 25.333 -5.16699 34 -15.5s13 -23.5 13 -39.5z
M311 116.001c0 -34 -12.498 -63.167 -37.498 -87.5s-57.167 -36.5 -96.5 -36.5c-50.667 0 -99.334 17.333 -146.001 52l27 40c40 -30.667 79 -46 117 -46c26.667 0 47.5 6.5 62.5 19.5s22.5 30.167 22.5 51.5c0 18 -7.16699 33.333 -21.5 46s-31.666 22.834 -51.999 30.501
s-40.5 16 -60.5 25s-37.167 21.833 -51.5 38.5s-21.5 37 -21.5 61c0 31.333 12.167 58.5 36.5 81.5s56.833 34.5 97.5 34.5c41.333 0 81.666 -13.333 120.999 -40l-25 -42c-34 24 -66.333 36 -97 36c-26.667 0 -47 -6.16699 -61 -18.5s-21 -27.833 -21 -46.5
c0 -17.333 7.16699 -32 21.5 -44s31.666 -21.833 51.999 -29.5s40.5 -15.834 60.5 -24.501s37.167 -21.5 51.5 -38.5s21.5 -37.833 21.5 -62.5z" />
    <glyph glyph-name="schwa" unicode="&#x259;" horiz-adv-x="461" 
d="M39 193c0 11.333 0.669922 20.333 2.00293 27h323c-2.66699 47.333 -18.167 85.166 -46.5 113.499s-69.833 42.5 -124.5 42.5c-37.333 0 -77 -8.33301 -119 -25c-0.666992 2 -1.33398 4.66699 -2.00098 8s-1.83398 8.5 -3.50098 15.5s-3.16699 12.833 -4.5 17.5l-1 6
c47.333 18 91.666 27 132.999 27c71.333 0 126.333 -20.167 165 -60.5s58 -92.166 58 -155.499c0 -61.333 -18.167 -113 -54.5 -155s-84.5 -63 -144.5 -63c-57.333 0 -101.833 18.833 -133.5 56.5s-47.5 86.167 -47.5 145.5zM362.003 176h-270
c2.66699 -40.667 15 -73.667 37 -99s53.667 -38 95 -38c39.333 0 71 12.333 95 37s38.333 58 43 100z" />
    <glyph glyph-name="circumflex" unicode="&#x2c6;" horiz-adv-x="440" 
d="M357 487h-59l-79 98l-75 -98h-58l121 149h30z" />
    <glyph glyph-name="caron" unicode="&#x2c7;" horiz-adv-x="440" 
d="M355 631l-122 -149h-29l-120 149h59l78 -98l76 98h58z" />
    <glyph glyph-name="breve" unicode="&#x2d8;" horiz-adv-x="440" 
d="M342 605c0 -32.667 -11 -60.5 -33 -83.5s-51.667 -34.5 -89 -34.5c-36.667 0 -66 11.5 -88 34.5s-33.333 50.833 -34 83.5l51 5c0.666992 -24.667 7.16699 -44 19.5 -58s29.5 -21 51.5 -21s39.167 7 51.5 21s18.833 33.333 19.5 58z" />
    <glyph glyph-name="dotaccent" unicode="&#x2d9;" horiz-adv-x="440" 
d="M178 543c0 11.333 4.16699 21.333 12.5 30s18.166 13 29.499 13c12 0 22.167 -4.33301 30.5 -13s12.5 -18.667 12.5 -30s-4.16699 -21.166 -12.5 -29.499s-18.5 -12.5 -30.5 -12.5c-11.333 0 -21.166 4.16699 -29.499 12.5s-12.5 18.166 -12.5 29.499z" />
    <glyph glyph-name="ring" unicode="&#x2da;" horiz-adv-x="440" 
d="M323 586c0 -28.667 -9.5 -52.667 -28.5 -72s-43.833 -29 -74.5 -29c-30 0 -54.667 9.66699 -74 29s-29 43.333 -29 72c0 28 9.66699 51.833 29 71.5s44 29.5 74 29.5s54.667 -9.83301 74 -29.5s29 -43.5 29 -71.5zM282 586c0 19.333 -5.83301 35.168 -17.5 47.501
s-26.5 18.5 -44.5 18.5c-17.333 0 -31.833 -6.16699 -43.5 -18.5s-17.5 -28.166 -17.5 -47.499c0 -18.667 5.83301 -34.334 17.5 -47.001s26.167 -19 43.5 -19c18 0 32.833 6.16699 44.5 18.5s17.5 28.166 17.5 47.499z" />
    <glyph glyph-name="ogonek" unicode="&#x2db;" horiz-adv-x="440" 
d="M323 -169c-24.667 -33.333 -53.6689 -50 -87.002 -50c-23.333 -0.666992 -42.166 6 -56.499 20s-21.5 32.667 -21.5 56c0.666992 24.667 9.33398 49.5 26.001 74.5s45 57.5 85 97.5l20 -26c-56 -61.333 -84 -108 -84 -140c0 -13.333 3.5 -23.833 10.5 -31.5
s16.167 -11.5 27.5 -11.5c20 0 38.667 11.333 56 34z" />
    <glyph glyph-name="tilde" unicode="&#x2dc;" horiz-adv-x="440" 
d="M370 551c-31.333 -37.333 -62.6641 -55.333 -93.9971 -54c-16.667 0 -37.334 7.33301 -62.001 22c-22 14 -39.333 21.333 -52 22c-20.667 0 -42.334 -13.667 -65.001 -41l-28 34c31.333 37.333 62.666 55.333 93.999 54c17.333 0 37.666 -7.33301 60.999 -22
c23.333 -14 41 -21.333 53 -22c20.667 0 42.334 13.667 65.001 41z" />
    <glyph glyph-name="hungarumlaut" unicode="&#x2dd;" horiz-adv-x="440" 
d="M236 641l-110 -160l-28 18l88 173zM366 627l-108 -157l-28 18l86 170z" />
    <glyph glyph-name="commaaccent" unicode="&#x326;" horiz-adv-x="188" 
d="M141 -128c0 -23.333 -8.33301 -47.832 -25 -73.499s-37.334 -45.834 -62.001 -60.501l-11 13c30.667 27.333 49.334 58 56.001 92c-14 1.33301 -25.167 6 -33.5 14s-12.5 17.667 -12.5 29s4 21 12 29s17.667 12 29 12c14 0 25.333 -5.16699 34 -15.5s13 -23.5 13 -39.5z
" />
    <glyph glyph-name="Wgrave" unicode="&#x1e80;" horiz-adv-x="952" 
d="M918 733l-192 -743l-14 -2l-237 627l-235 -627l-14 2l-192 743h56l154 -601l227 605h10l229 -603l153 599h55zM518 825l-19 -30l-192 99l31 54z" />
    <glyph glyph-name="wgrave" unicode="&#x1e81;" horiz-adv-x="611" 
d="M593 418l-140 -430h-10l-134 324l-137 -324h-10l-141 430h60l94 -314l128 314h10l131 -314l90 314h59zM348 505l-19 -30l-192 99l31 54z" />
    <glyph glyph-name="Wacute" unicode="&#x1e82;" horiz-adv-x="952" 
d="M641 894l-192 -99l-18 31l181 123zM918 733l-192 -743l-14 -2l-237 627l-235 -627l-14 2l-192 743h56l154 -601l227 605h10l229 -603l153 599h55z" />
    <glyph glyph-name="wacute" unicode="&#x1e83;" horiz-adv-x="611" 
d="M472 574l-192 -99l-18 31l181 123zM593 418l-140 -430h-10l-134 324l-137 -324h-10l-141 430h60l94 -314l128 314h10l131 -314l90 314h59z" />
    <glyph glyph-name="Wdieresis" unicode="&#x1e84;" horiz-adv-x="952" 
d="M604 863c0 -11.333 -4.16699 -21.166 -12.5 -29.499s-18.166 -12.5 -29.499 -12.5c-12 0 -22.167 4.16699 -30.5 12.5s-12.5 18.166 -12.5 29.499s4.16699 21.333 12.5 30s18.5 13 30.5 13c11.333 0 21.166 -4.33301 29.499 -13s12.5 -18.667 12.5 -30zM433 863
c0 -11.333 -4.16699 -21.166 -12.5 -29.499s-18.166 -12.5 -29.499 -12.5s-21.166 4.16699 -29.499 12.5s-12.5 18.166 -12.5 29.499s4.16699 21.333 12.5 30s18.166 13 29.499 13s21.166 -4.33301 29.499 -13s12.5 -18.667 12.5 -30zM918 733l-192 -743l-14 -2l-237 627
l-235 -627l-14 2l-192 743h56l154 -601l227 605h10l229 -603l153 599h55z" />
    <glyph glyph-name="wdieresis" unicode="&#x1e85;" horiz-adv-x="611" 
d="M434 543c0 -11.333 -4.16699 -21.166 -12.5 -29.499s-18.166 -12.5 -29.499 -12.5c-12 0 -22.167 4.16699 -30.5 12.5s-12.5 18.166 -12.5 29.499s4.16699 21.333 12.5 30s18.5 13 30.5 13c11.333 0 21.166 -4.33301 29.499 -13s12.5 -18.667 12.5 -30zM263 543
c0 -11.333 -4.16699 -21.166 -12.5 -29.499s-18.166 -12.5 -29.499 -12.5s-21.166 4.16699 -29.499 12.5s-12.5 18.166 -12.5 29.499s4.16699 21.333 12.5 30s18.166 13 29.499 13s21.166 -4.33301 29.499 -13s12.5 -18.667 12.5 -30zM593 418l-140 -430h-10l-134 324
l-137 -324h-10l-141 430h60l94 -314l128 314h10l131 -314l90 314h59z" />
    <glyph glyph-name="Ygrave" unicode="&#x1ef2;" horiz-adv-x="626" 
d="M597 733l-256 -404v-329h-56v330l-256 403h63l223 -356l220 356h62zM354 812l-19 -30l-192 99l31 54z" />
    <glyph glyph-name="ygrave" unicode="&#x1ef3;" horiz-adv-x="427" 
d="M420 418l-295 -634h-56l118 244l-179 390h61l145 -334l146 334h60zM255 505l-19 -30l-192 99l31 54z" />
    <glyph glyph-name="enspace" unicode="&#x2002;" horiz-adv-x="500" 
 />
    <glyph glyph-name="emspace" unicode="&#x2003;" horiz-adv-x="1000" 
 />
    <glyph glyph-name="threeperemspace" unicode="&#x2004;" horiz-adv-x="333" 
 />
    <glyph glyph-name="fourperemspace" unicode="&#x2005;" horiz-adv-x="250" 
 />
    <glyph glyph-name="figurespace" unicode="&#x2007;" horiz-adv-x="520" 
 />
    <glyph glyph-name="thinspace" unicode="&#x2009;" horiz-adv-x="133" 
 />
    <glyph glyph-name="hairspace" unicode="&#x200a;" horiz-adv-x="75" 
 />
    <glyph glyph-name="endash" unicode="&#x2013;" horiz-adv-x="500" 
d="M450 218h-400v49h400v-49z" />
    <glyph glyph-name="emdash" unicode="&#x2014;" horiz-adv-x="750" 
d="M700 218h-650v49h650v-49z" />
    <glyph glyph-name="quoteleft" unicode="&#x2018;" horiz-adv-x="158" 
d="M121 597c0 -11.333 -3.99902 -21.002 -11.999 -29.002s-17.667 -12 -29 -12c-14.667 0 -26.334 5.16699 -35.001 15.5s-13 23.833 -13 40.5c0 24.667 8.33301 49.834 25 75.501s37.667 46.167 63 61.5l11 -13c-32 -30.667 -51 -62.334 -57 -95.001
c14.667 -1.33301 26.167 -6.16602 34.5 -14.499s12.5 -18.166 12.5 -29.499z" />
    <glyph glyph-name="quoteright" unicode="&#x2019;" horiz-adv-x="158" 
d="M127 687c0 -24 -8.49902 -48.8311 -25.499 -74.498s-38.167 -46.167 -63.5 -61.5l-11 13c31.333 28.667 50.333 60 57 94c-14 1.33301 -25.333 6.16602 -34 14.499s-13 18.5 -13 30.5c0 11.333 4.16699 21 12.5 29s18.166 12 29.499 12c14 0 25.5 -5.33301 34.5 -16
s13.5 -24.334 13.5 -41.001z" />
    <glyph glyph-name="quotesinglbase" unicode="&#x201a;" horiz-adv-x="158" 
d="M127 23c0 -24.667 -8.49902 -49.833 -25.499 -75.5s-38.167 -46.167 -63.5 -61.5l-11 13c31.333 28.667 50.333 60 57 94c-14 1.33301 -25.333 6.33301 -34 15s-13 18.667 -13 30s4.16699 21 12.5 29s18.166 12 29.499 12c14 0 25.5 -5.16699 34.5 -15.5
s13.5 -23.833 13.5 -40.5z" />
    <glyph glyph-name="quotedblleft" unicode="&#x201c;" horiz-adv-x="292" 
d="M255 597c0 -11.333 -3.99902 -21.002 -11.999 -29.002s-17.667 -12 -29 -12c-14.667 0 -26.334 5.16699 -35.001 15.5s-13 23.833 -13 40.5c0 24.667 8.33301 49.834 25 75.501s37.667 46.167 63 61.5l11 -13c-32 -30.667 -51 -62.334 -57 -95.001
c14.667 -1.33301 26.167 -6.16602 34.5 -14.499s12.5 -18.166 12.5 -29.499zM121.001 596.998c0 -11.333 -3.99902 -21.002 -11.999 -29.002s-17.667 -12 -29 -12c-14.667 0 -26.334 5.16699 -35.001 15.5s-13 23.833 -13 40.5c0 24.667 8.33301 49.834 25 75.501
s37.667 46.167 63 61.5l11 -13c-32 -30.667 -51 -62.334 -57 -95.001c14.667 -1.33301 26.167 -6.16602 34.5 -14.499s12.5 -18.166 12.5 -29.499z" />
    <glyph glyph-name="quotedblright" unicode="&#x201d;" horiz-adv-x="292" 
d="M261 687c0 -24 -8.49902 -48.8311 -25.499 -74.498s-38.167 -46.167 -63.5 -61.5l-11 13c31.333 28.667 50.333 60 57 94c-14 1.33301 -25.333 6.16602 -34 14.499s-13 18.5 -13 30.5c0 11.333 4.16699 21 12.5 29s18.166 12 29.499 12c14 0 25.5 -5.33301 34.5 -16
s13.5 -24.334 13.5 -41.001zM127.001 687.002c0 -24 -8.49902 -48.8311 -25.499 -74.498s-38.167 -46.167 -63.5 -61.5l-11 13c31.333 28.667 50.333 60 57 94c-14 1.33301 -25.333 6.16602 -34 14.499s-13 18.5 -13 30.5c0 11.333 4.16699 21 12.5 29s18.166 12 29.499 12
c14 0 25.5 -5.33301 34.5 -16s13.5 -24.334 13.5 -41.001z" />
    <glyph glyph-name="quotedblbase" unicode="&#x201e;" horiz-adv-x="292" 
d="M260 23c0 -24.667 -8.33203 -50 -24.999 -76s-37.667 -46.333 -63 -61l-11 13c31.333 28.667 50.333 60 57 94c-14 1.33301 -25.333 6.33301 -34 15s-13 18.667 -13 30s4.16699 21 12.5 29s18.166 12 29.499 12c14 0 25.333 -5.16699 34 -15.5s13 -23.833 13 -40.5z
M127.001 23c0 -24.667 -8.49902 -49.833 -25.499 -75.5s-38.167 -46.167 -63.5 -61.5l-11 13c31.333 28.667 50.333 60 57 94c-14 1.33301 -25.333 6.33301 -34 15s-13 18.667 -13 30s4.16699 21 12.5 29s18.166 12 29.499 12c14 0 25.5 -5.16699 34.5 -15.5
s13.5 -23.833 13.5 -40.5z" />
    <glyph glyph-name="dagger" unicode="&#x2020;" horiz-adv-x="455" 
d="M415 502h-158v-346h-54v346h-160v49h160v182h54v-182h158v-49z" />
    <glyph glyph-name="daggerdbl" unicode="&#x2021;" horiz-adv-x="455" 
d="M417 312h-160v-156h-54v156h-157v48h157v169h-160v49h160v155h54v-155h158v-49h-158v-169h160v-48z" />
    <glyph glyph-name="bullet" unicode="&#x2022;" horiz-adv-x="351" 
d="M292 366c0 -32.667 -11.333 -60.667 -34 -84s-50 -35 -82 -35s-59.333 11.667 -82 35s-34 51.333 -34 84c0 33.333 11.167 61.5 33.5 84.5s49.833 34.5 82.5 34.5c32 0 59.333 -11.667 82 -35s34 -51.333 34 -84z" />
    <glyph glyph-name="ellipsis" unicode="&#x2026;" horiz-adv-x="605" 
d="M59 36c0 12 4.33301 22.167 13 30.5s19 12.5 31 12.5s22.333 -4.16699 31 -12.5s13 -18.5 13 -30.5c0 -12.667 -4.33301 -23.167 -13 -31.5s-19 -12.5 -31 -12.5s-22.333 4.16699 -31 12.5s-13 18.833 -13 31.5zM259 36c0 12 4.33301 22.167 13 30.5s19 12.5 31 12.5
s22.333 -4.16699 31 -12.5s13 -18.5 13 -30.5c0 -12.667 -4.33301 -23.167 -13 -31.5s-19 -12.5 -31 -12.5s-22.333 4.16699 -31 12.5s-13 18.833 -13 31.5zM459 36c0 12 4.33301 22.167 13 30.5s19 12.5 31 12.5s22.333 -4.16699 31 -12.5s13 -18.5 13 -30.5
c0 -12.667 -4.33301 -23.167 -13 -31.5s-19 -12.5 -31 -12.5s-22.333 4.16699 -31 12.5s-13 18.833 -13 31.5z" />
    <glyph glyph-name="perthousand" unicode="&#x2030;" horiz-adv-x="924" 
d="M245 440c0 30 -6.66699 55 -20 75s-32 30 -56 30s-42.833 -10 -56.5 -30s-20.5 -45 -20.5 -75c0 -29.333 6.83301 -54 20.5 -74s32.5 -30 56.5 -30s42.667 10 56 30s20 44.667 20 74zM291 440c0 -40.667 -11 -75.167 -33 -103.5s-52 -42.5 -90 -42.5
c-37.333 0 -66.833 14.167 -88.5 42.5s-32.5 62.833 -32.5 103.5c0 41.333 11 76 33 104s51.667 42 89 42c38 0 67.833 -14 89.5 -42s32.5 -62.667 32.5 -104zM570 566l-466 -582l-32 27l466 582zM550 137c0 30 -6.66699 55 -20 75s-32.333 30 -57 30
c-24 0 -42.667 -10 -56 -30s-20 -45 -20 -75c0 -29.333 6.66699 -54 20 -74s32 -30 56 -30c24.667 0 43.667 10 57 30s20 44.667 20 74zM595 137c0 -40.667 -11 -75.167 -33 -103.5s-51.667 -42.5 -89 -42.5c-38 0 -67.667 14 -89 42s-32 62.667 -32 104s10.833 76 32.5 104
s51.5 42 89.5 42c37.333 0 66.833 -14 88.5 -42s32.5 -62.667 32.5 -104zM832 137c0 30 -6.66699 55 -20 75s-32.333 30 -57 30c-24 0 -42.667 -10 -56 -30s-20 -45 -20 -75c0 -29.333 6.66699 -54 20 -74s32 -30 56 -30c24.667 0 43.667 10 57 30s20 44.667 20 74zM877 137
c0 -40.667 -11 -75.167 -33 -103.5s-51.667 -42.5 -89 -42.5c-38 0 -67.667 14 -89 42s-32 62.667 -32 104s10.833 76 32.5 104s51.5 42 89.5 42c37.333 0 66.833 -14 88.5 -42s32.5 -62.667 32.5 -104z" />
    <glyph glyph-name="guilsinglleft" unicode="&#x2039;" horiz-adv-x="257" 
d="M212 9h-58l-105 164l105 163h58l-108 -163z" />
    <glyph glyph-name="guilsinglright" unicode="&#x203a;" horiz-adv-x="257" 
d="M208 173l-105 -164h-58l108 164l-108 163h58z" />
    <glyph glyph-name="fraction" unicode="&#x2044;" horiz-adv-x="549" 
d="M533 565l-482 -582l-35 28l482 581z" />
    <glyph glyph-name="Euro" unicode="&#x20ac;" horiz-adv-x="639" 
d="M96 331h-67.998v49h79c18.667 62.667 54.667 112.667 108 150s114 56 182 56c67.333 0 130.666 -18.333 189.999 -55l-24 -46c-54.667 34 -111.334 51 -170.001 51c-53.333 0 -100.333 -13.833 -141 -41.5s-69.334 -65.834 -86.001 -114.501h303v-49h-315
c-2 -14 -3 -29 -3 -45c0 -15.333 1 -30 3 -44h315v-47h-302c16.667 -48.667 45.834 -86.5 87.501 -113.5s89.167 -40.5 142.5 -40.5c58.667 0 115.667 17 171 51l19 -46c-60 -37.333 -123.333 -56 -190 -56c-69.333 0 -130.5 18.5 -183.5 55.5s-88.833 86.833 -107.5 149.5
h-78v47h67c-1.33301 18.667 -2 33.334 -2 44.001c0 16 1 31 3 45z" />
    <glyph glyph-name="published" unicode="&#x2117;" horiz-adv-x="842" 
d="M512 431c0 22.667 -8.16699 41.667 -24.5 57s-39.166 23 -68.499 23c-4.66699 0 -9.5 -0.166992 -14.5 -0.5s-10.5 -0.833008 -16.5 -1.5s-10.667 -1 -14 -1v-159c13.333 -2 26.666 -3 39.999 -3c32 0 56.333 7.66699 73 23s25 36 25 62zM561 432
c0 -37.333 -13 -67.667 -39 -91s-61.667 -35 -107 -35c-10 0 -23.667 0.666992 -41 2v-124h-46v364c24 3.33301 52 5 84 5c47.333 0 84 -11.333 110 -34s39 -51.667 39 -87zM792 365.999c0 -104.667 -36.167 -193.834 -108.5 -267.501s-159.833 -110.5 -262.5 -110.5
s-190.167 36.833 -262.5 110.5s-108.5 162.834 -108.5 267.501s36.167 194 108.5 268s159.833 111 262.5 111s190.167 -37 262.5 -111s108.5 -163.333 108.5 -268zM744 365.999c0 94 -31.5 173.667 -94.5 239s-139.167 98 -228.5 98s-165.333 -32.667 -228 -98
s-94 -145 -94 -239c0 -93.333 31.333 -172.5 94 -237.5s138.667 -97.5 228 -97.5s165.5 32.5 228.5 97.5s94.5 144.167 94.5 237.5z" />
    <glyph glyph-name="servicemark" unicode="&#x2120;" horiz-adv-x="447" 
d="M19 534l12 30.999c18 -13.333 36.667 -20 56 -20c11.333 0 20 2.66699 26 8s9 12.333 9 21s-2.83301 15.834 -8.5 21.501s-17.167 12.5 -34.5 20.5c-34 15.333 -51 36 -51 62c0 16.667 6.33301 30.667 19 42s29.667 17 51 17c22 0 40.667 -5.33301 56 -16l-11 -31
c-14 10 -29 15 -45 15c-22.667 0 -34 -8.66699 -34 -26c0 -8 3.16699 -14.667 9.5 -20s16.833 -11.333 31.5 -18c35.333 -16 53 -37.667 53 -65c0 -18.667 -6.5 -34 -19.5 -46s-30.167 -18 -51.5 -18c-24 0 -46.667 7.33301 -68 22zM421 514.999h-34l-3 136l-72 -112h-4
l-72 112l-2 -136h-34l9 221h5l97 -149l95 149h5z" />
    <glyph glyph-name="trademark" unicode="&#x2122;" horiz-adv-x="481" 
d="M455 515h-35l-2 135l-70 -107h-4l-71 107l-1 -135h-36l9 221h5l96 -143l95 143h5zM193 700h-69v-185h-37v185h-68v33h174v-33z" />
    <glyph glyph-name="arrowleft" unicode="&#x2190;" horiz-adv-x="711" 
d="M661 241l-534 1l222 -183l-30 -37l-288 239v9l288 239l30 -37l-222 -183l534 1v-49z" />
    <glyph glyph-name="arrowright" unicode="&#x2192;" horiz-adv-x="711" 
d="M50 290l534 -1l-222 183l31 37l287 -239v-9l-287 -239l-31 37l222 183l-534 -1v49z" />
    <glyph glyph-name="minus" unicode="&#x2212;" horiz-adv-x="460" 
d="M60 256v49h340v-49h-340z" />
    <glyph glyph-name=".null" horiz-adv-x="0" 
 />
    <glyph glyph-name="nonmarkingreturn" horiz-adv-x="333" 
 />
    <glyph glyph-name="G.alt" horiz-adv-x="828" 
d="M421 343h360c0 -101.333 -32.667 -185.5 -98 -252.5s-147.333 -100.5 -246 -100.5c-49.333 0 -96.833 8.83301 -142.5 26.5s-86 42.167 -121 73.5s-63 71 -84 119s-31.5 100.333 -31.5 157c0 75.333 18.5 142.5 55.5 201.5s84.167 103.333 141.5 133
s118.666 44.5 183.999 44.5c55.333 0 103.833 -7.5 145.5 -22.5s83.5 -37.5 125.5 -67.5l-30 -44c-77.333 55.333 -157.666 83.333 -240.999 84c-91.333 0 -167.5 -30.833 -228.5 -92.5s-91.5 -140.5 -91.5 -236.5s31.167 -174.333 93.5 -235s137.833 -91 226.5 -91
c75.333 0 139.833 24 193.5 72s83.167 108.333 88.5 181h-300v50z" />
    <glyph glyph-name="M.alt" horiz-adv-x="847" 
d="M771 0h-57l-12 607l-274 -427h-10l-273 426l-12 -606h-57l25 742l13 2l312 -488l307 488l13 -2z" />
    <glyph glyph-name="zero.lin" horiz-adv-x="657" 
d="M597 366c0 -109.333 -24.167 -199.333 -72.5 -270s-114.166 -106 -197.499 -106c-82.667 0 -147.834 35.333 -195.501 106s-71.5 160.667 -71.5 270c0 110 24.167 200.5 72.5 271.5s114.166 106.5 197.499 106.5c82.667 0 147.834 -35.5 195.501 -106.5
s71.5 -161.5 71.5 -271.5zM537 366c0 96.667 -18.667 175.334 -56 236.001s-88.333 91 -153 91c-65.333 0 -116.333 -30.333 -153 -91s-55 -139.334 -55 -236.001c0 -96 18.667 -174.333 56 -235s88.333 -91 153 -91s115.5 30.167 152.5 90.5s55.5 138.833 55.5 235.5z" />
    <glyph glyph-name="one.lin" horiz-adv-x="388" 
d="M248 0h-56v673l-129 -44l-16 46l189 68h12v-743z" />
    <glyph glyph-name="two.lin" horiz-adv-x="552" 
d="M485 0h-459.999l-5 13c107.333 112 196.333 209.333 267 292c41.333 48.667 71.5 91.334 90.5 128.001s28.5 72 28.5 106c0 44.667 -14.667 81.167 -44 109.5s-69 42.5 -119 42.5c-56.667 0 -113.334 -18.333 -170.001 -55l-18 48c61.333 40 123.666 60 186.999 60
c68 0 122.333 -18.833 163 -56.5s61 -86.834 61 -147.501c0 -39.333 -10.667 -78.5 -32 -117.5s-54 -85.167 -98 -138.5c-33.333 -40 -104.666 -117.667 -213.999 -233h363v-51z" />
    <glyph glyph-name="three.lin" horiz-adv-x="535" 
d="M473 216c0 -64.667 -22.8311 -118.499 -68.498 -161.499s-105.167 -64.5 -178.5 -64.5c-57.333 0 -119 11.667 -185 35l20 47c59.333 -21.333 113.666 -32 162.999 -32c58 0 104.833 16.333 140.5 49s53.5 74.334 53.5 125.001c0 47.333 -19.833 85.666 -59.5 114.999
s-91.834 44 -156.501 44c-21.333 0 -50 -2.66699 -86 -8l-9 12l282 306h-346v50h438l6 -12l-280 -302c80 -1.33301 144.333 -19.333 193 -54s73 -84.334 73 -149.001z" />
    <glyph glyph-name="four.lin" horiz-adv-x="602" 
d="M574 223h-122v-223h-55v223h-372v16l410 506h17v-474h122v-48zM397 271v355l-286 -355h286z" />
    <glyph glyph-name="five.lin" horiz-adv-x="558" 
d="M496 218c0 -65.333 -23.167 -119.666 -69.5 -162.999s-105.833 -65 -178.5 -65c-60 0 -121.333 11.333 -184 34l20 49c56 -21.333 109.333 -32 160 -32c59.333 0 106.666 16.167 141.999 48.5s53 74.166 53 125.499c0 49.333 -18 90 -54 122s-85 48 -147 48
c-44.667 0 -90 -5 -136 -15l-7 9v354h371v-50h-315v-256c26.667 5.33301 57.334 8 92.001 8c78 0 139.667 -20.167 185 -60.5s68 -92.5 68 -156.5z" />
    <glyph glyph-name="six.lin" horiz-adv-x="595" 
d="M541 232c0 -67.333 -22.501 -124.667 -67.501 -172s-102.5 -71 -172.5 -71c-71.333 0 -129 23.833 -173 71.5s-66 109.5 -66 185.5c0 93.333 32 184.333 96 273s165.333 169.667 304 243l28 -47c-88 -44 -162 -95 -222 -153s-102.333 -119 -127 -183
c18.667 24 43.334 43.167 74.001 57.5s64 21.5 100 21.5c64.667 0 118.5 -21.333 161.5 -64s64.5 -96.667 64.5 -162zM482.999 226.999c0 54 -16.833 98.001 -50.5 132.001s-76.5 51 -128.5 51c-54 0 -98 -17 -132 -51s-51 -76.333 -51 -127
c0 -54.667 17.167 -100.334 51.5 -137.001s77.5 -55 129.5 -55c52.667 0 96 17.667 130 53s51 80 51 134z" />
    <glyph glyph-name="seven.lin" horiz-adv-x="507" 
d="M490 733l-317 -733h-59l300 683h-389v50h465z" />
    <glyph glyph-name="eight.lin" horiz-adv-x="563" 
d="M504 193c0 -57.333 -20.832 -105.5 -62.499 -144.5s-94.834 -58.5 -159.501 -58.5s-117.834 19.5 -159.501 58.5s-62.5 87.167 -62.5 144.5c0 40 11.5 76 34.5 108s53.833 55.667 92.5 71c-34.667 16 -62.167 39.667 -82.5 71s-30.5 65.666 -30.5 102.999
c0 56.667 19.5 103.834 58.5 141.501s88.833 56.5 149.5 56.5s110.5 -18.667 149.5 -56s58.5 -84.333 58.5 -141c0 -38 -10.167 -72.667 -30.5 -104s-48.166 -55 -83.499 -71c38.667 -15.333 69.667 -39 93 -71s35 -68 35 -108zM434.001 545c0 44 -14 80.167 -42 108.5
s-65 42.5 -111 42.5s-82.833 -14.167 -110.5 -42.5s-41.5 -64.5 -41.5 -108.5c0 -42.667 14 -78.334 42 -107.001s65 -43 111 -43c45.333 0 82 14.333 110 43s42 64.334 42 107.001zM446.001 196c0 44.667 -15.5 81.667 -46.5 111s-70.5 44 -118.5 44
c-47.333 0 -86.333 -14.667 -117 -44s-46 -66.333 -46 -111c0 -45.333 15.5 -82.833 46.5 -112.5s70.167 -44.5 117.5 -44.5c48 0 87.333 14.833 118 44.5s46 67.167 46 112.5z" />
    <glyph glyph-name="nine.lin" horiz-adv-x="590" 
d="M53 505c0 67.333 22.502 123.998 67.502 169.998s102.167 69 171.5 69c72 0 129.667 -23.667 173 -71s65 -108.666 65 -183.999c0 -93.333 -32.333 -184.666 -97 -273.999s-166 -170.333 -304 -243l-28 47c180 91.333 295.667 202.333 347 333
c-16.667 -21.333 -39.834 -38.666 -69.501 -51.999s-61.834 -20 -96.501 -20c-64.667 0 -119 21.167 -163 63.5s-66 96.166 -66 161.499zM110.002 509.998c0 -54 16.667 -97.833 50 -131.5s76.333 -50.5 129 -50.5c54 0 97.5 17 130.5 51s49.5 76 49.5 126
c0 54.667 -16.667 100 -50 136s-76 54 -128 54c-52.667 0 -96 -17.5 -130 -52.5s-51 -79.167 -51 -132.5z" />
    <glyph glyph-name="fraction.lin" horiz-adv-x="678" 
d="M662 721l-608 -733l-37 30l607 733z" />
    <glyph glyph-name="ampersand.cap" horiz-adv-x="729" 
d="M282 413c60 21.333 104.833 45.8311 134.5 73.498s44.5 60.834 44.5 99.501c0 30 -10 55.667 -30 77s-46.667 32 -80 32s-61.5 -12.667 -84.5 -38s-34.5 -56.666 -34.5 -93.999c0 -47.333 16.667 -97.333 50 -150zM471 130.998
c-98.667 88 -170.001 163.334 -214.001 226.001c-93.333 -38.667 -140 -95.334 -140 -170.001c0 -42 15.333 -77 46 -105s70.334 -42 119.001 -42c58.667 0 121.667 30.333 189 91zM309.999 372.999c40 -56 105.998 -124.667 197.998 -206
c40.667 42 90.334 103.333 149.001 184l42 -29c-64.667 -86.667 -115.667 -149.334 -153 -188.001l137 -113l-34 -39l-67.5 56l-72.5 61c-78.667 -72.667 -154.667 -109 -228 -109c-63.333 0 -116.166 18.167 -158.499 54.5s-63.5 83.833 -63.5 142.5
c0 94 57 163.667 171 209c-35.333 58.667 -53 113.334 -53 164.001c0 52 17.5 95.5 52.5 130.5s75.833 52.5 122.5 52.5c50.667 0 90.667 -15.5 120 -46.5s44 -67.167 44 -108.5c0 -48.667 -17.333 -90.167 -52 -124.5s-86 -64.5 -154 -90.5z" />
    <glyph glyph-name="guillemotleft.cap" horiz-adv-x="402" 
d="M357 207h-58l-105 164l105 163h58l-108 -163zM212 207h-58l-105 164l105 163h58l-108 -163z" />
    <glyph glyph-name="guillemotright.cap" horiz-adv-x="402" 
d="M353 371l-105 -164h-58l108 164l-108 163h58zM208 371l-105 -164h-58l108 164l-108 163h58z" />
    <glyph glyph-name="guilsinglleft.cap" horiz-adv-x="257" 
d="M212 207h-58l-105 164l105 163h58l-108 -163z" />
    <glyph glyph-name="guilsinglright.cap" horiz-adv-x="257" 
d="M208 371l-105 -164h-58l108 164l-108 163h58z" />
    <glyph glyph-name="hyphen.cap" horiz-adv-x="339" 
d="M289 347h-239v49h239v-49z" />
    <glyph glyph-name="endash.cap" horiz-adv-x="500" 
d="M450 347h-400v49h400v-49z" />
    <glyph glyph-name="emdash.cap" horiz-adv-x="750" 
d="M700 347h-650v49h650v-49z" />
    <glyph glyph-name="slash.cap" horiz-adv-x="319" 
d="M305 839l-238 -949h-52l239 949h51z" />
    <glyph glyph-name="backslash.cap" horiz-adv-x="319" 
d="M305 -110h-52l-238 949h51z" />
    <glyph glyph-name="bar.cap" horiz-adv-x="231" 
d="M140 -110h-50v949h50v-949z" />
    <glyph glyph-name="parenleft.cap" horiz-adv-x="333" 
d="M338 -80l-24.001 -41.999c-85.333 52 -150.833 121.667 -196.5 209s-68.5 179.666 -68.5 276.999s22.833 189.666 68.5 276.999s111.167 157.333 196.5 210l25 -41c-75.333 -46 -133.833 -109 -175.5 -189s-62.5 -165.667 -62.5 -257s20.833 -176.666 62.5 -255.999
s99.834 -142 174.501 -188z" />
    <glyph glyph-name="parenright.cap" horiz-adv-x="333" 
d="M284 364c0 -97.333 -22.833 -189.667 -68.5 -277s-111.167 -157 -196.5 -209l-25 42c75.333 46 133.833 108.667 175.5 188s62.5 164.666 62.5 255.999s-20.833 177 -62.5 257s-100.167 143 -175.5 189l25 41c85.333 -52.667 150.833 -122.667 196.5 -210
s68.5 -179.666 68.5 -276.999z" />
    <glyph glyph-name="bracketleft.cap" horiz-adv-x="295" 
d="M271 -110h-191v949h191v-46h-139v-857h139v-46z" />
    <glyph glyph-name="bracketright.cap" horiz-adv-x="295" 
d="M216 -110h-191v46h139v857h-139v46h191v-949z" />
    <glyph glyph-name="braceleft.cap" horiz-adv-x="296" 
d="M278 -117c-112 0 -168 57.665 -168 172.998v214c0 24.667 -4.83301 42.834 -14.5 54.501s-27.167 17.5 -52.5 17.5h-23v47h23c25.333 0 42.833 5.66699 52.5 17s14.5 29.666 14.5 54.999v211c0 116 56 174 168 174v-49c-38.667 0 -67.5 -9.66699 -86.5 -29
s-28.5 -50.666 -28.5 -93.999v-200c0 -31.333 -4.5 -55 -13.5 -71s-26.5 -28.667 -52.5 -38c26 -9.33301 43.5 -22 52.5 -38s13.5 -39.667 13.5 -71v-201c0 -43.333 9.5 -74.666 28.5 -93.999s47.833 -29 86.5 -29v-49z" />
    <glyph glyph-name="braceright.cap" horiz-adv-x="296" 
d="M276 342l-23 0.00195312c-25.333 0 -42.833 -5.83301 -52.5 -17.5s-14.5 -29.834 -14.5 -54.501v-214c0 -115.333 -56 -173 -168 -173v49c39.333 0 68.5 9.66699 87.5 29s28.5 50.666 28.5 93.999v201c0 31.333 4.5 55 13.5 71s26.167 28.667 51.5 38
c-25.333 9.33301 -42.5 22 -51.5 38s-13.5 39.667 -13.5 71v200c0 43.333 -9.5 74.666 -28.5 93.999s-48.167 29 -87.5 29v49c112 0 168 -58 168 -174v-211c0 -25.333 4.83301 -43.666 14.5 -54.999s27.167 -17 52.5 -17h23v-47z" />
    <glyph glyph-name="at.cap" horiz-adv-x="866" 
d="M802 400c0 -79.333 -24.0039 -139.335 -72.0039 -180.002c-25.333 -21.333 -55.666 -32 -90.999 -32c-22 0 -41.667 5.5 -59 16.5s-30 26.833 -38 47.5c-36 -41.333 -78.667 -62 -128 -62c-33.333 0 -61.166 9.16699 -83.499 27.5s-33.5 43.833 -33.5 76.5
c0 29.333 11.333 53.333 34 72s51.334 28 86.001 28s69 -9 103 -27v22c0 32 -7.16699 55.5 -21.5 70.5s-39.5 22.5 -75.5 22.5c-25.333 0 -53.333 -5.66699 -84 -17l-8 45c34.667 13.333 68.334 20 101.001 20c94.667 0 142 -47.333 142 -142v-79
c0 -26 6.5 -45.167 19.5 -57.5s29.167 -18.5 48.5 -18.5c24 0 43.333 7 58 21c33.333 30 50 77 50 141c0 28.667 -3.5 57 -10.5 85s-18.667 55.167 -35 81.5s-36.333 49.5 -60 69.5s-53.334 36 -89.001 48s-75.167 18 -118.5 18c-90 0 -165.667 -32 -227 -96
s-92 -142.667 -92 -236c0 -95.333 31.167 -173.666 93.5 -234.999s148.833 -92 259.5 -92c46.667 0 98 9.33301 154 28l13 -46c-65.333 -20 -121.666 -30 -168.999 -30c-123.333 0 -221.5 35.5 -294.5 106.5s-109.5 160.5 -109.5 268.5c0 104.667 36 194 108 268
s160 111 264 111c59.333 0 113 -10.167 161 -30.5s86.333 -47.166 115 -80.499s50.667 -70 66 -110s23 -81 23 -123zM519.996 280.998v41c-27.333 20 -59 30 -95 30c-20.667 0 -38.167 -5.33301 -52.5 -16s-21.5 -24.667 -21.5 -42c0 -18 7.16699 -32.667 21.5 -44
s31.833 -17 52.5 -17c39.333 0 71 16 95 48z" />
    <glyph glyph-name="registered.alt" horiz-adv-x="842" 
d="M421 -12c-102.667 0 -190.167 36.833 -262.5 110.5s-108.5 162.834 -108.5 267.501s36.167 194 108.5 268s159.833 111 262.5 111s190.167 -37 262.5 -111s108.5 -163.333 108.5 -268s-36.167 -193.834 -108.5 -267.501s-159.833 -110.5 -262.5 -110.5zM421 31
c89.333 0 165.5 32.5 228.5 97.5s94.5 144.167 94.5 237.5c0 94 -31.5 173.667 -94.5 239s-139.167 98 -228.5 98s-165.333 -32.667 -228 -98s-94 -145 -94 -239c0 -93.333 31.333 -172.5 94 -237.5s138.667 -97.5 228 -97.5zM317 184v363c28 4 57 6 87 6
c47.333 0 83.5 -10.167 108.5 -30.5s37.5 -47.5 37.5 -81.5c0 -50.667 -26 -86 -78 -106l100 -151h-54l-88 140c-9.33301 -1.33301 -18.666 -2 -27.999 -2c-4 0 -10.333 0.166992 -19 0.5s-15.334 0.5 -20.001 0.5v-139h-46zM363 508v-145.001c16 -1.33301 28.667 -2 38 -2
c32 0 56.667 6.83301 74 20.5s26 32.834 26 57.501c0 22 -8 39.667 -24 53s-38.333 20 -67 20c-18 0 -33.667 -1.33301 -47 -4z" />
    <glyph glyph-name="dollar.lin" horiz-adv-x="517" 
d="M269 825l48 -5l-6 -76c49.333 -6 93.666 -22 132.999 -48l-26 -46c-32.667 22.667 -69.667 37 -111 43l-25 -301c62 -29.333 107.167 -59 135.5 -89s42.5 -68.333 42.5 -115c0 -56.667 -20.167 -103.5 -60.5 -140.5s-90.5 -56.833 -150.5 -59.5l-7 -83l-48 4l6 81
c-60 6.66699 -118 28.667 -174 66l26 47c50.667 -33.333 101.334 -54 152.001 -62l26 317c-57.333 26 -100 54 -128 84s-42 68.333 -42 115c0 50 18.833 93 56.5 129s86.167 55.667 145.5 59zM405 182c0 35.333 -10.333 64.667 -31 88s-53 45.666 -97 66.999l-24 -298
c45.333 2.66699 82 17.334 110 44.001s42 59.667 42 99zM114 561.001c0 -33.333 10.166 -61.167 30.499 -83.5s50.5 -43.5 90.5 -63.5l23 281c-43.333 -2.66699 -78.166 -16.667 -104.499 -42s-39.5 -56 -39.5 -92z" />
    <glyph glyph-name="sterling.lin" horiz-adv-x="561" 
d="M525 0h-477v51h84v289h-79v13l79 41v111c0 72.667 19.167 130.667 57.5 174s94.833 65 169.5 65c56 0 109.333 -18.333 160 -55l-29 -46c-46.667 32 -92.334 48 -137.001 48c-55.333 0 -96.666 -15.833 -123.999 -47.5s-41 -76.5 -41 -134.5v-118h200v-50h-200v-290h337
v-51z" />
    <glyph glyph-name="Euro.lin" horiz-adv-x="795" 
d="M131 423l-90 0.000976562v49h98c22 82 66.667 147.833 134 197.5s145.333 74.5 234 74.5c82 0 160.667 -23 236 -69l-22 -45c-68.667 42.667 -141.334 64.334 -218.001 65.001c-72.667 0 -136.667 -20.167 -192 -60.5s-93.333 -94.5 -114 -162.5h403v-49h-414
c-2.66699 -16.667 -4 -36 -4 -58c0 -22.667 1.33301 -42.334 4 -59.001h414v-50h-402c21.333 -66.667 60 -119.334 116 -158.001s120.333 -58 193 -58c74 0 147 22 219 66l17 -45c-77.333 -47.333 -156.333 -71 -237 -71c-89.333 0 -167.166 24 -233.499 72
s-110.833 112.667 -133.5 194h-98v50h89c-2.66699 16.667 -4 36 -4 58c0 18 1.66699 37.667 5 59z" />
    <glyph glyph-name="yen.lin" horiz-adv-x="652" 
d="M614 733l-233 -365h188v-49h-213v-98h213v-49h-213v-172h-54v172h-214v49h214v98h-214v49h189l-234 365h66l221 -353l220 353h64z" />
    <glyph glyph-name="cent.lin" horiz-adv-x="448" 
d="M198 82l6.00098 78c-49.333 10.667 -88.833 35.167 -118.5 73.5s-44.5 83.5 -44.5 135.5c0 58.667 18.833 108.667 56.5 150s84.5 64.333 140.5 69l6 75l47 -4l-6 -72c38.667 -3.33301 76.667 -16.666 114 -39.999l-25 -43c-34 19.333 -65 30.666 -93 33.999l-26 -334h4
c39.333 0 78.666 12 117.999 36l22 -43c-45.333 -28 -92.333 -42 -141 -42h-7l-6 -77zM95.001 371c0 -40 10.333 -74.168 31 -102.501s48 -47.5 82 -57.5l26 328c-41.333 -5.33301 -74.833 -23.166 -100.5 -53.499s-38.5 -68.5 -38.5 -114.5z" />
    <glyph glyph-name="numbersign.lin" horiz-adv-x="710" 
d="M672 476h-143l-49 -221h144l-11 -49h-145l-46 -206h-51l46 206h-193l-47 -206h-52l46 206h-143l10 49h144l49 221h-144l11 48h144l47 209h52l-46 -209h192l48 209h51l-46 -209h143zM283 476l-49 -221h195l49 221h-195z" />
    <glyph glyph-name="paragraph.lin" horiz-adv-x="696" 
d="M610 0l-55.999 -0.000976562v685c-32.667 4.66699 -75.667 7.66699 -129 9h-4v-694h-56v214c-84.667 -5.33301 -158.667 14.334 -222 59.001s-95 107 -95 187c0 85.333 33 154 99 206s155 78 267 78c51.333 0 116.666 -4.66699 195.999 -14v-730zM365.001 262.999
l0.000976562 428.997c-82.667 -6.66699 -146.334 -30.167 -191.001 -70.5s-67 -93.166 -67 -158.499s25.5 -116.166 76.5 -152.499s111.5 -52.166 181.5 -47.499z" />
    <glyph glyph-name="section.lin" horiz-adv-x="507" 
d="M453 364c0 -28.667 -9.33203 -53.667 -27.999 -75s-42.667 -37.333 -72 -48c46 -26.667 69 -61.334 69 -104.001s-16.5 -77.834 -49.5 -105.501s-77.167 -41.5 -132.5 -41.5c-65.333 0 -128.333 21.333 -189 64l29 44c54.667 -40 109.334 -60 164.001 -60
c38 0 67.833 8.33301 89.5 25s32.5 38.334 32.5 65.001c0 22.667 -10.667 41.667 -32 57s-47.333 27.833 -78 37.5l-92 30.5c-30.667 10.667 -56.667 26 -78 46s-32 44.667 -32 74c0 28 9.5 53 28.5 75s43.5 38 73.5 48c-46 26 -69 60 -69 102
c0 42.667 16.5 77.667 49.5 105s75.833 41 128.5 41c63.333 0 120.333 -18 171 -54l-27 -45c-47.333 34 -95.666 51 -144.999 51c-36.667 0 -66 -8 -88 -24s-33 -37.667 -33 -65c0 -22 10.667 -40.667 32 -56s47.166 -27.666 77.499 -36.999s60.666 -19.333 90.999 -30
s56.166 -26 77.499 -46s32 -44.667 32 -74zM398.001 355c0 11.333 -2.66504 21.666 -7.99805 30.999s-11.666 17 -18.999 23s-18.333 12.167 -33 18.5s-27.5 11.333 -38.5 15l-47 15.5l-48.5 16c-26 -4.66699 -48.167 -15.667 -66.5 -33s-27.5 -37.333 -27.5 -60
c0 -11.333 2.66699 -21.666 8 -30.999s11.666 -17 18.999 -23s18.166 -12.167 32.499 -18.5s27.166 -11.333 38.499 -15l47 -15c20 -6.33301 36.333 -11.833 49 -16.5c26 4.66699 48.167 15.667 66.5 33s27.5 37.333 27.5 60z" />
    <glyph glyph-name="degree.lin" horiz-adv-x="363" 
d="M314 613c0 -36 -12.167 -66.833 -36.5 -92.5s-56.166 -38.5 -95.499 -38.5c-40 0 -72.167 12.833 -96.5 38.5s-36.5 56.5 -36.5 92.5s12.167 66.833 36.5 92.5s56.166 38.5 95.499 38.5s71.333 -12.833 96 -38.5s37 -56.5 37 -92.5zM268 613
c0 26 -8.16699 47.667 -24.5 65s-37.166 26 -62.499 26c-24.667 0 -45.167 -8.66699 -61.5 -26s-24.5 -39 -24.5 -65s8.16699 -47.833 24.5 -65.5s37.166 -26.5 62.499 -26.5c24.667 0 45.167 8.83301 61.5 26.5s24.5 39.5 24.5 65.5z" />
    <glyph glyph-name="percent.lin" horiz-adv-x="798" 
d="M363 560c0 -52 -13.834 -95.667 -41.501 -131s-65.5 -53 -113.5 -53c-47.333 0 -84.666 17.667 -111.999 53s-41 79 -41 131s13.833 95.667 41.5 131s65.167 53 112.5 53c48 0 85.667 -17.667 113 -53s41 -79 41 -131zM311.999 560c0 40 -8.83301 72.999 -26.5 98.999
s-43.167 39 -76.5 39c-32 0 -57.167 -13.167 -75.5 -39.5s-27.5 -59.166 -27.5 -98.499s9 -72.333 27 -99s43 -40 75 -40c33.333 0 59 13.333 77 40s27 59.667 27 99zM708.999 718.999l-586 -734l-34 29l585 734zM742.999 173.999c0 -52 -13.834 -95.667 -41.501 -131
s-65.5 -53 -113.5 -53c-47.333 0 -84.666 17.667 -111.999 53s-41 79 -41 131s13.833 95.667 41.5 131s65.167 53 112.5 53c48 0 85.667 -17.667 113 -53s41 -79 41 -131zM691.998 173.999c0 40 -9 73.167 -27 99.5s-43.333 39.5 -76 39.5c-32 0 -57.167 -13.333 -75.5 -40
s-27.5 -59.667 -27.5 -99s9 -72.166 27 -98.499s43 -39.5 75 -39.5c33.333 0 59 13.167 77 39.5s27 59.166 27 98.499z" />
    <glyph glyph-name="perthousand.lin" horiz-adv-x="1154" 
d="M312 560c0 40 -8.83301 72.999 -26.5 98.999s-43.167 39 -76.5 39c-32 0 -57.167 -13.167 -75.5 -39.5s-27.5 -59.166 -27.5 -98.499s9 -72.333 27 -99s43 -40 75 -40c33.333 0 59 13.333 77 40s27 59.667 27 99zM363 559.999c0 -52 -13.834 -95.667 -41.501 -131
s-65.5 -53 -113.5 -53c-47.333 0 -84.666 17.667 -111.999 53s-41 79 -41 131s13.833 95.667 41.5 131s65.167 53 112.5 53c48 0 85.667 -17.667 113 -53s41 -79 41 -131zM708.999 718.999l-586 -734l-34 29l585 734zM691.999 173.999c0 40 -9 73.167 -27 99.5
s-43.333 39.5 -76 39.5c-32 0 -57.167 -13.333 -75.5 -40s-27.5 -59.667 -27.5 -99s9 -72.166 27 -98.499s43 -39.5 75 -39.5c33.333 0 59 13.167 77 39.5s27 59.166 27 98.499zM742.999 173.999c0 -52 -13.834 -95.667 -41.501 -131s-65.5 -53 -113.5 -53
c-47.333 0 -84.666 17.667 -111.999 53s-41 79 -41 131s13.833 95.667 41.5 131s65.167 53 112.5 53c48 0 85.667 -17.667 113 -53s41 -79 41 -131zM1048 173.999c0 40 -8.83301 73.167 -26.5 99.5s-42.834 39.5 -75.501 39.5s-58 -13.333 -76 -40s-27 -59.667 -27 -99
s8.83301 -72.166 26.5 -98.499s42.834 -39.5 75.501 -39.5s58 13.167 76 39.5s27 59.166 27 98.499zM1099 173.999c0 -52 -13.667 -95.667 -41 -131s-65 -53 -113 -53s-85.5 17.667 -112.5 53s-40.5 79 -40.5 131s13.667 95.667 41 131s65 53 113 53s85.5 -17.667 112.5 -53
s40.5 -79 40.5 -131z" />
    <glyph glyph-name="quotedbl.cap" horiz-adv-x="345" 
d="M197 721l-116 -168l-31 20l92 182zM330 710l-117 -168l-32 20l93 183z" />
    <glyph glyph-name="quotesingle.cap" horiz-adv-x="223" 
d="M197 721l-116 -168l-31 20l92 182z" />
    <glyph glyph-name="plus.lin" horiz-adv-x="460" 
d="M400 347h-144v-151h-52v151h-144v49h144v151h52v-151h144v-49z" />
    <glyph glyph-name="minus.lin" horiz-adv-x="460" 
d="M60 347v49h340v-49h-340z" />
    <glyph glyph-name="divide.lin" horiz-adv-x="460" 
d="M60 347v49h340v-49h-340zM190 515c0 11.333 3.83301 21 11.5 29s17.167 12 28.5 12s20.833 -4 28.5 -12s11.5 -17.667 11.5 -29c0 -10.667 -3.83301 -20 -11.5 -28s-17.167 -12 -28.5 -12c-10.667 0 -20 4 -28 12s-12 17.333 -12 28zM190 226
c0 11.333 3.83301 21 11.5 29s17.167 12 28.5 12s20.833 -4 28.5 -12s11.5 -17.667 11.5 -29c0 -10.667 -3.83301 -20 -11.5 -28s-17.167 -12 -28.5 -12c-10.667 0 -20 4 -28 12s-12 17.333 -12 28z" />
    <glyph glyph-name="equal.lin" horiz-adv-x="403" 
d="M343 417h-283v50h283v-50zM343 276h-283v49h283v-49z" />
    <glyph glyph-name="multiply.lin" horiz-adv-x="450" 
d="M70 492l34 35l121 -121l121 121l34 -35l-121 -121l121 -120l-34 -35l-121 121l-121 -121l-34 35l120 120z" />
    <glyph glyph-name="less.lin" horiz-adv-x="381" 
d="M342 163l-34 -35l-275 243l275 244l34 -37l-234 -208z" />
    <glyph glyph-name="greater.lin" horiz-adv-x="381" 
d="M348 372l-275 -244l-34 37l234 208l-234 207l34 35z" />
    <glyph glyph-name="florin.lin" horiz-adv-x="473" 
d="M463 731l-15.002 -49c-23.333 7.33301 -44.666 11 -63.999 11c-47.333 0 -83.166 -15 -107.499 -45s-40.166 -78 -47.499 -144l-10 -87h137l-3 -50h-140l-42 -367h-57l42 366h-72l2 13l76 38l10 87c8.66699 78 31.167 137.5 67.5 178.5s84.166 61.5 143.499 61.5
c29.333 0 56 -4.33301 80 -13z" />
    <glyph glyph-name="arrowleft.cap" horiz-adv-x="711" 
d="M661 347l-534 1l222 -183l-30 -37l-288 239v9l288 239l30 -37l-222 -183l534 1v-49z" />
    <glyph glyph-name="arrowright.cap" horiz-adv-x="711" 
d="M50 396l534 -1l-222 183l31 37l287 -239v-9l-287 -239l-31 37l222 183l-534 -1v49z" />
    <glyph glyph-name="hfjslug" horiz-adv-x="694" 
d="M644 -200h-208l-8 14h-163l-8 -14h-207v303c9.33301 0 17 3.16699 23 9.5s9 13.833 9 22.5s-3.16699 16.167 -9.5 22.5s-13.833 9.5 -22.5 9.5v554h100l30 79h334l29 -79h101v-921zM400 563v-172h15v78h38v14h-38v66h43v14h-58zM184 563v-172h15v79h47v-79h15v172h-15
v-79h-47v79h-15zM460 394c5.33301 -2.66699 12.334 -4 21.001 -4c20.667 0 31 12 31 36v137h-16v-137c0 -14.667 -5.33301 -22 -16 -22c-6.66699 0 -13.334 2 -20.001 6v-16zM349.001 438l-15.999 30.999c15.333 14 23 28 23 42c0 8 -2.33301 15.167 -7 21.5
s-11.334 9.5 -20.001 9.5c-8 0 -14.667 -3.16699 -20 -9.5s-8 -13.5 -8 -21.5c0 -8.66699 4.66699 -21.667 14 -39c-15.333 -12 -23 -27 -23 -45c0 -11.333 3 -20.666 9 -27.999s13.333 -11 22 -11c11.333 0 20.333 8 27 24h1l12 -24l11 8l-16 30
c6.66699 15.333 11 28.333 13 39l-13 3c-1.33301 -6 -4.33301 -16 -9 -30zM523.002 322.999v-46h8v13l7 7l16 -20h9l-19 26l18 20h-10l-21 -24v24h-8zM488.002 291.999l10 -15h9l-12 17c6.66699 2 10 7 10 15c0 3.33301 -1.5 6.5 -4.5 9.5s-6.83301 4.5 -11.5 4.5h-21v-46h8
v15h12zM426.002 275.999c7.33301 0 13.168 2.33301 17.501 7s6.5 10.334 6.5 17.001c0 6 -2.33301 11.5 -7 16.5s-10.334 7.5 -17.001 7.5s-12.167 -2.5 -16.5 -7.5s-6.5 -10.5 -6.5 -16.5c0 -6.66699 2.16699 -12.334 6.5 -17.001s9.83301 -7 16.5 -7zM370.004 300.999
l-13 22h-9l18 -29v-17h8v17l18 29h-9zM193.004 322.999v-46h33v7h-25v13h22v7h-22v12h25v7h-33zM132.004 322.999v-46h8v32l25 -32h7v46h-8v-32l-25 32h-7zM241.004 322.999l15 -47h8l10 34h1l11 -34h8l14 47h-8l-10 -35h-1l-10 35h-8l-11 -35h-1l-10 35h-8z
M327.004 478.999c-8 14.667 -12 25.333 -12 32c0 12.667 4.66699 19 14 19c8.66699 0 13 -6.33301 13 -19c0 -10 -5 -20.667 -15 -32zM342.004 422.998c-4 -14 -10 -21 -18 -21c-11.333 0 -17 9 -17 27c0 12 5 23 15 33zM488.004 298.998h-12v17h11
c6.66699 0 10 -2.66699 10 -8c0 -6 -3 -9 -9 -9zM426.004 282.998c-10 0 -15 5.66699 -15 17c0 4 1.5 7.83301 4.5 11.5s6.5 5.5 10.5 5.5c4.66699 0 8.5 -1.83301 11.5 -5.5s4.5 -7.5 4.5 -11.5c0 -4.66699 -1.5 -8.66699 -4.5 -12s-6.83301 -5 -11.5 -5z" />
    <glyph glyph-name="caron.alt" horiz-adv-x="224" 
d="M115 737l54 -8c0 -76 -30 -137.333 -90 -184l-25 21c38.667 40.667 59 97.667 61 171z" />
    <glyph glyph-name="NUL" horiz-adv-x="0" 
 />
    </font>
</defs>
</svg>
